<svg width="46" height="46" viewBox="0 0 46 46" fill="none" xmlns="http://www.w3.org/2000/svg">
<circle cx="23" cy="23" r="23" fill="#2B2F44"/>
<g clip-path="url(#clip0)">
<path d="M29.3455 21.0921L25.6951 19.3519L21.9464 20.9937L19.5464 27.043L21.7984 33.093L23.6736 34.5H25.6951H34.4998L29.3455 21.0921Z" fill="#0081FF"/>
<path d="M29.3457 21.0921L25.6953 19.3519V34.5H34.5L29.3457 21.0921Z" fill="#0078EE"/>
<path d="M19.7385 23.961L17.6094 24.7425L15.4802 23.961L11.5 34.5H17.6094H23.6738L19.7385 23.961Z" fill="#0081FF"/>
<path d="M23.6738 34.5L19.7385 23.961L17.6094 24.7425V34.5H23.6738Z" fill="#0078EE"/>
<path d="M17.6091 18.2832L15.48 23.961L17.6091 26.0901L19.7383 23.961L17.6091 18.2832Z" fill="#F0F7FF"/>
<path d="M17.6094 18.2832V26.0901L19.7385 23.961L17.6094 18.2832Z" fill="#DFE7F4"/>
<path d="M25.6955 11.5L21.9468 20.9937L24.3479 23.3948L25.6955 22.0472L27.0432 23.3948L29.3459 21.0921L25.6955 11.5Z" fill="#F0F7FF"/>
<path d="M29.3457 21.0921L25.6953 11.5V22.0472L27.043 23.3948L29.3457 21.0921Z" fill="#DFE7F4"/>
</g>
<defs>
<clipPath id="clip0">
<rect width="23" height="23" fill="white" transform="translate(11.5 11.5)"/>
</clipPath>
</defs>
</svg>
