<?xml version="1.0" standalone="no"?>
<!DOCTYPE svg PUBLIC "-//W3C//DTD SVG 20010904//EN"
 "http://www.w3.org/TR/2001/REC-SVG-20010904/DTD/svg10.dtd">
<svg version="1.0" xmlns="http://www.w3.org/2000/svg"
 width="700.000000pt" height="700.000000pt" viewBox="0 0 700.000000 700.000000"
 preserveAspectRatio="xMidYMid meet">
<metadata>
Created by potrace 1.11, written by Peter Selinger 2001-2013
</metadata>
<g transform="translate(0.000000,700.000000) scale(0.100000,-0.100000)"
fill="#000000" stroke="none">
<path d="M4255 6778 c-49 -127 -315 -802 -325 -823 -4 -11 -33 -83 -63 -160
-136 -347 -370 -943 -382 -970 -7 -16 -44 -111 -83 -210 -76 -193 -386 -975
-584 -1474 l-121 -304 -14 34 c-8 19 -98 257 -200 529 -101 272 -195 522 -208
555 -13 33 -94 249 -180 480 -87 231 -160 423 -164 427 -3 4 -125 -311 -270
-700 -146 -389 -268 -711 -273 -717 -4 -5 -8 -15 -8 -22 0 -7 -15 -52 -34
-101 -19 -48 -100 -262 -181 -477 -81 -214 -164 -435 -185 -490 -21 -55 -59
-156 -85 -225 -26 -69 -57 -152 -70 -185 -13 -33 -140 -370 -283 -750 -143
-379 -290 -768 -326 -864 -37 -96 -65 -176 -63 -178 6 -6 6687 -6 6693 0 3 3
-70 200 -162 439 -92 238 -177 460 -189 493 -24 63 -825 2148 -901 2345 -97
249 -165 427 -335 875 -28 72 -56 146 -64 165 -17 44 -20 50 -331 870 -140
371 -270 713 -289 760 -18 47 -88 231 -155 410 -68 179 -126 329 -130 333 -4
4 -19 -25 -35 -65z"/>
</g>
</svg>
