<?xml version="1.0" encoding="iso-8859-1"?>
<!-- Generator: Adobe Illustrator 19.0.0, SVG Export Plug-In . SVG Version: 6.00 Build 0)  -->
<svg version="1.1" id="Capa_1" xmlns="http://www.w3.org/2000/svg" xmlns:xlink="http://www.w3.org/1999/xlink" x="0px" y="0px"
	 viewBox="0 0 512 512" style="enable-background:new 0 0 512 512;" xml:space="preserve">
<path style="fill:#FEDD59;" d="M512,256c0,63.645-23.228,121.866-61.67,166.651c-6.144,7.168-12.685,13.981-19.581,20.417
	C384.993,485.836,323.563,512,256,512s-128.993-26.164-174.749-68.932c-6.907-6.437-13.448-13.27-19.602-20.438
	C23.218,377.856,0,319.634,0,256S23.218,134.144,61.649,89.37c28.191-32.852,64.564-58.472,105.963-73.697
	C195.156,5.538,224.935,0,256,0s60.844,5.538,88.388,15.673c41.388,15.224,77.761,40.835,105.942,73.676
	C488.772,134.134,512,192.355,512,256z"/>
<path style="fill:#245073;" d="M450.33,40.542v382.109c-6.144,7.168-12.685,13.981-19.581,20.417
	C384.993,485.836,323.563,512,256,512s-128.993-26.164-174.749-68.932c-6.907-6.437-13.448-13.27-19.602-20.438V40.542
	c0-13.73,11.128-24.869,24.869-24.869h338.944C439.191,15.673,450.33,26.812,450.33,40.542z"/>
<path style="fill:#D3EBFF;" d="M430.749,101.136v341.932C384.993,485.836,323.563,512,256,512s-128.993-26.164-174.749-68.932
	V101.136c0-8.192,6.635-14.827,14.827-14.827h319.843c0.899,0,1.776,0.084,2.623,0.24
	C425.482,87.782,430.749,93.842,430.749,101.136z"/>
<path style="fill:#1F3D5C;" d="M321.819,61.231H190.168c-6.059,0-10.97-4.912-10.97-10.97l0,0c0-6.059,4.912-10.97,10.97-10.97
	h131.651c6.059,0,10.97,4.912,10.97,10.97l0,0C332.79,56.319,327.877,61.231,321.819,61.231z"/>
<circle style="fill:#FC3683;" cx="256" cy="342.977" r="148.344"/>
<circle style="fill:#FEDD59;" cx="256" cy="342.977" r="99.004"/>
<g>
	<circle style="fill:#3697BC;" cx="256" cy="342.977" r="54.366"/>
	<path style="fill:#3697BC;" d="M104.2,162.695c0-0.203,0.067-0.473,0.135-0.743l12.568-41.218c0.743-2.365,3.784-3.513,6.892-3.513
		c3.109,0,6.149,1.148,6.893,3.513l12.636,41.218c0.067,0.271,0.135,0.541,0.135,0.743c0,2.5-3.852,4.325-6.757,4.325
		c-1.689,0-3.041-0.541-3.446-1.959l-2.297-8.446H116.7l-2.297,8.446c-0.405,1.419-1.758,1.959-3.446,1.959
		C108.051,167.019,104.2,165.194,104.2,162.695z M128.727,148.505l-4.933-18.109l-4.933,18.109H128.727z"/>
	<path style="fill:#3697BC;" d="M168.866,126.815c-3.853,0-6.081,2.162-6.081,6.756v17.906c0,4.594,2.23,6.757,6.149,6.757
		c5.406,0,5.744-4.122,5.945-6.757c0.203-2.5,2.5-3.175,5.203-3.175c3.649,0,5.337,0.946,5.337,5
		c0,8.987-7.297,14.123-16.959,14.123c-8.852,0-16.218-4.325-16.218-15.947v-17.906c0-11.622,7.365-15.946,16.218-15.946
		c9.662,0,16.959,4.865,16.959,13.447c0,4.054-1.689,5.001-5.27,5.001c-2.838,0-5.135-0.743-5.27-3.176
		C174.812,131.139,174.609,126.815,168.866,126.815z"/>
	<path style="fill:#3697BC;" d="M225.424,117.625c2.23,0,3.175,2.433,3.175,4.662c0,2.568-1.149,4.797-3.175,4.797h-9.326v36.691
		c0,2.162-2.634,3.243-5.27,3.243c-2.634,0-5.27-1.081-5.27-3.243v-36.691h-9.325c-2.027,0-3.175-2.23-3.175-4.797
		c0-2.23,0.946-4.662,3.175-4.662C196.233,117.625,225.424,117.625,225.424,117.625z"/>
	<path style="fill:#3697BC;" d="M238.196,120.801c0-2.23,2.634-3.176,5.27-3.176c2.634,0,5.27,0.946,5.27,3.176v42.975
		c0,2.162-2.635,3.243-5.27,3.243s-5.27-1.081-5.27-3.243V120.801z"/>
	<path style="fill:#3697BC;" d="M258.197,122.693c-0.067-0.271-0.135-0.54-0.135-0.743c0-2.5,3.852-4.325,6.757-4.325
		c1.689,0,3.041,0.541,3.446,1.959l9.461,34.663l9.392-34.663c0.405-1.419,1.758-1.959,3.446-1.959c2.905,0,6.757,1.824,6.757,4.325
		c0,0.203-0.067,0.473-0.135,0.743l-12.568,41.218c-0.744,2.365-3.784,3.514-6.892,3.514c-3.11,0-6.149-1.149-6.893-3.514
		L258.197,122.693z"/>
	<path style="fill:#3697BC;" d="M306.646,120.801c0-2.23,2.634-3.176,5.27-3.176c2.634,0,5.27,0.946,5.27,3.176v42.975
		c0,2.162-2.635,3.243-5.27,3.243c-2.635,0-5.27-1.081-5.27-3.243V120.801z"/>
	<path style="fill:#3697BC;" d="M359.149,117.625c2.23,0,3.175,2.433,3.175,4.662c0,2.568-1.149,4.797-3.175,4.797h-9.326v36.691
		c0,2.162-2.634,3.243-5.27,3.243c-2.634,0-5.27-1.081-5.27-3.243v-36.691h-9.325c-2.027,0-3.175-2.23-3.175-4.797
		c0-2.23,0.946-4.662,3.175-4.662C329.958,117.625,359.149,117.625,359.149,117.625z"/>
	<path style="fill:#3697BC;" d="M382.933,146.815c0-0.405-0.135-0.743-0.27-0.946l-13.988-23.177
		c-0.135-0.271-0.135-0.54-0.135-0.743c0-2.5,4.257-4.325,7.162-4.325c1.69,0,2.297,0.676,3.041,1.959l9.46,17.365l9.392-17.365
		c0.675-1.284,1.351-1.959,3.041-1.959c2.905,0,7.162,1.824,7.162,4.325c0,0.203,0,0.473-0.135,0.743l-13.92,23.177
		c-0.135,0.203-0.27,0.541-0.27,0.946v16.96c0,2.162-2.635,3.243-5.27,3.243c-2.635,0-5.272-1.081-5.272-3.243v-16.96H382.933z"/>
</g>
<g>
</g>
<g>
</g>
<g>
</g>
<g>
</g>
<g>
</g>
<g>
</g>
<g>
</g>
<g>
</g>
<g>
</g>
<g>
</g>
<g>
</g>
<g>
</g>
<g>
</g>
<g>
</g>
<g>
</g>
</svg>
