<svg id="Layer_1" enable-background="new 0 0 512 512" height="512" viewBox="0 0 512 512" width="512" xmlns="http://www.w3.org/2000/svg"><g clip-rule="evenodd" fill-rule="evenodd"><path d="m256.02 511.998c141.156 0 255.988-114.836 255.988-255.992-.001-141.161-114.832-256.006-255.988-256.006-141.204 0-256.034 114.845-256.034 256.006 0 141.157 114.83 255.992 256.034 255.992z" fill="#fff16b"/><path d="m355.215 491.994c76.916-32.452 134.774-101.453 151.709-185.122l-171.727-171.727c-2.187-2.416-5.348-3.934-8.882-3.934-6.605 0-11.983 5.378-11.983 12.002v30.467h-30.477c-5.784 0-10.625 4.12-11.74 9.592l-66.885-66.885c-8.573-9.23-21.997-12.501-34.178-7.704l-.566.217c-22.504 8.822-38.922 15.592-45.715 22.391-14.861 14.852-28.307 43.055-8.067 93.096 13.068 32.326 38.12 67.979 70.531 100.395 5.064 5.065 10.208 9.95 15.406 14.637z" fill="#ffd845"/><path d="m377.88 323.353-47.036-27.156c-1.651-.948-3.586-1.198-5.425-.703-1.887.5-3.444 1.684-4.388 3.336-6.888 11.936-17.173 19.838-29.014 22.263-12.644 2.581-24.768-.142-35.053-7.874-19.579-14.686-43.498-38.615-58.17-58.184-7.737-10.299-10.474-22.414-7.879-35.034 2.406-11.837 10.332-22.15 22.268-29.043 1.651-.953 2.831-2.5 3.302-4.364.519-1.863.283-3.798-.66-5.449l-27.174-47.027c-1.321-2.316-3.633-3.618-6.133-3.618-.897 0-1.793.17-2.689.523l-.566.217c-10.851 4.26-33.402 13.115-37.554 17.031-17.598 17.607-11.228 46.22-2.784 67.125 11.747 28.977 35.525 62.666 65.247 92.417 29.769 29.755 63.454 53.533 92.422 65.247 20.9 8.449 49.537 14.823 67.134-2.793 3.916-4.1 12.785-26.669 17.031-37.516l.236-.552c1.32-3.388.046-7.025-3.115-8.846zm25.429 17.616-.189.547c-8.822 22.485-15.616 38.922-22.41 45.72-9.435 9.45-24.297 18.333-46.753 18.333-12.832 0-28.118-2.901-46.329-10.256-32.317-13.068-67.984-38.115-100.395-70.531s-57.463-68.068-70.531-100.395c-20.239-50.041-6.794-78.244 8.067-93.096 6.794-6.798 23.212-13.568 45.715-22.391l.566-.217c14.437-5.685 30.618-.038 38.403 13.432l27.127 47.032c4.152 7.199 5.284 15.602 3.114 23.66-2.17 8.053-7.313 14.781-14.531 18.937-4.152 2.411-9.436 6.638-10.757 13.064-1.18 5.864 0 11.04 3.585 15.823 13.257 17.673 35.714 40.13 53.406 53.391 4.765 3.595 9.954 4.755 15.805 3.557 6.416-1.316 10.662-6.572 13.068-10.747 4.152-7.204 10.851-12.36 18.918-14.516 8.067-2.161 16.465-1.057 23.683 3.099l47.036 27.151c13.449 7.78 19.111 23.929 13.402 38.403zm-131.437-155.291c0-6.624 5.378-11.997 11.983-11.997h30.477v-30.467c0-6.624 5.378-12.002 11.983-12.002 6.652 0 11.983 5.378 11.983 12.002v30.467h30.477c6.652 0 12.03 5.374 12.03 11.997 0 6.628-5.378 12.002-12.03 12.002h-30.477v30.467c0 6.628-5.331 11.997-11.983 11.997-6.605 0-11.983-5.369-11.983-11.997v-30.467h-30.477c-6.605 0-11.983-5.373-11.983-12.002z" fill="#fff"/></g></svg>