<svg clip-rule="evenodd" fill-rule="evenodd" height="512" image-rendering="optimizeQuality" shape-rendering="geometricPrecision" text-rendering="geometricPrecision" viewBox="0 0 1.70666 1.70666" width="512" xmlns="http://www.w3.org/2000/svg"><g id="Layer_x0020_1"><g id="_175459720"><g><g><path id="_174623856" d="m.660929.712504c-.0666063 0-.120764-.054185-.120764-.120764 0-.0665748.054185-.120783.120764-.120783.0665748 0 .120764.0542087.120764.120783 0 .0665787-.0541575.120764-.120764.120764zm0-.200476c-.0439685 0-.079748.0357559-.079748.0797441 0 .0439685.0357598.079748.079748.079748s.0797441-.0357874.0797441-.079748c0-.0439882-.0357756-.0797441-.0797441-.0797441z" fill="#2b1330"/></g><g><path id="_175457344" d="m.861437.913035h-.401008c-.0113228 0-.0205197-.00920472-.0205197-.0205197 0-.12189.0991693-.221028.221028-.221028.121862 0 .221031.0991378.221031.221028-.00001181.0113268-.00921654.0205197-.0205315.0205197zm-.379343-.0410394h.357669c-.0102205-.0896181-.0865276-.159461-.178835-.159461-.0923071 0-.168614.0698425-.178835.159461z" fill="#2b1330"/></g></g><g><path id="_175456960" d="m.660929 1.13653c-.245118 0-.444524-.199433-.444524-.44452s.199406-.444492.444524-.444492.44452.199406.44452.444492c0 .245087-.199402.44452-.44452.44452zm0-.847996c-.22248 0-.403484.181008-.403484.403484 0 .22248.181004.403484.403484.403484.222476 0 .40348-.181004.40348-.403484 0-.222476-.181004-.403484-.40348-.403484z" fill="#2b1330"/></g><g><path id="_175458400" d="m1.45794 1.65852c-.0452756 0-.0878425-.0176181-.11987-.0496457l-.345252-.345272c-.101205.0588819-.216465.089622-.334217.0892953-.362709-.00123622-.658142-.297366-.658598-.660075-.00019291-.17685.0685354-.343102.193587-.468126.124839-.124839.290787-.193583.467323-.193583h.00079921c.36274.0004252.65887.295866.660098.658594.00040551.117815-.0304173.233012-.0892992.33422l.345272.345252c.0660906.0660906.0660906.173622 0 .239724-.0319961.0319961-.074563.0496142-.119843.0496142zm-.461925-.441248c.00531102 0 .010563.00206693.0145039.0060315l.356567.356567c.0242677.024248.0565197.0376024.0908465.0376024.0343071 0 .0665433-.0133622.0908268-.0376024.0501024-.0500827.0501024-.131571 0-.181654l-.356567-.356594c-.00670079-.00670079-.00793701-.0171654-.00298031-.0252441.0603031-.0979843.0919528-.210894.0915787-.326528-.00117717-.340201-.278906-.617295-.61911-.617689-.00024016 0-.00050394 0-.00074803 0-.165587 0-.321213.0644567-.438327.181571-.117276.11728-.181736.27322-.181543.439079.00040551.340201.277488.617933.617689.61911.115685.00056693.228543-.0312756.326528-.0915787.00333465-.00207874.00703543-.00307087.0107362-.00307087z" fill="#2b1330"/></g><g><path id="_175459120" d="m1.58355.362409c-.0678937 0-.123114-.0552323-.123114-.123118 0-.0678622.0552323-.123114.123114-.123114.0678858 0 .123098.055252.123098.123114.00002756.0678858-.0552047.123118-.123098.123118zm0-.205205c-.0452559 0-.0820748.0368031-.0820748.0820787s.0368307.0820787.0820748.0820787c.045248 0 .0820787-.0368031.0820787-.0820787s-.0368228-.0820787-.0820787-.0820787z" fill="#2b1330"/></g><g><path id="_175459528" d="m.167807 1.67555c-.079189 0-.143618-.0644055-.143618-.143614 0-.079189.0644291-.143614.143618-.143614.0792087 0 .143614.0644252.143614.143614 0 .079189-.0644291.143614-.143614.143614zm0-.246213c-.0565709 0-.102598.0460276-.102598.102579 0 .0565709.0460276.102594.102598.102594.0565669 0 .102594-.0460236.102594-.102594-.00001968-.0565394-.0460472-.102579-.102594-.102579z" fill="#2b1330"/></g></g><path d="m.660929.247516c.245118 0 .44452.199406.44452.444492 0 .245087-.199402.44452-.44452.44452s-.444524-.199433-.444524-.44452.199406-.444492.444524-.444492zm-.61987.445291c.00040551.340201.277488.617933.617689.61911.115685.00056693.228543-.0312756.326528-.0915787.00333465-.00207874.00703543-.00307087.0107362-.00307087.00531102 0 .010563.00206693.0145039.0060315l.356567.356567c.0242677.024248.0565197.0376024.0908465.0376024.0343071 0 .0665433-.0133622.0908268-.0376024.0501024-.0500827.0501024-.131571 0-.181654l-.356567-.356594c-.00670079-.00670079-.00793701-.0171654-.00298031-.0252441.0603031-.0979843.0919528-.210894.0915787-.326528-.00117717-.340201-.278906-.617295-.61911-.617689h-.00074803c-.165587 0-.321213.0644567-.438327.181571-.117276.11728-.181736.27322-.181543.439079z" fill="#4cbadc"/><path d="m1.06441.692016c0-.222476-.181004-.403484-.40348-.403484-.22248 0-.403484.181008-.403484.403484 0 .22248.181004.403484.403484.403484.222476 0 .40348-.181004.40348-.403484zm-.326992-.00688583c.0842953.031185.144551.112374.144551.207386-.00001181.0113268-.00921654.0205197-.0205315.0205197h-.401008c-.0113228 0-.0205197-.00920472-.0205197-.0205197 0-.0950079.060252-.176193.144535-.207382-.0270197-.0221693-.0442795-.0558071-.0442795-.0933937 0-.0665748.054185-.120783.120764-.120783.0665748 0 .120764.0542087.120764.120783 0 .0375866-.0172598.0712205-.0442756.0933898z" fill="#fafafb"/><path d="m.839764.871996c-.0102205-.0896181-.0865276-.159461-.178835-.159461-.0923071 0-.168614.0698425-.178835.159461h.357669z" fill="#ffb300"/><path d="m.662866.671496c.0430984-.0010315.0778071-.0364094.0778071-.0797244 0-.0439882-.0357756-.0797441-.0797441-.0797441s-.079748.0357559-.079748.0797441c0 .0433228.0347165.0786929.077815.0797244.00064567-.00000394.00129528-.00000787.00193307.00002362.00064961 0 .00129528-.00000787.00193701-.00002362z" fill="#f8b596"/><g id="_175461520" fill="#efd9dc"><path id="_175461088" d="m1.50147.239283c0 .0452756.0368307.0820787.0820748.0820787.045248 0 .0820787-.0368031.0820787-.0820787s-.0368228-.0820787-.0820787-.0820787-.0820748.0368031-.0820748.0820787z"/><path id="_175461304" d="m.270402 1.53191c-.00001968-.0565394-.0460472-.102579-.102594-.102579-.0565709 0-.102598.0460276-.102598.102579 0 .0565709.0460276.102594.102598.102594.0565669 0 .102594-.0460236.102594-.102594z"/></g></g></svg>