<?xml version="1.0" encoding="iso-8859-1"?>
<!-- Generator: Adobe Illustrator 19.0.0, SVG Export Plug-In . SVG Version: 6.00 Build 0)  -->
<svg version="1.1" id="Capa_1" xmlns="http://www.w3.org/2000/svg" xmlns:xlink="http://www.w3.org/1999/xlink" x="0px" y="0px"
	 viewBox="0 0 512 512" style="enable-background:new 0 0 512 512;" xml:space="preserve">
<circle style="fill:#F44E72;" cx="256" cy="256" r="256"/>
<path style="fill:#FFCF4B;" d="M424.532,448.699c-45.025,39.414-103.988,63.3-168.532,63.3s-123.507-23.886-168.532-63.3
	c15.067-41.535,51.785-72.673,96.507-79.809c6.374-1.014,12.925-1.546,19.592-1.546h104.866c6.677,0,13.218,0.533,19.602,1.546
	C372.757,376.016,409.475,407.164,424.532,448.699z"/>
<path style="fill:#EFAA3A;" d="M114.678,448.699c15.067-41.535,51.785-72.673,96.507-79.809c6.374-1.014,12.925-1.546,19.592-1.546
	h-27.209c-6.666,0-13.218,0.533-19.592,1.546c-44.722,7.137-81.439,38.275-96.507,79.809c6.864,6.008,14.055,11.651,21.536,16.907
	C111.087,459.78,113.029,454.106,114.678,448.699z"/>
<path style="fill:#6E7789;" d="M135.379,234.747L135.379,234.747c-2.847,0-5.156-2.308-5.156-5.156v-3.608
	c0-2.847,2.308-5.156,5.156-5.156l0,0c2.847,0,5.156,2.308,5.156,5.156v3.608C140.535,232.439,138.226,234.747,135.379,234.747z"/>
<path style="fill:#EFAA3A;" d="M328.034,368.888v3.393c0,39.723-32.313,72.037-72.026,72.037c-11.887,0-23.67-2.966-34.079-8.563
	c-6.128-3.266-11.829-7.501-16.86-12.534c-11.875-11.875-19.262-27.594-20.797-44.27c-0.208-2.354-0.3-4.559-0.3-6.671v-3.393
	c6.382-1.016,12.925-1.546,19.596-1.546h104.87C315.108,367.341,321.652,367.872,328.034,368.888z"/>
<path style="fill:#F9C1A5;" d="M308.413,320.45v51.829c0,28.955-23.462,52.418-52.406,52.418c-8.967,0-17.404-2.251-24.778-6.22
	c-4.547-2.423-8.679-5.516-12.291-9.128c-8.414-8.414-13.976-19.665-15.13-32.199c-0.139-1.604-0.219-3.232-0.219-4.87v-51.829
	h104.824V320.45z"/>
<g>
	<path style="fill:#E5AB91;" d="M308.413,335.454v26.763c-16.18,8.482-34.599,13.295-54.137,13.295
		c-1.858,0-3.716-0.046-5.563-0.139c-0.265-0.011-0.519-0.023-0.773-0.023c-9.187,0-16.711,7.524-16.711,16.803v26.324
		c-4.547-2.423-8.679-5.516-12.291-9.128c-8.414-8.414-13.976-19.665-15.13-32.199c-0.139-1.604-0.219-3.232-0.219-4.87v-36.826
		H308.413z"/>
	<circle style="fill:#E5AB91;" cx="154.384" cy="221.968" r="32.392"/>
	<circle style="fill:#E5AB91;" cx="357.616" cy="221.968" r="32.392"/>
</g>
<path style="fill:#F9C1A5;" d="M256.001,0L256.001,0c-64.456,0-116.708,52.251-116.708,116.707v130.558
	c0,64.456,52.251,116.707,116.707,116.707l0,0c64.456,0,116.707-52.251,116.707-116.707V116.707C372.708,52.251,320.457,0,256.001,0
	z"/>
<path style="fill:#E5AB91;" d="M310.638,161.122c-7.414,0-15.49-0.556-24.04-1.144c-9.807-0.675-19.949-1.373-30.598-1.373
	c-10.645,0-20.788,0.698-30.598,1.373c-8.55,0.588-16.626,1.143-24.037,1.144c-10.427,0-23.609-0.96-33.07-8.451
	c-8.982-7.112-13.348-18.876-13.348-35.966c0-26.954,10.523-52.315,29.632-71.413c6.015-6.015,12.756-11.254,20.033-15.567
	c15.508-9.2,33.279-14.063,51.387-14.063c18.109,0,35.879,4.863,51.389,14.063c30.632,18.159,49.663,51.487,49.663,86.977
	C357.052,155.844,333.589,161.122,310.638,161.122z"/>
<path style="fill:#535B70;" d="M350.783,116.704c0,31.932-15.872,38.149-40.145,38.149c-15.454,0-34.304-2.518-54.638-2.518
	c-52.266,0-94.783,16.635-94.783-35.631c0-26.122,10.627-49.821,27.794-66.978c5.611-5.611,11.922-10.533,18.798-14.608
	c14.127-8.38,30.605-13.187,48.191-13.187s34.064,4.807,48.191,13.187C332.058,51.638,350.783,82.034,350.783,116.704z"/>
<g>
	<path style="fill:#E5AB91;" d="M288.738,222.559c0,0-2.398,11.746,19.065,20.075c0.963,0.374,2.06,0.155,2.79-0.576l0,0
		c1.138-1.138,0.984-3.038-0.343-3.948c-2.915-1.998-6.932-5.945-5.537-11.975"/>
	<path style="fill:#E5AB91;" d="M230.67,222.559c0,0,2.398,11.746-19.065,20.075c-0.963,0.374-2.059,0.155-2.79-0.576l0,0
		c-1.138-1.138-0.984-3.038,0.343-3.948c2.915-1.998,6.932-5.945,5.537-11.975"/>
	<path style="fill:#E5AB91;" d="M230.67,216.415c-0.65,5.379-5.398,9.328-10.816,9.328h-28.157c-2.94,0-5.604-1.189-7.533-3.118
		c-2.208-2.214-3.457-5.396-3.039-8.856c0.65-5.379,5.398-9.328,10.816-9.328h28.157c2.94,0,5.604,1.189,7.533,3.118
		C229.84,209.774,231.088,212.955,230.67,216.415z"/>
</g>
<path style="fill:#FFFFFF;" d="M230.67,223.883c-0.65,5.379-5.398,9.328-10.816,9.328h-28.157c-2.94,0-5.604-1.189-7.533-3.118
	c-2.208-2.214-3.457-5.396-3.039-8.856c0.65-5.379,5.398-9.328,10.816-9.328h28.157c2.94,0,5.604,1.189,7.533,3.118
	C229.84,217.242,231.088,220.423,230.67,223.883z"/>
<path style="fill:#E5AB91;" d="M327.789,204.442h-28.4c-5.882,0-10.65,4.768-10.65,10.65l0,0c0,5.882,4.768,10.65,10.65,10.65h28.4
	c5.882,0,10.65-4.768,10.65-10.65l0,0C338.438,209.209,333.67,204.442,327.789,204.442z"/>
<path style="fill:#FFFFFF;" d="M327.789,211.909h-28.4c-5.882,0-10.65,4.768-10.65,10.65l0,0c0,5.882,4.768,10.65,10.65,10.65h28.4
	c5.882,0,10.65-4.768,10.65-10.65l0,0C338.438,216.677,333.67,211.909,327.789,211.909z"/>
<path style="fill:#535B70;" d="M337,183.164h-46.825c-3.315,0-6.003,2.687-6.003,6.003l0,0c0,3.315,2.687,6.003,6.003,6.003H337
	c3.315,0,6.003-2.687,6.003-6.003l0,0C343.003,185.852,340.316,183.164,337,183.164z"/>
<path style="fill:#51B0E0;" d="M220.064,219.045c0,7.822-6.343,14.166-14.166,14.166c-7.822,0-14.166-6.343-14.166-14.166
	c0-2.604,0.704-5.042,1.935-7.136h24.461C219.36,214.003,220.064,216.441,220.064,219.045z"/>
<g>
	<circle style="fill:#6EC6EA;" cx="210.913" cy="218.823" r="5.733"/>
	<circle style="fill:#6EC6EA;" cx="200.38" cy="226.137" r="3.353"/>
</g>
<path style="fill:#51B0E0;" d="M327.753,219.045c0,7.822-6.343,14.166-14.166,14.166c-7.822,0-14.166-6.343-14.166-14.166
	c0-2.604,0.704-5.042,1.935-7.136h24.461C327.049,214.003,327.753,216.441,327.753,219.045z"/>
<g>
	<circle style="fill:#6EC6EA;" cx="318.61" cy="218.823" r="5.733"/>
	<circle style="fill:#6EC6EA;" cx="308.067" cy="226.137" r="3.353"/>
</g>
<g>
	<path style="fill:#E5AB91;" d="M182.685,183.164c-3.305,0-6.141,2.586-6.2,5.89c-0.062,3.367,2.649,6.115,6.002,6.115h32.897
		c13.062,0,23.65,10.589,23.65,23.65v58.596h5.96c7.656,0,13.863-6.207,13.863-13.863v-62.329c0-9.975-8.086-18.061-18.061-18.061
		h-58.11V183.164z"/>
	<path style="fill:#E5AB91;" d="M276.021,298.763c-13.001,4.283-27.042,4.283-40.043,0c-3.474-1.133-7.443,0.224-8.988,3.476l0,0
		c-1.544,3.239,0.588,7.466,4.915,8.888c15.645,5.156,32.543,5.156,48.189,0c4.326-1.422,6.459-5.649,4.915-8.888l0,0
		C283.465,298.987,279.496,297.631,276.021,298.763z"/>
	<path style="fill:#E5AB91;" d="M261.49,321.574h-10.979c-2.799,0-5.069,2.27-5.069,5.069l0,0c0,2.799,2.27,5.069,5.069,5.069
		h10.979c2.799,0,5.069-2.27,5.069-5.069l0,0C266.559,323.843,264.289,321.574,261.49,321.574z"/>
</g>
<path style="fill:#535B70;" d="M229.51,183.164h-46.825c-3.315,0-6.003,2.687-6.003,6.003l0,0c0,3.315,2.687,6.003,6.003,6.003
	h46.825c3.315,0,6.003-2.687,6.003-6.003l0,0C235.513,185.852,232.825,183.164,229.51,183.164z"/>
<path style="fill:#E5AB91;" d="M161.22,247.265V116.707c0-60.758,46.43-110.663,105.744-116.191C263.354,0.18,259.699,0,256.001,0
	l0,0c-64.456,0-116.707,52.251-116.707,116.707v130.558c0,64.456,52.251,116.707,116.707,116.707l0,0
	c3.698,0,7.354-0.18,10.964-0.516C207.65,357.928,161.22,308.022,161.22,247.265z"/>
<path style="fill:#E8E8E8;" d="M236.724,113.972c-4.281,2.544-9.293,3.404-13.86,2.644c-18.927-3.155-16.809-30.872-7.612-41.01
	c1.47-1.629,2.57-3.702,3.362-6.022c0.001-0.004,0.001-0.004,0.001-0.004c0.043-0.127,0.085-0.256,0.127-0.383
	c0.142-0.445,0.277-0.899,0.396-1.36c0.401-1.494,0.698-3.074,0.904-4.69c0.339-2.632,0.449-5.362,0.42-8.007
	c-0.056-4.978,6.299-7.112,9.236-3.091c14.216,19.465,18.445,34.384,17.29,44.979l-0.001,0.008
	C246.093,105.255,241.954,110.869,236.724,113.972z"/>
<path style="fill:#D6D6D6;" d="M236.724,113.972c-4.281,2.544-9.293,3.404-13.86,2.644c-18.927-3.155-16.809-30.872-7.612-41.01
	c1.47-1.629,2.57-3.702,3.362-6.022C216.521,77.164,210.063,107.144,236.724,113.972z"/>
<path style="fill:#F44E72;" d="M246.986,97.026c1.329-12.176-4.459-30.069-24.349-54.012c-1.088-1.309-3.21-0.396-2.987,1.291
	c0.654,4.959,1.252,12.275,0.378,18.945c-0.06,0.452-0.125,0.901-0.199,1.346c-0.013,0.075-0.025,0.15-0.038,0.225
	c-0.078,0.459-0.164,0.913-0.258,1.363c-0.01,0.048-0.02,0.095-0.03,0.142c-0.096,0.448-0.202,0.891-0.314,1.328
	c-0.016,0.06-0.031,0.12-0.047,0.18c-0.122,0.457-0.252,0.908-0.394,1.349c-0.001,0.004-0.002,0.008-0.004,0.013v0.001
	c-0.801,2.479-1.938,4.689-3.49,6.409l0,0c1.116,2.894,1.159,6.116,0.006,8.997c-0.009,0.025-0.02,0.049-0.029,0.074
	c-0.352,0.876,0.574,1.724,1.397,1.261c1.932-1.088,4.579-2.992,6.314-5.915c1.032-1.739,3.633-1.49,4.29,0.422
	c1.358,3.949,2.616,9.491,1.908,15.347c-0.132,1.088,1.307,1.588,1.849,0.635c1.937-3.403,4.088-8.96,3.661-16.439
	c-0.129-2.261,2.651-3.446,4.149-1.747C242.106,81.993,245.988,88.148,246.986,97.026z"/>
<g>
	<circle style="fill:#F96D8C;" cx="228.373" cy="59.198" r="2.834"/>
	<circle style="fill:#F96D8C;" cx="232.647" cy="67.354" r="2.834"/>
</g>
<path style="fill:#FFCF4B;" d="M241.577,118.66h-27.576c-2.714,0-4.913-2.2-4.913-4.913l0,0c0-2.714,2.2-4.913,4.913-4.913h27.576
	c2.714,0,4.913,2.2,4.913,4.913l0,0C246.49,116.46,244.291,118.66,241.577,118.66z"/>
<circle style="fill:#FFE369;" cx="239.376" cy="114.218" r="3.166"/>
<path style="fill:#FFCF4B;" d="M241.577,128.486h-27.576c-2.714,0-4.913-2.2-4.913-4.913l0,0c0-2.714,2.2-4.913,4.913-4.913h27.576
	c2.714,0,4.913,2.2,4.913,4.913l0,0C246.49,126.286,244.291,128.486,241.577,128.486z"/>
<path style="fill:#EFAA3A;" d="M221.925,118.66c-2.714,0-4.913-2.2-4.913-4.913s2.2-4.913,4.913-4.913H214
	c-2.714,0-4.913,2.2-4.913,4.913s2.2,4.913,4.913,4.913c-2.714,0-4.913,2.2-4.913,4.913s2.2,4.913,4.913,4.913h7.925
	c-2.714,0-4.913-2.2-4.913-4.913S219.211,118.66,221.925,118.66z"/>
<circle style="fill:#FFE369;" cx="239.376" cy="124.05" r="3.166"/>
<path style="fill:#51B0E0;" d="M245.133,152.554c-12.706,0.481-24.66,1.62-35.338,2.09c0.167-2.121,0.366-4.221,0.596-6.322
	c0.512-4.618,1.17-9.226,1.975-13.814c0.021-0.094,0.042-0.199,0.063-0.293c0.084-0.491,0.167-0.993,0.272-1.484
	c0.073-0.408,0.146-0.825,0.23-1.233c0.094-0.502,0.188-1.014,0.293-1.505c0.104-0.512,0.199-1.014,0.303-1.505h28.526
	c0.418,1.996,0.805,4.012,1.16,6.019C243.994,138.939,244.642,145.24,245.133,152.554z"/>
<path style="fill:#6EC6EA;" d="M238.738,143.066v9.791c-2.79,0.146-5.548,0.313-8.244,0.491v-10.282
	c0-2.278,1.849-4.117,4.127-4.117c1.128,0,2.163,0.46,2.905,1.202C238.279,140.903,238.738,141.927,238.738,143.066z"/>
<path style="fill:#42A3CC;" d="M243.21,134.509h-12.434c-4.535,0-8.38,3.344-9.007,7.837c-0.418,3.02-0.773,7.064-1.055,11.661
	c-3.762,0.251-7.408,0.481-10.919,0.637c0.178-2.111,0.366-4.211,0.596-6.322c0.512-4.618,1.17-9.226,1.985-13.814h-0.01
	c0.021-0.094,0.042-0.199,0.063-0.293c0.01-0.073,0.021-0.136,0.031-0.199c0.052-0.439,0.146-0.867,0.24-1.285
	c0.073-0.408,0.146-0.825,0.23-1.233c0.01-0.063,0.021-0.104,0.021-0.167c0.094-0.449,0.178-0.888,0.272-1.337
	c0.105-0.512,0.199-1.014,0.303-1.505h28.526C242.469,130.486,242.855,132.502,243.21,134.509z"/>
<path style="fill:#4ACC9A;" d="M303.585,76.903v77.803c-10.073-0.387-21.305-1.442-33.28-2.006V76.903l18.254-2.288L303.585,76.903z
	"/>
<path style="fill:#3CBC9A;" d="M280.273,76.903v76.372c-3.25-0.219-6.583-0.418-9.968-0.575V76.903
	C270.305,76.903,280.273,76.903,280.273,76.903z"/>
<path style="fill:#60D89E;" d="M303.585,76.903v77.803c-3.208-0.125-6.541-0.313-9.968-0.533v-77.27H303.585z"/>
<polygon style="fill:#E8E8E8;" points="286.944,44.608 270.307,76.903 303.581,76.903 "/>
<polygon style="fill:#D6D6D6;" points="270.307,76.903 286.944,44.608 282.866,76.903 "/>
<path style="fill:#FFCF4B;" d="M286.944,39.714L286.944,39.714c-1.577,0-2.855,1.278-2.855,2.855v7.748h5.709v-7.748
	C289.798,40.992,288.52,39.714,286.944,39.714z"/>
<path style="fill:#EFAA3A;" d="M288.25,40.045c-0.393-0.204-0.833-0.33-1.306-0.33c-1.577,0-2.855,1.278-2.855,2.855v7.748h2.612
	v-7.748C286.702,41.466,287.334,40.519,288.25,40.045z"/>
<g>
</g>
<g>
</g>
<g>
</g>
<g>
</g>
<g>
</g>
<g>
</g>
<g>
</g>
<g>
</g>
<g>
</g>
<g>
</g>
<g>
</g>
<g>
</g>
<g>
</g>
<g>
</g>
<g>
</g>
</svg>
