<svg id="Capa_1" enable-background="new 0 0 512 512" height="512" viewBox="0 0 512 512" width="512" xmlns="http://www.w3.org/2000/svg"><path d="m437.019 74.98c-48.352-48.351-112.639-74.98-181.019-74.98s-132.668 26.629-181.02 74.98c-48.351 48.353-74.98 112.64-74.98 181.02s26.629 132.667 74.981 181.02c48.351 48.351 112.639 74.98 181.019 74.98s132.667-26.629 181.02-74.98c48.351-48.353 74.98-112.64 74.98-181.02s-26.629-132.667-74.981-181.02zm-347.019 181.02c0-91.532 74.467-166 166-166 29.451 0 57.129 7.719 81.135 21.226l-225.909 225.908c-13.507-24.005-21.226-51.683-21.226-81.134zm310.774-81.135c13.507 24.006 21.226 51.684 21.226 81.135 0 91.532-74.467 166-166 166-29.451 0-57.13-7.719-81.135-21.226z" fill="#ff674f"/><path d="m337.135 111.226-81.135 81.135v127.278l144.774-144.774c13.507 24.006 21.226 51.684 21.226 81.135 0 91.532-74.467 166-166 166v90c68.38 0 132.667-26.629 181.02-74.98 48.351-48.353 74.98-112.64 74.98-181.02s-26.629-132.667-74.981-181.02c-48.352-48.351-112.639-74.98-181.019-74.98v90c29.451 0 57.129 7.719 81.135 21.226z" fill="#f2472c"/></svg>