<svg id="Capa_1" enable-background="new 0 0 510 510" height="512" viewBox="0 0 510 510" width="512" xmlns="http://www.w3.org/2000/svg" xmlns:xlink="http://www.w3.org/1999/xlink"><linearGradient id="lg1"><stop offset="0" stop-color="#8b788a"/><stop offset="1" stop-color="#6e566e"/></linearGradient><linearGradient id="SVGID_1_" gradientTransform="matrix(0 1 1 0 542 320)" gradientUnits="userSpaceOnUse" x1="-363.389" x2="116.022" xlink:href="#lg1" y1="-515.226" y2="-96.39"/><linearGradient id="SVGID_2_" gradientTransform="matrix(0 1 1 0 542 320)" gradientUnits="userSpaceOnUse" x1="86.173" x2="-596.994" xlink:href="#lg1" y1="-155.563" y2="-632.356"/><linearGradient id="SVGID_3_" gradientTransform="matrix(0 1 1 0 542 320)" gradientUnits="userSpaceOnUse" x1="-322.42" x2="81.805" y1="-479.433" y2="-126.283"><stop offset="0" stop-color="#18cffc"/><stop offset=".342" stop-color="#1bccfc"/><stop offset=".5745" stop-color="#23c3fb"/><stop offset=".7745" stop-color="#31b4fa"/><stop offset=".9551" stop-color="#449ff8"/><stop offset="1" stop-color="#4a98f7"/></linearGradient><linearGradient id="lg2"><stop offset="0" stop-color="#92f37f"/><stop offset="1" stop-color="#4ab272"/></linearGradient><linearGradient id="SVGID_4_" gradientUnits="userSpaceOnUse" x1="416.376" x2="416.376" xlink:href="#lg2" y1="135.504" y2="190.586"/><linearGradient id="SVGID_5_" gradientUnits="userSpaceOnUse" x1="343.116" x2="343.116" xlink:href="#lg2" y1="135.504" y2="190.586"/><linearGradient id="SVGID_6_" gradientUnits="userSpaceOnUse" x1="289.687" x2="289.687" xlink:href="#lg2" y1="135.504" y2="190.586"/><linearGradient id="SVGID_7_" gradientTransform="matrix(-1 0 0 1 87.372 487.428)" gradientUnits="userSpaceOnUse" x1="-150.778" x2="-150.778" xlink:href="#lg1" y1="-412.302" y2="-447.025"/><linearGradient id="SVGID_8_" gradientTransform="matrix(-1 0 0 1 87.372 487.428)" gradientUnits="userSpaceOnUse" x1="-223.04" x2="-223.04" xlink:href="#lg1" y1="-412.117" y2="-447.266"/><linearGradient id="SVGID_9_" gradientTransform="matrix(1 0 0 -1 -206.164 -3657.239)" gradientUnits="userSpaceOnUse" x1="449.234" x2="469.969" xlink:href="#lg1" y1="-4057.357" y2="-4011.028"/><linearGradient id="SVGID_10_" gradientTransform="matrix(-1 0 0 1 303.836 711.015)" gradientUnits="userSpaceOnUse" x1="40.703" x2="53.288" xlink:href="#lg1" y1="-364.765" y2="-322.656"/><linearGradient id="lg3"><stop offset="0" stop-color="#3f3cee" stop-opacity="0"/><stop offset="1" stop-color="#2f43bc"/></linearGradient><linearGradient id="SVGID_11_" gradientUnits="userSpaceOnUse" x1="245.538" x2="55.481" xlink:href="#lg3" y1="290.027" y2="99.969"/><linearGradient id="SVGID_12_" gradientUnits="userSpaceOnUse" x1="399.501" x2="324.433" xlink:href="#lg3" y1="283.818" y2="38.493"/><linearGradient id="SVGID_13_" gradientTransform="matrix(-1 0 0 1 -198.156 0)" gradientUnits="userSpaceOnUse" x1="-559.829" x2="-559.829" y1="173.435" y2="215.594"><stop offset="0" stop-color="#ff7044"/><stop offset="1" stop-color="#f92814"/></linearGradient><linearGradient id="SVGID_14_" gradientUnits="userSpaceOnUse" x1="366.221" x2="332.022" y1="197.722" y2="125.524"><stop offset="0" stop-color="#ff7044" stop-opacity="0"/><stop offset="1" stop-color="#ffa425"/></linearGradient><linearGradient id="lg4"><stop offset="0" stop-color="#f9f7fc"/><stop offset="1" stop-color="#f0ddfc"/></linearGradient><linearGradient id="SVGID_15_" gradientTransform="matrix(.707 .707 -.707 .707 -1237.972 -886.964)" gradientUnits="userSpaceOnUse" x1="1694.363" x2="1707.799" xlink:href="#lg4" y1="-233.434" y2="-219.999"/><linearGradient id="lg5"><stop offset="0" stop-color="#e9edf5" stop-opacity="0"/><stop offset="1" stop-color="#fff"/></linearGradient><linearGradient id="SVGID_16_" gradientTransform="matrix(.707 .707 -.707 .707 -1237.972 -886.964)" gradientUnits="userSpaceOnUse" x1="1701.634" x2="1692.246" xlink:href="#lg5" y1="-226.164" y2="-235.552"/><linearGradient id="lg6"><stop offset="0" stop-color="#f0ddfc" stop-opacity="0"/><stop offset=".2889" stop-color="#c8b7e0" stop-opacity=".289"/><stop offset=".5915" stop-color="#a595c8" stop-opacity=".592"/><stop offset=".8395" stop-color="#8f81b8" stop-opacity=".84"/><stop offset="1" stop-color="#8779b3"/></linearGradient><linearGradient id="SVGID_17_" gradientTransform="matrix(.707 .707 -.707 .707 -1237.972 -886.964)" gradientUnits="userSpaceOnUse" x1="1698.605" x2="1712.864" xlink:href="#lg6" y1="-225.578" y2="-252.097"/><linearGradient id="SVGID_18_" gradientTransform="matrix(.707 .707 -.707 .707 -1237.972 -886.964)" gradientUnits="userSpaceOnUse" x1="1695.198" x2="1700.716" xlink:href="#lg6" y1="-233.927" y2="-226.006"/><linearGradient id="SVGID_19_" gradientTransform="matrix(.707 .707 -.707 .707 -1237.972 -886.964)" gradientUnits="userSpaceOnUse" x1="1712.538" x2="1725.973" xlink:href="#lg4" y1="-247.65" y2="-234.214"/><linearGradient id="SVGID_20_" gradientTransform="matrix(.707 .707 -.707 .707 -1237.972 -886.964)" gradientUnits="userSpaceOnUse" x1="1719.809" x2="1710.421" xlink:href="#lg5" y1="-240.379" y2="-249.767"/><linearGradient id="SVGID_21_" gradientTransform="matrix(.707 .707 -.707 .707 -1237.972 -886.964)" gradientUnits="userSpaceOnUse" x1="1716.78" x2="1731.039" xlink:href="#lg6" y1="-239.793" y2="-266.312"/><linearGradient id="SVGID_22_" gradientTransform="matrix(.707 .707 -.707 .707 -1237.972 -886.964)" gradientUnits="userSpaceOnUse" x1="1713.372" x2="1718.89" xlink:href="#lg6" y1="-248.142" y2="-240.221"/><linearGradient id="SVGID_23_" gradientTransform="matrix(-.707 -.707 -.707 .707 -2574.2 -2223.193)" gradientUnits="userSpaceOnUse" x1="-3734.911" x2="-3721.476" xlink:href="#lg4" y1="-233.434" y2="-219.999"/><linearGradient id="SVGID_24_" gradientTransform="matrix(-.707 -.707 -.707 .707 -2574.2 -2223.193)" gradientUnits="userSpaceOnUse" x1="-3727.641" x2="-3737.029" xlink:href="#lg5" y1="-226.164" y2="-235.552"/><linearGradient id="SVGID_25_" gradientTransform="matrix(-.707 -.707 -.707 .707 -2574.2 -2223.193)" gradientUnits="userSpaceOnUse" x1="-3730.67" x2="-3716.411" xlink:href="#lg6" y1="-225.578" y2="-252.097"/><linearGradient id="SVGID_26_" gradientTransform="matrix(-.707 -.707 -.707 .707 -2574.2 -2223.193)" gradientUnits="userSpaceOnUse" x1="-3734.077" x2="-3728.559" xlink:href="#lg6" y1="-233.927" y2="-226.006"/><linearGradient id="SVGID_27_" gradientTransform="matrix(-.707 -.707 -.707 .707 -2574.2 -2223.193)" gradientUnits="userSpaceOnUse" x1="-3716.737" x2="-3703.301" xlink:href="#lg4" y1="-247.65" y2="-234.214"/><linearGradient id="SVGID_28_" gradientTransform="matrix(-.707 -.707 -.707 .707 -2574.2 -2223.193)" gradientUnits="userSpaceOnUse" x1="-3709.466" x2="-3718.854" xlink:href="#lg5" y1="-240.379" y2="-249.767"/><linearGradient id="SVGID_29_" gradientTransform="matrix(-.707 -.707 -.707 .707 -2574.2 -2223.193)" gradientUnits="userSpaceOnUse" x1="-3712.495" x2="-3698.236" xlink:href="#lg6" y1="-239.793" y2="-266.312"/><linearGradient id="SVGID_30_" gradientTransform="matrix(-.707 -.707 -.707 .707 -2574.2 -2223.193)" gradientUnits="userSpaceOnUse" x1="-3715.902" x2="-3710.385" xlink:href="#lg6" y1="-248.142" y2="-240.221"/><linearGradient id="lg7"><stop offset="0" stop-color="#ffda45"/><stop offset=".3043" stop-color="#ffce3e"/><stop offset=".8558" stop-color="#ffae2b"/><stop offset="1" stop-color="#ffa425"/></linearGradient><linearGradient id="SVGID_31_" gradientTransform="matrix(.707 .707 -.707 .707 -1237.972 -886.964)" gradientUnits="userSpaceOnUse" x1="1748.451" x2="1758.245" xlink:href="#lg7" y1="-120.52" y2="-107.279"/><linearGradient id="lg8"><stop offset="0" stop-color="#ffda45" stop-opacity="0"/><stop offset="1" stop-color="#b53759"/></linearGradient><linearGradient id="SVGID_32_" gradientTransform="matrix(.707 .707 -.707 .707 -1237.972 -886.964)" gradientUnits="userSpaceOnUse" x1="1749.13" x2="1748.761" xlink:href="#lg8" y1="-111.907" y2="-146.467"/><linearGradient id="SVGID_33_" gradientTransform="matrix(-.707 -.707 -.707 .707 -2465.547 -2114.54)" gradientUnits="userSpaceOnUse" x1="-3527.163" x2="-3517.369" xlink:href="#lg7" y1="-120.52" y2="-107.279"/><linearGradient id="SVGID_34_" gradientTransform="matrix(-.707 -.707 -.707 .707 -2465.547 -2114.54)" gradientUnits="userSpaceOnUse" x1="-3526.484" x2="-3526.854" xlink:href="#lg8" y1="-111.907" y2="-146.467"/><linearGradient id="SVGID_35_" gradientTransform="matrix(.707 .707 -.707 .707 -1237.972 -886.964)" gradientUnits="userSpaceOnUse" x1="1715.253" x2="1727.255" xlink:href="#lg7" y1="-238.471" y2="-190.723"/><linearGradient id="SVGID_36_" gradientTransform="matrix(.707 .707 -.707 .707 -1237.972 -886.964)" gradientUnits="userSpaceOnUse" x1="1720.79" x2="1702.776" xlink:href="#lg8" y1="-205.021" y2="-296.516"/><linearGradient id="SVGID_37_" gradientTransform="matrix(.707 .707 -.707 .707 -1237.972 -886.964)" gradientUnits="userSpaceOnUse" x1="1702.191" x2="1742.21" xlink:href="#lg6" y1="-205.408" y2="-200.896"/><linearGradient id="SVGID_38_" gradientTransform="matrix(.707 .707 -.707 .707 -1237.972 -886.964)" gradientUnits="userSpaceOnUse" x1="1717.697" x2="1724.059" xlink:href="#lg8" y1="-209.729" y2="-188.524"/><linearGradient id="SVGID_39_" gradientTransform="matrix(-.707 -.707 -.707 .707 -2574.2 -2223.193)" gradientUnits="userSpaceOnUse" x1="-3714.022" x2="-3702.02" xlink:href="#lg7" y1="-238.471" y2="-190.723"/><linearGradient id="SVGID_40_" gradientTransform="matrix(-.707 -.707 -.707 .707 -2574.2 -2223.193)" gradientUnits="userSpaceOnUse" x1="-3709.667" x2="-3727.68" xlink:href="#lg8" y1="-211.024" y2="-302.52"/><linearGradient id="SVGID_41_" gradientTransform="matrix(-.707 -.707 -.707 .707 -2574.2 -2223.193)" gradientUnits="userSpaceOnUse" x1="-3730.838" x2="-3690.819" xlink:href="#lg8" y1="-205.831" y2="-201.32"/><linearGradient id="SVGID_42_" gradientTransform="matrix(-.707 -.707 -.707 .707 -2574.2 -2223.193)" gradientUnits="userSpaceOnUse" x1="-3711.578" x2="-3705.216" xlink:href="#lg8" y1="-209.729" y2="-188.524"/><linearGradient id="lg9"><stop offset="0" stop-color="#e5f3ff"/><stop offset="1" stop-color="#b3ccff"/></linearGradient><linearGradient id="SVGID_43_" gradientTransform="matrix(.707 -.707 .707 .707 1868.365 -1549.384)" gradientUnits="userSpaceOnUse" x1="-2448.195" x2="-2448.195" xlink:href="#lg9" y1="31.919" y2="62.139"/><linearGradient id="SVGID_44_" gradientTransform="matrix(.707 -.707 .707 .707 1868.365 -1549.384)" gradientUnits="userSpaceOnUse" x1="-2447.59" x2="-2449.893" y1="52.254" y2="11.557"><stop offset="0" stop-color="#e5f3ff" stop-opacity="0"/><stop offset="1" stop-color="#fff"/></linearGradient><linearGradient id="SVGID_45_" gradientTransform="matrix(.707 .707 -.707 .707 -1237.972 -886.964)" gradientUnits="userSpaceOnUse" x1="1788.133" x2="1588.043" y1="-196.085" y2="-463.088"><stop offset="0" stop-color="#b3ccff" stop-opacity="0"/><stop offset="1" stop-color="#9fb0cb"/></linearGradient><linearGradient id="SVGID_46_" gradientTransform="matrix(.707 .707 -.707 .707 -1237.972 -886.964)" gradientUnits="userSpaceOnUse" x1="1756.016" x2="1789.852" xlink:href="#lg1" y1="-299.842" y2="-292.323"/><linearGradient id="SVGID_47_" gradientUnits="userSpaceOnUse" x1="225.215" x2="220.287" y1="157.31" y2="140.239"><stop offset="0" stop-color="#8b788a" stop-opacity="0"/><stop offset="1" stop-color="#9e8c92"/></linearGradient><linearGradient id="SVGID_48_" gradientTransform="matrix(.707 .707 -.707 .707 -1237.972 -886.964)" gradientUnits="userSpaceOnUse" x1="1778.491" x2="1765.48" y1="-296.053" y2="-325.604"><stop offset="0" stop-color="#555a66" stop-opacity="0"/><stop offset="1" stop-color="#555a66"/></linearGradient><linearGradient id="SVGID_49_" gradientTransform="matrix(.707 -.707 .707 .707 1868.365 -1549.384)" gradientUnits="userSpaceOnUse" x1="-2531.599" x2="-2531.599" xlink:href="#lg9" y1="40.877" y2="44.461"/><linearGradient id="SVGID_50_" gradientUnits="userSpaceOnUse" x1="380.736" x2="270.069" xlink:href="#lg3" y1="340.635" y2="233.837"/><linearGradient id="lg10"><stop offset="0" stop-color="#ffdaaa"/><stop offset=".5752" stop-color="#fdc592"/><stop offset="1" stop-color="#fcb37e"/></linearGradient><linearGradient id="SVGID_51_" gradientUnits="userSpaceOnUse" x1="304.672" x2="336.79" xlink:href="#lg10" y1="310.575" y2="377.564"/><linearGradient id="SVGID_52_" gradientUnits="userSpaceOnUse" x1="319.497" x2="421.747" xlink:href="#lg10" y1="266.204" y2="432.95"/><linearGradient id="SVGID_53_" gradientUnits="userSpaceOnUse" x1="403.136" x2="353.162" y1="359.533" y2="250.498"><stop offset="0" stop-color="#fcb37e" stop-opacity="0"/><stop offset="1" stop-color="#ff7044"/></linearGradient><linearGradient id="SVGID_54_" gradientUnits="userSpaceOnUse" x1="381.007" x2="399.925" y1="414.433" y2="488.074"><stop offset="0" stop-color="#9c62ce"/><stop offset="1" stop-color="#843ac2"/></linearGradient><linearGradient id="SVGID_55_" gradientUnits="userSpaceOnUse" x1="394.349" x2="360.022" y1="452.754" y2="396.72"><stop offset="0" stop-color="#9c62ce" stop-opacity="0"/><stop offset="1" stop-color="#ff75c9"/></linearGradient><linearGradient id="SVGID_56_" gradientUnits="userSpaceOnUse" x1="374.285" x2="270.293" y1="340.409" y2="299.014"><stop offset="0" stop-color="#ffdaaa" stop-opacity="0"/><stop offset="1" stop-color="#fff"/></linearGradient><path d="m477.043 40.429h-444.086c-18.202 0-32.957 14.755-32.957 32.957v288.918c0 18.202 14.755 32.957 32.957 32.957h444.085c18.202 0 32.957-14.755 32.957-32.957v-288.918c.001-18.202-14.754-32.957-32.956-32.957z" fill="url(#SVGID_1_)"/><path d="m482.997 352.423v-269.156c0-5.574-4.518-10.092-10.092-10.092h-435.81c-5.574 0-10.092 4.518-10.092 10.092v269.156c0 5.574 4.518 10.092 10.092 10.092h435.81c5.574 0 10.092-4.518 10.092-10.092z" fill="url(#SVGID_2_)"/><path d="m475.174 343.882v-252.074c0-4.713-3.821-8.534-8.534-8.534h-423.279c-4.713 0-8.534 3.821-8.534 8.534v252.075c0 4.713 3.821 8.534 8.534 8.534h423.279c4.713-.001 8.534-3.822 8.534-8.535z" fill="url(#SVGID_3_)"/><path d="m387.5 125.986h57.752c2.263 0 4.098 1.835 4.098 4.098v11.664c0 2.263-1.835 4.098-4.098 4.098h-57.752c-2.263 0-4.098-1.835-4.098-4.098v-11.664c0-2.263 1.835-4.098 4.098-4.098z" fill="url(#SVGID_4_)"/><path d="m323.178 125.986h39.877c2.263 0 4.098 1.835 4.098 4.098v11.664c0 2.263-1.835 4.098-4.098 4.098h-39.877c-2.263 0-4.098-1.835-4.098-4.098v-11.664c-.001-2.263 1.834-4.098 4.098-4.098z" fill="url(#SVGID_5_)"/><path d="m279.352 125.986h20.669c2.263 0 4.098 1.835 4.098 4.098v11.664c0 2.263-1.835 4.098-4.098 4.098h-20.669c-2.263 0-4.098-1.835-4.098-4.098v-11.664c0-2.263 1.835-4.098 4.098-4.098z" fill="url(#SVGID_6_)"/><path d="m276.83 50.308h-77.361c-5.383 0-9.747 4.364-9.747 9.747 0 5.383 4.364 9.747 9.747 9.747h77.361c5.383 0 9.747-4.364 9.747-9.747 0-5.384-4.364-9.747-9.747-9.747z" fill="url(#SVGID_7_)"/><circle cx="310.412" cy="60.054" fill="url(#SVGID_8_)" r="9.866"/><path d="m263.803 356.006h-17.606c-9.522 0-17.241 7.719-17.241 17.241v.43c0 9.522 7.719 17.241 17.241 17.241h17.605c9.522 0 17.241-7.719 17.241-17.241v-.43c0-9.522-7.719-17.241-17.24-17.241z" fill="url(#SVGID_9_)"/><path d="m246.993 388.586h16.014c8.353 0 15.124-6.771 15.124-15.124 0-8.353-6.771-15.124-15.124-15.124h-16.014c-8.353 0-15.124 6.771-15.124 15.124 0 8.353 6.771 15.124 15.124 15.124z" fill="url(#SVGID_10_)"/><path d="m475.174 343.882v-2.4l-218.987-219.793c-8.484-8.484-29.576-1.468-69.729 36.035l-24.108-2.971c-.49-1.002-6.065-6.869-6.937-7.741-4.051-4.051-10.619-4.051-14.67 0-.998.998-1.739 2.152-2.242 3.381-.31-.423-5.119-5.308-5.991-6.18-4.051-4.051-10.619-4.051-14.67 0-1.355 1.355-2.246 2.994-2.695 4.724l-9.075-1.118c-2.164-.267-4.647.723-6.524 2.6l-15.533 15.533c-1.64 1.639-1.632 4.001.016 4.711l46.819 45.596c-13.657 15.883-26.137 31.593-35.714 45.128l-23.271-3.158c-.935-.127-2.015.298-2.83 1.113l-7.249 7.249c-1.4 1.4-1.525 3.407-.263 4.218l17.623 16.646c-3.05 6.581-3.92 11.246-1.944 13.222l51.741 51.741h337.698c4.714-.002 8.535-3.823 8.535-8.536z" fill="url(#SVGID_11_)"/><path d="m446.254 165.038c-2.953-4.076-7.74-6.738-13.158-6.738h-142.846c-8.977 0-16.255 7.277-16.255 16.255v33.832c0 5.419 2.662 10.204 6.738 13.158l130.871 130.871h55.035c4.713 0 8.534-3.821 8.534-8.534v-149.924z" fill="url(#SVGID_12_)"/><path d="m290.25 158.3h142.846c8.977 0 16.255 7.278 16.255 16.255v33.832c0 .362-.012.725-.035 1.09-.55 8.618-8.033 15.164-16.668 15.164h-142.398c-8.977 0-16.254-7.277-16.254-16.255v-33.832c-.001-8.976 7.277-16.254 16.254-16.254z" fill="url(#SVGID_13_)"/><path d="m432.648 224.641c8.635 0 16.118-6.547 16.668-15.164.023-.365.035-.728.035-1.09v-33.832c0-2.519-.59-4.895-1.613-7.023-2.395-1.389-5.168-2.198-8.136-2.198h-142.846c-8.977 0-16.255 7.277-16.255 16.255v33.832c0 2.519.59 4.895 1.612 7.023 2.395 1.389 5.168 2.198 8.136 2.198h142.399z" fill="url(#SVGID_14_)"/><g fill="#fcb37e"><path d="m294.699 210.212v-37.779c0-.91.395-1.613 1.188-2.109.792-.495 1.742-.743 2.851-.743h12.177c7.92 0 11.88 3.525 11.88 10.574 0 4.752-1.684 7.861-5.049 9.326 2.02.753 3.544 1.832 4.574 3.238 1.029 1.406 1.544 3.495 1.544 6.267v1.247c0 4.436-1.079 7.673-3.237 9.712-2.159 2.04-5.059 3.059-8.702 3.059h-13.187c-1.228 0-2.208-.277-2.94-.832-.734-.554-1.099-1.207-1.099-1.96zm9.207-24.295h6.237c1.069 0 1.901-.406 2.495-1.218.594-.811.891-1.772.891-2.881 0-1.108-.297-2.079-.891-2.911-.594-.831-1.426-1.248-2.495-1.248h-6.237zm0 19.008h5.94c3.168 0 4.752-1.821 4.752-5.465v-.951c0-3.643-1.584-5.465-4.752-5.465h-5.94z"/><path d="m328.201 199.342v-15.742c0-4.831 1.326-8.376 3.98-10.633 2.653-2.257 6.178-3.386 10.573-3.386 4.435 0 7.979 1.129 10.633 3.386 2.653 2.257 3.98 5.801 3.98 10.633v15.741c0 4.832-1.327 8.375-3.98 10.633-2.654 2.257-6.198 3.386-10.633 3.386-4.396 0-7.921-1.129-10.573-3.386-2.654-2.257-3.98-5.801-3.98-10.632zm9.266 0c0 3.96 1.762 5.94 5.287 5.94 3.564 0 5.346-1.98 5.346-5.94v-15.742c0-3.96-1.782-5.94-5.346-5.94-3.525 0-5.287 1.981-5.287 5.94z"/><path d="m362.831 199.342v-15.742c0-4.831 1.326-8.376 3.98-10.633 2.652-2.257 6.178-3.386 10.573-3.386 4.434 0 7.979 1.129 10.633 3.386 2.652 2.257 3.98 5.801 3.98 10.633v15.741c0 4.832-1.327 8.375-3.98 10.633-2.654 2.257-6.198 3.386-10.633 3.386-4.396 0-7.921-1.129-10.573-3.386-2.654-2.257-3.98-5.801-3.98-10.632zm9.267 0c0 3.96 1.762 5.94 5.287 5.94 3.564 0 5.346-1.98 5.346-5.94v-15.742c0-3.96-1.782-5.94-5.346-5.94-3.525 0-5.287 1.981-5.287 5.94z"/><path d="m397.936 210.152v-37.779c0-.91.455-1.604 1.366-2.079s1.999-.713 3.267-.713c1.267 0 2.356.237 3.267.713.91.475 1.366 1.169 1.366 2.079v14.257l11.108-15.742c.594-.87 1.405-1.307 2.436-1.307 1.227 0 2.445.505 3.653 1.515s1.812 2.089 1.812 3.238c0 .634-.199 1.228-.594 1.782l-9.742 12.237 12.296 18.83c.317.515.475 1.03.475 1.544 0 1.149-.594 2.208-1.782 3.178-1.188.971-2.456 1.455-3.802 1.455-1.426 0-2.495-.573-3.208-1.723l-10.158-15.444-2.495 3.208v10.751c0 .912-.456 1.614-1.366 2.109-.911.496-2 .743-3.267.743-1.268 0-2.357-.247-3.267-.743-.909-.494-1.365-1.197-1.365-2.109z"/></g><circle cx="125.174" cy="151.548" fill="url(#SVGID_15_)" r="10.373"/><path d="m131.296 157.669c-3.381 3.381-8.863 3.381-12.244 0s-3.381-8.863 0-12.243c3.381-3.381 8.863-3.381 12.244 0s3.381 8.862 0 12.243z" fill="url(#SVGID_16_)"/><path d="m135.017 148.267c-.493 1.482-1.328 2.875-2.508 4.055-4.051 4.051-10.619 4.051-14.67 0-1.18-1.18-2.015-2.573-2.508-4.055-1.199 3.608-.364 7.744 2.508 10.616 4.051 4.051 10.619 4.051 14.67 0 2.872-2.872 3.707-7.008 2.508-10.616z" fill="url(#SVGID_17_)"/><circle cx="125.174" cy="151.548" fill="url(#SVGID_18_)" r="10.373"/><path d="m155.412 161.682c-4.051 4.051-10.619 4.051-14.67 0s-4.051-10.619 0-14.67 10.619-4.051 14.67 0 4.051 10.619 0 14.67z" fill="url(#SVGID_19_)"/><circle cx="148.077" cy="154.347" fill="url(#SVGID_20_)" r="8.657"/><path d="m157.92 151.067c-.493 1.482-1.328 2.875-2.508 4.055-4.051 4.051-10.619 4.051-14.67 0-1.18-1.18-2.015-2.573-2.508-4.055-1.199 3.608-.364 7.744 2.508 10.615 4.051 4.051 10.619 4.051 14.67 0 2.872-2.871 3.707-7.007 2.508-10.615z" fill="url(#SVGID_21_)"/><path d="m155.412 161.682c-4.051 4.051-10.619 4.051-14.67 0s-4.051-10.619 0-14.67 10.619-4.051 14.67 0 4.051 10.619 0 14.67z" fill="url(#SVGID_22_)"/><circle cx="226.328" cy="252.701" fill="url(#SVGID_23_)" r="10.373"/><path d="m220.206 246.579c-3.381 3.381-3.381 8.863 0 12.244s8.863 3.381 12.244 0 3.381-8.863 0-12.244-8.863-3.38-12.244 0z" fill="url(#SVGID_24_)"/><path d="m229.608 242.859c-1.482.493-2.875 1.328-4.055 2.508-4.051 4.051-4.051 10.619 0 14.67 1.18 1.18 2.573 2.015 4.055 2.508-3.608 1.199-7.744.364-10.615-2.508-4.051-4.051-4.051-10.619 0-14.67 2.871-2.872 7.007-3.708 10.615-2.508z" fill="url(#SVGID_25_)"/><circle cx="226.328" cy="252.701" fill="url(#SVGID_26_)" r="10.373"/><circle cx="223.528" cy="229.798" fill="url(#SVGID_27_)" r="10.373"/><circle cx="223.528" cy="229.798" fill="url(#SVGID_28_)" r="8.658"/><path d="m226.809 219.956c-1.482.493-2.875 1.328-4.055 2.508-4.051 4.051-4.051 10.619 0 14.67 1.18 1.18 2.573 2.015 4.055 2.508-3.608 1.199-7.744.364-10.615-2.508-4.051-4.051-4.051-10.619 0-14.67 2.871-2.872 7.007-3.708 10.615-2.508z" fill="url(#SVGID_29_)"/><circle cx="223.528" cy="229.798" fill="url(#SVGID_30_)" r="10.373"/><path d="m61.521 270.807 22.235 14.286 22.234-22.234-34.127-4.632c-.935-.127-2.015.298-2.83 1.113l-7.249 7.249c-1.4 1.4-1.525 3.407-.263 4.218z" fill="url(#SVGID_31_)"/><path d="m63.952 264.421-2.168 2.168c-1.4 1.4-1.525 3.407-.263 4.218l22.235 14.286 17.153-17.153-34.127-4.632c-.935-.127-2.015.298-2.83 1.113z" fill="url(#SVGID_32_)"/><path d="m107.068 316.354-14.286-22.234 22.234-22.234 4.632 34.127c.127.935-.298 2.015-1.113 2.83l-7.249 7.249c-1.4 1.399-3.407 1.524-4.218.262z" fill="url(#SVGID_33_)"/><path d="m113.455 313.923-2.168 2.168c-1.4 1.4-3.407 1.525-4.218.263l-14.287-22.234 17.153-17.153 4.632 34.127c.127.934-.298 2.014-1.112 2.829z" fill="url(#SVGID_34_)"/><path d="m84.029 170.662 70.755 30.493 42.141-42.141-90.855-11.196c-2.164-.267-4.647.723-6.524 2.6l-15.533 15.533c-1.64 1.639-1.632 4.001.016 4.711z" fill="url(#SVGID_35_)"/><path d="m89.534 160.429-5.521 5.521c-1.64 1.639-1.632 4.001.016 4.711l70.755 30.493 32.13-32.13-90.855-11.196c-2.165-.265-4.648.724-6.525 2.601z" fill="url(#SVGID_36_)"/><path d="m129.97 162.008-33.912-4.179c-2.164-.267-4.647.723-6.524 2.6l-5.521 5.521c-1.64 1.639-1.632 4.001.016 4.711l26.058 11.23z" fill="url(#SVGID_37_)"/><path d="m84.029 170.662 70.755 30.493 14.492-14.491-78.442-27.534-6.821 6.821c-1.64 1.639-1.632 4.001.016 4.711z" fill="url(#SVGID_38_)"/><path d="m207.214 293.847-30.493-70.755 42.141-42.141 11.196 90.855c.267 2.164-.723 4.647-2.6 6.524l-15.533 15.533c-1.64 1.639-4.002 1.632-4.711-.016z" fill="url(#SVGID_39_)"/><path d="m217.446 288.341-5.521 5.522c-1.639 1.639-4.001 1.632-4.711-.016l-30.493-70.755 32.13-32.13 11.196 90.855c.266 2.164-.724 4.647-2.601 6.524z" fill="url(#SVGID_40_)"/><path d="m215.867 247.906 4.179 33.912c.267 2.164-.723 4.647-2.6 6.524l-5.521 5.522c-1.639 1.639-4.001 1.632-4.711-.016l-11.23-26.058z" fill="url(#SVGID_41_)"/><path d="m207.214 293.847-30.493-70.755 14.492-14.492 27.534 78.441-6.821 6.821c-1.641 1.64-4.003 1.633-4.712-.015z" fill="url(#SVGID_42_)"/><path d="m206.483 205.537c-49.425 49.425-119.854 104.567-129.283 95.138s45.713-79.857 95.139-129.283 74.419-59.132 83.848-49.703c9.429 9.428-.278 34.422-49.704 83.848z" fill="url(#SVGID_43_)"/><path d="m202.82 204.092c-47.012 47.012-113.232 100.231-121.25 92.213s45.201-74.238 92.213-121.25 70.015-57.015 78.034-48.997c8.018 8.019-1.984 31.022-48.997 78.034z" fill="url(#SVGID_44_)"/><path d="m206.483 205.537c49.426-49.426 59.132-74.419 49.703-83.848l-178.986 178.986c9.429 9.429 79.858-45.713 129.283-95.138z" fill="url(#SVGID_45_)"/><path d="m214.089 140.021c-3.027 2.635-6.203 5.473-9.534 8.522-.852.78-.775 1.99.147 2.156 5.698 1.027 10.843 3.523 14.897 7.577s6.55 9.199 7.577 14.897c.166.922 1.376.999 2.156.147 3.049-3.331 5.887-6.507 8.522-9.534 1.794-2.06 2.567-4.652 1.986-6.744-1.27-4.57-3.568-8.695-6.94-12.067-3.372-3.371-7.496-5.67-12.067-6.94-2.092-.581-4.683.192-6.744 1.986z" fill="url(#SVGID_46_)"/><path d="m237.852 163.785c-2.316 2.668-4.794 5.449-7.434 8.349-.359.394-.718.788-1.084 1.19-.781.852-1.992.774-2.161-.148-1.021-5.702-3.52-10.848-7.574-14.902-.239-.239-.479-.472-.725-.69-2.879-2.668-6.258-4.597-9.961-5.822 3.33-3.034 6.49-5.864 9.51-8.49 2.063-1.795 4.653-2.569 6.744-1.985 2.485.69 4.836 1.683 7.011 2.992.246.225.486.458.725.697 3.372 3.372 5.667 7.497 6.934 12.066.584 2.09-.19 4.681-1.985 6.743z" fill="url(#SVGID_47_)"/><path d="m227.176 173.173c.166.922 1.376.999 2.156.147 3.049-3.331 5.887-6.507 8.522-9.534 1.794-2.06 2.567-4.652 1.986-6.744-1.27-4.571-3.568-8.695-6.94-12.067l-13.301 13.301c4.054 4.055 6.55 9.199 7.577 14.897z" fill="url(#SVGID_48_)"/><path d="m93.81 285.552-1.487-1.487c-1.244-1.244-.817-3.635.928-5.197l25.69-22.998c1.129-1.01 2.625-1.17 3.429-.365.805.805.645 2.3-.365 3.429l-22.998 25.69c-1.562 1.746-3.953 2.172-5.197.928z" fill="url(#SVGID_49_)"/><path d="m475.174 343.882v-1.576l-108.225-108.225c-4.292-5.156-10.757-8.439-17.991-8.439-12.924 0-23.4 10.477-23.4 23.4v53.86l-20.083 20.086c-7.805 7.806-11.166 18.817-9.358 29.428h170.523c4.713 0 8.534-3.821 8.534-8.534z" fill="url(#SVGID_50_)"/><path d="m333.537 294.923v135.073h-7.978l-27.644-71.023c-4.839-12.432-1.873-26.55 7.56-35.984l20.084-20.088z" fill="url(#SVGID_51_)"/><path d="m425.325 306.822-52.967-14.775v-43.005c0-12.924-10.477-23.4-23.4-23.4-12.924 0-23.4 10.477-23.4 23.4v180.954h131.136v-81.857c0-19.251-12.826-36.144-31.369-41.317z" fill="url(#SVGID_52_)"/><path d="m456.694 429.996v-81.857c0-19.251-12.826-36.144-31.369-41.317l-52.966-14.775v137.949z" fill="url(#SVGID_53_)"/><path d="m445.53 469.571h-113.534c-13.779 0-24.949-11.17-24.949-24.949 0-13.779 11.17-24.949 24.949-24.949h113.534c13.779 0 24.949 11.17 24.949 24.949 0 13.779-11.17 24.949-24.949 24.949z" fill="url(#SVGID_54_)"/><path d="m339.53 429.996c-13.779 0-24.949 11.17-24.949 24.949 0 3.194.607 6.244 1.7 9.051 4.29 3.484 9.758 5.575 15.715 5.575h113.534c13.779 0 24.949-11.17 24.949-24.949 0-3.194-.607-6.244-1.7-9.051-4.29-3.484-9.758-5.575-15.715-5.575z" fill="url(#SVGID_55_)"/><path d="m456.697 348.137v81.856h-121.186v-175.79c0-6.459 2.62-12.313 6.853-16.545 4.233-4.233 10.086-6.853 16.545-6.853 1.885 0 3.718.219 5.475.644 4.892 4.286 7.974 10.578 7.974 17.59v43.01l9.957 2.779 43.01 11.995c4.763 1.333 9.147 3.43 13.032 6.149 11.252 7.852 18.34 20.861 18.34 35.165z" fill="url(#SVGID_56_)"/></svg>