<svg id="Capa_1" enable-background="new 0 0 512 512" height="512" viewBox="0 0 512 512" width="512" xmlns="http://www.w3.org/2000/svg"><g><path d="m226 241.001h-211c-8.284 0-15-6.716-15-15v-130c0-7.804 5.983-14.304 13.76-14.948l211-17.5c4.178-.355 8.313 1.072 11.398 3.912s4.842 6.842 4.842 11.036v147.5c0 8.284-6.716 15-15 15z" fill="#ff6446"/><path d="m497 241.001h-211c-8.284 0-15-6.716-15-15v-152.5c0-7.804 5.983-14.304 13.76-14.948l211-17.5c4.182-.354 8.313 1.072 11.398 3.912s4.842 6.842 4.842 11.036v170c0 8.284-6.716 15-15 15z" fill="#5fc314"/><path d="m497 471.001c-.413 0-.826-.017-1.24-.052l-211-17.5c-7.777-.645-13.76-7.145-13.76-14.948v-152.5c0-8.284 6.716-15 15-15h211c8.284 0 15 6.716 15 15v170c0 4.193-1.756 8.196-4.841 11.036-2.78 2.558-6.41 3.964-10.159 3.964z" fill="#ffcd14"/><path d="m226 448.501c-.413 0-.826-.017-1.24-.052l-211-17.5c-7.777-.645-13.76-7.145-13.76-14.948v-130c0-8.284 6.716-15 15-15h211c8.284 0 15 6.716 15 15v147.5c0 4.193-1.756 8.196-4.841 11.036-2.78 2.558-6.41 3.964-10.159 3.964z" fill="#498cf0"/></g></svg>