<svg height="480pt" viewBox="0 0 480 480" width="480pt" xmlns="http://www.w3.org/2000/svg"><path d="m451.335938 360h-1.558594c3.824218-4.257812 6.222656-9.824219 6.222656-16 0-13.257812-10.742188-24-24-24s-24 10.742188-24 24c0 6.175781 2.398438 11.742188 6.230469 16h-1.558594c-11.414063 0-20.671875 9.257812-20.671875 20.664062v35.335938l16 8v48h48v-48l16-8v-35.335938c0-11.40625-9.257812-20.664062-20.664062-20.664062zm0 0" fill="#398ecc"/><path d="m67.335938 360h-1.558594c3.824218-4.257812 6.222656-9.824219 6.222656-16 0-13.257812-10.742188-24-24-24s-24 10.742188-24 24c0 6.175781 2.398438 11.742188 6.230469 16h-1.566407c-11.40625 0-20.664062 9.257812-20.664062 20.664062v35.335938l16 8v48h48v-48l16-8v-35.335938c0-11.40625-9.257812-20.664062-20.664062-20.664062zm0 0" fill="#398ecc"/><path d="m368 197.382812v-42.765624l-27.839844-9.21875c-1.976562-6.46875-4.566406-12.664063-7.695312-18.535157l11.824218-24.902343c-8.320312-11.703126-18.546874-21.929688-30.25-30.25l-24.902343 11.824218c-5.871094-3.128906-12.066407-5.71875-18.535157-7.695312l-9.21875-27.839844h-42.765624l-9.21875 27.839844-18.535157 7.695312-24.902343-11.824218c-11.703126 8.328124-21.929688 18.554687-30.25 30.25l11.074218 23.3125c.480469 1.015624.511719 2.183593.078125 3.222656l-7.015625 16.902344-27.847656 9.21875v42.765624l27.839844 9.21875 7.695312 18.535157-11.824218 24.902343c8.320312 11.703126 18.554687 21.929688 30.25 30.25l24.902343-11.824218 18.535157 7.695312 9.21875 27.839844h42.765624l9.21875-27.839844c6.46875-1.976562 12.664063-4.566406 18.535157-7.695312l24.902343 11.824218c11.703126-8.328124 21.929688-18.546874 30.25-30.25l-11.824218-24.902343c3.128906-5.871094 5.71875-12.066407 7.695312-18.535157zm0 0" fill="#ff6b6b"/><path d="m312 176c0 39.765625-32.234375 72-72 72s-72-32.234375-72-72 32.234375-72 72-72 72 32.234375 72 72zm0 0" fill="#c8cece"/><path d="m398.320312 198.871094c-11.136718 78.175781-79.191406 137.128906-158.320312 137.128906s-147.183594-58.953125-158.320312-137.128906c-.480469-3.3125-2.953126-5.976563-6.207032-6.6875-3.296875-.726563-6.632812.679687-8.441406 3.488281l-25.757812 40 13.453124 8.65625 15.105469-23.457031c20.023438 76 89.9375 131.128906 170.167969 131.128906 87.039062 0 161.902344-64.855469 174.167969-150.871094zm0 0"/><path d="m425.273438 107.671875-15.105469 23.457031c-20.023438-76-89.9375-131.128906-170.167969-131.128906-87.039062 0-161.902344 64.855469-174.167969 150.871094l15.839844 2.25c11.144531-78.167969 79.199219-137.121094 158.328125-137.121094s147.183594 58.953125 158.320312 137.128906c.480469 3.3125 2.953126 5.976563 6.207032 6.6875.578125.121094 1.152344.183594 1.710937.183594 2.683594 0 5.234375-1.351562 6.730469-3.671875l25.757812-40zm0 0"/><path d="m240 256c44.113281 0 80-35.886719 80-80s-35.886719-80-80-80-80 35.886719-80 80 35.886719 80 80 80zm0-144c35.289062 0 64 28.710938 64 64s-28.710938 64-64 64-64-28.710938-64-64 28.710938-64 64-64zm0 0"/><path d="m109.488281 147.023438c-3.28125 1.089843-5.488281 4.144531-5.488281 7.59375v42.765624c0 3.457032 2.207031 6.503907 5.488281 7.59375l24.375 8.070313 4.929688 11.863281-10.304688 21.699219c-1.242187 2.613281-.976562 5.703125.703125 8.0625 8.863282 12.472656 19.671875 23.273437 32.144532 32.144531 2.367187 1.679688 5.472656 1.9375 8.0625.703125l21.691406-10.304687 11.871094 4.929687 8.070312 24.375c1.082031 3.273438 4.136719 5.480469 7.585938 5.480469h42.765624c3.457032 0 6.503907-2.207031 7.59375-5.488281l7.953126-24.007813c4.191406-1.464844 8.328124-3.175781 12.335937-5.136718l21.34375 10.144531c2.597656 1.242187 5.703125.976562 8.0625-.703125 12.472656-8.863282 23.273437-19.671875 32.144531-32.144532 1.679688-2.359374 1.945313-5.449218.703125-8.0625l-10.144531-21.355468c1.960938-4.015625 3.679688-8.140625 5.136719-12.335938l24.007812-7.941406c3.273438-1.082031 5.480469-4.136719 5.480469-7.585938v-42.765624c0-3.457032-2.207031-6.503907-5.488281-7.59375l-24.007813-7.945313c-1.457031-4.191406-3.167968-8.316406-5.136718-12.34375l10.144531-21.34375c1.242187-2.613281.976562-5.703125-.703125-8.0625-8.863282-12.472656-19.671875-23.273437-32.144532-32.144531-2.359374-1.679688-5.464843-1.925782-8.0625-.703125l-21.34375 10.144531c-4.027343-1.960938-8.152343-3.679688-12.347656-5.136719l-7.941406-24.007812c-1.082031-3.273438-4.136719-5.480469-7.585938-5.480469h-42.765624c-3.457032 0-6.503907 2.207031-7.59375 5.488281l-8.070313 24.375-11.863281 4.921875-21.699219-10.296875c-2.621094-1.242187-5.710937-.96875-8.0625.703125-12.472656 8.863282-23.273437 19.671875-32.144531 32.144532-1.679688 2.359374-1.945313 5.449218-.703125 8.0625l10.296875 21.691406-4.921875 11.871094zm32.871094 5.96875c2.199219-.726563 3.984375-2.382813 4.871094-4.527344l7.015625-16.914063c1.289062-3.101562 1.203125-6.628906-.238282-9.710937l-9.015624-18.976563c6.328124-8.207031 13.65625-15.535156 21.863281-21.863281l20.578125 9.769531c2.046875.972657 4.414062 1.03125 6.496094.167969l18.527343-7.691406c2.152344-.886719 3.808594-2.671875 4.527344-4.871094l7.414063-22.375h31.203124l7.40625 22.359375c.816407 2.472656 2.785157 4.382813 5.265626 5.144531 5.847656 1.785156 11.605468 4.167969 17.101562 7.105469 2.242188 1.183594 4.898438 1.238281 7.191406.167969l20.570313-9.777344c8.207031 6.328125 15.535156 13.65625 21.863281 21.863281l-9.777344 20.570313c-1.085937 2.285156-1.023437 4.949218.167969 7.191406 2.929687 5.496094 5.320313 11.246094 7.105469 17.101562.761718 2.488282 2.671875 4.457032 5.144531 5.265626l22.359375 7.40625v31.203124l-22.359375 7.40625c-2.472656.816407-4.382813 2.785157-5.144531 5.265626-1.785156 5.855468-4.167969 11.605468-7.097656 17.09375-1.191407 2.234374-1.253907 4.90625-.167969 7.191406l9.777343 20.578125c-6.328124 8.207031-13.65625 15.535156-21.863281 21.863281l-20.570312-9.777344c-2.292969-1.085937-4.949219-1.03125-7.191407.167969-5.460937 2.914063-11.214843 5.304687-17.109374 7.113281-2.488282.761719-4.449219 2.671875-5.257813 5.136719l-7.414063 22.359375h-31.203124l-7.40625-22.359375c-.726563-2.199219-2.382813-3.984375-4.519532-4.871094l-18.535156-7.699219c-2.097656-.855468-4.464844-.804687-6.496094.167969l-20.570312 9.777344c-8.207032-6.328125-15.535156-13.65625-21.863282-21.863281l9.777344-20.578125c.96875-2.046875 1.03125-4.40625.167969-6.496094l-7.695313-18.527344c-.890624-2.144531-2.671874-3.796875-4.875-4.519531l-22.382812-7.429688v-31.203124zm0 0"/><path d="m222.65625 180.441406 6.40625-9.609375 11.242188 39.367188c.902343 3.167969 3.671874 5.472656 6.953124 5.777343.246094.015626.503907.023438.742188.023438 3.007812 0 5.792969-1.695312 7.160156-4.425781l13.785156-27.574219h19.054688v-16h-24c-3.03125 0-5.800781 1.710938-7.160156 4.425781l-6.808594 13.597657-10.34375-36.214844c-.855469-3-3.382812-5.222656-6.464844-5.710938-3.109375-.472656-6.160156.871094-7.886718 3.46875l-13.617188 20.433594h-19.71875v16h24c2.671875 0 5.167969-1.335938 6.65625-3.558594zm0 0"/><path d="m462.304688 354.175781c1.121093-3.253906 1.695312-6.6875 1.695312-10.175781 0-17.648438-14.351562-32-32-32s-32 14.351562-32 32c0 3.488281.574219 6.921875 1.695312 10.175781-10.375 4.320313-17.695312 14.566407-17.695312 26.488281v35.335938c0 3.03125 1.710938 5.800781 4.425781 7.160156l11.574219 5.785156v43.054688c0 4.425781 3.574219 8 8 8h48c4.425781 0 8-3.574219 8-8v-43.054688l11.574219-5.792968c2.714843-1.351563 4.425781-4.121094 4.425781-7.152344v-35.335938c0-11.921874-7.320312-22.167968-17.695312-26.488281zm1.695312 56.878907-11.574219 5.792968c-2.714843 1.351563-4.425781 4.121094-4.425781 7.152344v40h-32v-40c0-3.03125-1.710938-5.800781-4.425781-7.160156l-11.574219-5.785156v-30.390626c0-6.984374 5.6875-12.664062 12.671875-12.664062h1.550781c3.160156 0 6.023438-1.855469 7.3125-4.753906 1.28125-2.878906.753906-6.253906-1.367187-8.597656-2.679688-2.992188-4.167969-6.769532-4.167969-10.648438 0-8.824219 7.175781-16 16-16s16 7.175781 16 16c0 3.878906-1.488281 7.65625-4.167969 10.648438-2.121093 2.34375-2.648437 5.71875-1.367187 8.597656 1.289062 2.898437 4.152344 4.753906 7.3125 4.753906h1.550781c6.984375 0 12.671875 5.679688 12.671875 12.664062zm0 0"/><path d="m424 376h16v24h-16zm0 0"/><path d="m4.425781 423.160156 11.574219 5.785156v43.054688c0 4.425781 3.574219 8 8 8h48c4.425781 0 8-3.574219 8-8v-43.054688l11.574219-5.792968c2.714843-1.351563 4.425781-4.121094 4.425781-7.152344v-35.335938c0-11.921874-7.320312-22.167968-17.695312-26.488281 1.121093-3.253906 1.695312-6.6875 1.695312-10.175781 0-17.648438-14.351562-32-32-32s-32 14.351562-32 32c0 3.488281.574219 6.921875 1.695312 10.175781-10.375 4.320313-17.695312 14.566407-17.695312 26.488281v35.335938c0 3.03125 1.710938 5.800781 4.425781 7.160156zm11.574219-42.496094c0-6.984374 5.6875-12.664062 12.671875-12.664062h1.550781c3.160156 0 6.023438-1.855469 7.3125-4.753906 1.28125-2.878906.753906-6.253906-1.367187-8.597656-2.679688-2.992188-4.167969-6.769532-4.167969-10.648438 0-8.824219 7.175781-16 16-16s16 7.175781 16 16c0 3.878906-1.488281 7.65625-4.167969 10.648438-2.121093 2.34375-2.648437 5.71875-1.367187 8.597656 1.289062 2.898437 4.152344 4.753906 7.3125 4.753906h1.550781c6.984375 0 12.671875 5.679688 12.671875 12.664062v30.390626l-11.574219 5.792968c-2.714843 1.351563-4.425781 4.121094-4.425781 7.152344v40h-32v-40c0-3.03125-1.710938-5.800781-4.425781-7.160156l-11.574219-5.785156zm0 0"/><path d="m40 376h16v24h-16zm0 0"/><path d="m112 408h16v16h-16zm0 0"/><path d="m144 408h16v16h-16zm0 0"/><path d="m176 408h16v16h-16zm0 0"/><path d="m208 408h16v16h-16zm0 0"/><path d="m256 408h16v16h-16zm0 0"/><path d="m288 408h16v16h-16zm0 0"/><path d="m320 408h16v16h-16zm0 0"/><path d="m352 408h16v16h-16zm0 0"/><path d="m256 376h16v16h-16zm0 0"/><path d="m208 376h16v16h-16zm0 0"/></svg>