<?xml version="1.0" encoding="iso-8859-1"?>
<!-- Generator: Adobe Illustrator 19.0.0, SVG Export Plug-In . SVG Version: 6.00 Build 0)  -->
<svg version="1.1" id="Capa_1" xmlns="http://www.w3.org/2000/svg" xmlns:xlink="http://www.w3.org/1999/xlink" x="0px" y="0px"
	 viewBox="0 0 512 512" style="enable-background:new 0 0 512 512;" xml:space="preserve">
<path style="fill:#E0E0E3;" d="M429.994,81.787v331.14c0,18.286-14.819,33.116-33.106,33.116H58.721
	c-18.286,0-33.106-14.83-33.106-33.116V81.787c0-18.286,14.819-33.106,33.106-33.106h338.167
	C415.174,48.682,429.994,63.501,429.994,81.787z"/>
<g>
	<path style="fill:#D1D1D1;" d="M429.994,382.201V271.016c-60.923,0-110.308,49.384-110.308,110.308
		c0,11.832,1.875,23.225,5.327,33.912H58.729c-18.295,0-33.114-14.827-33.114-33.114v30.808c0,18.294,14.819,33.114,33.114,33.114
		h281.943l0.001,0.002h56.215c5.946,0,11.521-1.576,16.343-4.321c10.011-5.694,16.764-16.449,16.764-28.795v-30.808
		C429.996,382.148,429.994,382.174,429.994,382.201z"/>
	<rect x="25.615" y="140.973" style="fill:#D1D1D1;" width="404.38" height="26.814"/>
</g>
<path style="fill:#FF3C63;" d="M429.998,81.789v59.184H25.61V81.789c0-0.567,0.021-1.133,0.041-1.7
	c0.886-17.503,15.35-31.41,33.079-31.41h338.147c17.729,0,32.193,13.907,33.079,31.41C429.977,80.656,429.998,81.222,429.998,81.789
	z"/>
<path style="fill:#FF557E;" d="M25.615,112.598V81.79c0-18.295,14.819-33.114,33.114-33.114h338.153
	c18.295,0,33.114,14.819,33.114,33.114v30.808c0-18.286-14.819-33.114-33.114-33.114H58.729
	C40.434,79.484,25.615,94.311,25.615,112.598z"/>
<g>
	<path style="fill:#EA2F5C;" d="M429.998,104.875v15.453H367.6c-4.265,0-7.726-3.462-7.726-7.726c0-4.275,3.461-7.726,7.726-7.726
		h62.398V104.875z"/>
	<path style="fill:#EA2F5C;" d="M341.68,112.602c0,4.265-3.461,7.726-7.726,7.726H25.61v-15.453h308.344
		C338.219,104.875,341.68,108.326,341.68,112.602z"/>
</g>
<g>
	<path style="fill:#FFDA2D;" d="M56.172,247.359H18.55c-10.245,0-18.55-8.305-18.55-18.55v-12.877c0-10.245,8.305-18.55,18.55-18.55
		h37.623c10.245,0,18.55,8.305,18.55,18.55v12.877C74.722,239.054,66.417,247.359,56.172,247.359z"/>
	<path style="fill:#FFDA2D;" d="M74.723,317.836v12.946c0,10.226-8.29,18.515-18.515,18.515H18.515
		C8.29,349.297,0,341.008,0,330.782v-12.946c0-10.226,8.29-18.515,18.515-18.515h37.692
		C66.433,299.321,74.723,307.612,74.723,317.836z"/>
</g>
<g>
	<path style="fill:#FFCE00;" d="M74.723,324.31v6.473c0,10.226-8.29,18.515-18.515,18.515H18.515C8.29,349.297,0,341.008,0,330.782
		v-6.473H74.723z"/>
	<path style="fill:#FFCE00;" d="M74.723,222.371v6.473c0,10.226-8.29,18.515-18.515,18.515H18.515C8.29,247.359,0,239.069,0,228.844
		v-6.473H74.723z"/>
</g>
<g>
	<path style="fill:#00DDC0;" d="M187.607,325.281c-4.267,0-7.726-3.459-7.726-7.726V197.382c0-4.268,3.459-7.726,7.726-7.726
		s7.726,3.459,7.726,7.726v120.172C195.333,321.823,191.874,325.281,187.607,325.281z"/>
	<path style="fill:#00DDC0;" d="M246.612,325.284c-0.769,0-1.551-0.116-2.323-0.359c-4.07-1.282-6.33-5.62-5.049-9.69
		l34.683-110.125h-52.786c-4.267,0-7.726-3.459-7.726-7.726s3.459-7.726,7.726-7.726h63.32c2.461,0,4.775,1.172,6.23,3.157
		c1.455,1.984,1.878,4.543,1.139,6.89l-37.847,120.172C252.941,323.174,249.895,325.284,246.612,325.284z"/>
	<path style="fill:#00DDC0;" d="M131.241,410.206h-25.602c-4.552,0-8.241-3.69-8.241-8.241v-25.602c0-4.552,3.69-8.241,8.241-8.241
		h25.602c4.552,0,8.241,3.69,8.241,8.241v25.602C139.483,406.516,135.793,410.206,131.241,410.206z"/>
	<path style="fill:#00DDC0;" d="M212.895,410.206h-25.602c-4.552,0-8.241-3.69-8.241-8.241v-25.602c0-4.552,3.69-8.241,8.241-8.241
		h25.602c4.552,0,8.241,3.69,8.241,8.241v25.602C221.136,406.516,217.447,410.206,212.895,410.206z"/>
	<path style="fill:#00DDC0;" d="M294.549,410.206h-25.602c-4.552,0-8.241-3.69-8.241-8.241v-25.602c0-4.552,3.69-8.241,8.241-8.241
		h25.602c4.552,0,8.241,3.69,8.241,8.241v25.602C302.79,406.516,299.1,410.206,294.549,410.206z"/>
</g>
<circle style="fill:#586C89;" cx="430" cy="381.323" r="82"/>
<circle style="fill:#6B7F9E;" cx="430" cy="381.323" r="61.5"/>
<path style="fill:#586C89;" d="M429.997,389.052c-2.011,0-3.986-0.785-5.465-2.263l-19.826-19.825
	c-3.018-3.017-3.018-7.909,0-10.927c3.017-3.018,7.909-3.017,10.927-0.001l6.636,6.636v-29.583c0-4.268,3.459-7.726,7.726-7.726
	s7.726,3.459,7.726,7.726v48.236c0,3.125-1.882,5.943-4.77,7.138C431.997,388.859,430.993,389.052,429.997,389.052z"/>
<g>
</g>
<g>
</g>
<g>
</g>
<g>
</g>
<g>
</g>
<g>
</g>
<g>
</g>
<g>
</g>
<g>
</g>
<g>
</g>
<g>
</g>
<g>
</g>
<g>
</g>
<g>
</g>
<g>
</g>
</svg>
