<svg enable-background="new 0 0 520 520" height="512" viewBox="0 0 520 520" width="512" xmlns="http://www.w3.org/2000/svg"><g id="_x31_69_x2C__Chat_x2C__Line_x2C__Talk_x2C__Telephone"><g><g><path d="m385.26 246.67h-81.26c-2.762 0-5-2.239-5-5s2.238-5 5-5h81.26c2.762 0 5 2.239 5 5s-2.239 5-5 5z" fill="#b2dd00"/><path d="m454 177.93c0 22.44-10.75 42.37-27.38 54.92l2.83 23.64-26.17-12.21c-5.74 1.56-11.78 2.39-18.021 2.39-37.959 0-68.74-30.77-68.74-68.74 0-2.08.101-4.13.281-6.17 25.109-8.64 43.649-31.43 46.09-58.84 7.01-2.41 14.539-3.73 22.369-3.73 37.971 0 68.741 30.78 68.741 68.74z" fill="#d7e816"/><path d="m401.34 481h-168.55c-12.407 0-22.5-10.094-22.5-22.5 0-6.004 2.337-11.654 6.579-15.91 4.267-4.253 9.917-6.59 15.921-6.59h47.49c2.761 0 5 2.238 5 5s-2.239 5-5 5h-47.49c-3.339 0-6.481 1.3-8.85 3.661-2.35 2.357-3.65 5.5-3.65 8.839 0 6.893 5.607 12.5 12.5 12.5h168.55c3.779 0 7.471-.733 10.971-2.181 3.49-1.448 6.619-3.54 9.294-6.215 5.416-5.412 8.398-12.608 8.398-20.265 0-7.656-2.982-14.853-8.397-20.263l-23.892-23.902c-1.952-1.953-1.952-5.119.001-7.071s5.119-1.952 7.071.001l23.89 23.9c7.304 7.298 11.326 17.006 11.326 27.335s-4.023 20.037-11.328 27.337c-3.605 3.605-7.824 6.426-12.537 8.382-4.725 1.954-9.701 2.942-14.797 2.942z" fill="#d7deed"/><path d="m400 44c11.051 0 20 8.95 20 20s-8.949 20-20 20c-11.04 0-20-8.95-20-20s8.96-20 20-20z" fill="#5cbeff"/><path d="m447.5 274c9.67 0 17.5 7.83 17.5 17.5s-7.83 17.5-17.5 17.5c-9.66 0-17.5-7.83-17.5-17.5s7.84-17.5 17.5-17.5z" fill="#5cbeff"/><path d="m92.5 339c15.19 0 27.5 12.31 27.5 27.5s-12.31 27.5-27.5 27.5c-15.18 0-27.5-12.31-27.5-27.5s12.32-27.5 27.5-27.5z" fill="#5cbeff"/><path d="m404.78 300.11c-13.66-13.67-31.58-20.511-49.5-20.511-17.91 0-35.82 6.841-49.49 20.511l-3.54 3.529-123.74-123.739 3.53-3.53c27.34-27.34 27.34-71.66 0-99-13.66-13.67-31.58-20.51-49.49-20.51s-35.83 6.84-49.5 20.51l-3.54 3.54c-35.14 35.14-35.14 92.13 0 127.28l194.46 194.45c17.57 17.58 40.61 26.36 63.64 26.36s46.069-8.78 63.64-26.36l3.53-3.54c27.34-27.33 27.34-71.65 0-98.99z" fill="#3256c1"/><path d="m404.78 300.11c27.34 27.34 27.34 71.659 0 98.989l-3.53 3.54-99-99 3.54-3.529c13.67-13.67 31.58-20.511 49.49-20.511 17.92.001 35.84 6.841 49.5 20.511z" fill="#163eb1"/><path d="m182.04 77.37c27.34 27.34 27.34 71.66 0 99l-3.53 3.53-99-98.99 3.54-3.54c13.67-13.67 31.59-20.51 49.5-20.51s35.83 6.84 49.49 20.51z" fill="#163eb1"/><path d="m79.51 208.19c-35.14-35.15-35.14-92.14 0-127.28l99 98.99 123.74 123.74 99 99c-17.57 17.58-40.609 26.36-63.64 26.36-23.03 0-46.07-8.78-63.64-26.36z" fill="#3256c1"/><path d="m317.801 172.76c-7.011 2.41-14.541 3.72-22.371 3.72-6.239 0-12.279-.84-18.02-2.39l-26.17 12.21 2.84-23.65c-16.64-12.54-27.39-32.47-27.39-54.91 0-37.96 30.78-68.74 68.739-68.74 37.961 0 68.74 30.78 68.74 68.74 0 2.08-.09 4.14-.279 6.18-2.44 27.41-20.98 50.2-46.089 58.84z" fill="#07cc66"/><g fill="#ff5722"><path d="m472.5 89c4.15 0 7.5 3.36 7.5 7.5s-3.35 7.5-7.5 7.5c-4.14 0-7.5-3.36-7.5-7.5s3.36-7.5 7.5-7.5z"/><path d="m462.5 374c4.15 0 7.5 3.36 7.5 7.5s-3.35 7.5-7.5 7.5c-4.14 0-7.5-3.36-7.5-7.5s3.36-7.5 7.5-7.5z"/><path d="m212.5 44c4.15 0 7.5 3.36 7.5 7.5s-3.35 7.5-7.5 7.5c-4.14 0-7.5-3.36-7.5-7.5s3.36-7.5 7.5-7.5z"/><path d="m192.5 364c4.15 0 7.5 3.36 7.5 7.5s-3.35 7.5-7.5 7.5c-4.14 0-7.5-3.36-7.5-7.5s3.36-7.5 7.5-7.5z"/><path d="m107.5 449c4.15 0 7.5 3.36 7.5 7.5s-3.35 7.5-7.5 7.5c-4.14 0-7.5-3.36-7.5-7.5s3.36-7.5 7.5-7.5z"/><path d="m62.5 49c4.15 0 7.5 3.36 7.5 7.5s-3.35 7.5-7.5 7.5c-4.14 0-7.5-3.36-7.5-7.5s3.36-7.5 7.5-7.5z"/><path d="m47.5 259c4.15 0 7.5 3.36 7.5 7.5s-3.35 7.5-7.5 7.5c-4.14 0-7.5-3.36-7.5-7.5s3.36-7.5 7.5-7.5z"/></g><path d="m305 359c-1.279 0-2.559-.488-3.535-1.465l-205-205c-1.953-1.953-1.953-5.119 0-7.071s5.118-1.952 7.071 0l205 205c1.953 1.952 1.953 5.118 0 7.07-.977.978-2.257 1.466-3.536 1.466z" fill="#163eb1"/><path d="m315 89h-60c-2.761 0-5-2.239-5-5s2.239-5 5-5h60c2.762 0 5 2.239 5 5s-2.238 5-5 5z" fill="#fff"/><path d="m335 109h-80c-2.761 0-5-2.239-5-5s2.239-5 5-5h80c2.762 0 5 2.239 5 5s-2.238 5-5 5z" fill="#fff"/><path d="m335 129h-80c-2.761 0-5-2.239-5-5s2.239-5 5-5h80c2.762 0 5 2.239 5 5s-2.238 5-5 5z" fill="#fff"/></g><g><path d="m385.26 246.67h-81.26c-2.762 0-5-2.239-5-5s2.238-5 5-5h81.26c2.762 0 5 2.239 5 5s-2.239 5-5 5z" fill="#b2dd00"/><path d="m454 177.93c0 22.44-10.75 42.37-27.38 54.92l2.83 23.64-26.17-12.21c-5.74 1.56-11.78 2.39-18.021 2.39-37.959 0-68.74-30.77-68.74-68.74 0-2.08.101-4.13.281-6.17 25.109-8.64 43.649-31.43 46.09-58.84 7.01-2.41 14.539-3.73 22.369-3.73 37.971 0 68.741 30.78 68.741 68.74z" fill="#d7e816"/><path d="m401.34 481h-168.55c-12.407 0-22.5-10.094-22.5-22.5 0-6.004 2.337-11.654 6.579-15.91 4.267-4.253 9.917-6.59 15.921-6.59h47.49c2.761 0 5 2.238 5 5s-2.239 5-5 5h-47.49c-3.339 0-6.481 1.3-8.85 3.661-2.35 2.357-3.65 5.5-3.65 8.839 0 6.893 5.607 12.5 12.5 12.5h168.55c3.779 0 7.471-.733 10.971-2.181 3.49-1.448 6.619-3.54 9.294-6.215 5.416-5.412 8.398-12.608 8.398-20.265 0-7.656-2.982-14.853-8.397-20.263l-23.892-23.902c-1.952-1.953-1.952-5.119.001-7.071s5.119-1.952 7.071.001l23.89 23.9c7.304 7.298 11.326 17.006 11.326 27.335s-4.023 20.037-11.328 27.337c-3.605 3.605-7.824 6.426-12.537 8.382-4.725 1.954-9.701 2.942-14.797 2.942z" fill="#d7deed"/><path d="m400 44c11.051 0 20 8.95 20 20s-8.949 20-20 20c-11.04 0-20-8.95-20-20s8.96-20 20-20z" fill="#5cbeff"/><path d="m447.5 274c9.67 0 17.5 7.83 17.5 17.5s-7.83 17.5-17.5 17.5c-9.66 0-17.5-7.83-17.5-17.5s7.84-17.5 17.5-17.5z" fill="#5cbeff"/><path d="m92.5 339c15.19 0 27.5 12.31 27.5 27.5s-12.31 27.5-27.5 27.5c-15.18 0-27.5-12.31-27.5-27.5s12.32-27.5 27.5-27.5z" fill="#5cbeff"/><path d="m404.78 300.11c-13.66-13.67-31.58-20.511-49.5-20.511-17.91 0-35.82 6.841-49.49 20.511l-3.54 3.529-123.74-123.739 3.53-3.53c27.34-27.34 27.34-71.66 0-99-13.66-13.67-31.58-20.51-49.49-20.51s-35.83 6.84-49.5 20.51l-3.54 3.54c-35.14 35.14-35.14 92.13 0 127.28l194.46 194.45c17.57 17.58 40.61 26.36 63.64 26.36s46.069-8.78 63.64-26.36l3.53-3.54c27.34-27.33 27.34-71.65 0-98.99z" fill="#3256c1"/><path d="m404.78 300.11c27.34 27.34 27.34 71.659 0 98.989l-3.53 3.54-99-99 3.54-3.529c13.67-13.67 31.58-20.511 49.49-20.511 17.92.001 35.84 6.841 49.5 20.511z" fill="#163eb1"/><path d="m182.04 77.37c27.34 27.34 27.34 71.66 0 99l-3.53 3.53-99-98.99 3.54-3.54c13.67-13.67 31.59-20.51 49.5-20.51s35.83 6.84 49.49 20.51z" fill="#163eb1"/><path d="m79.51 208.19c-35.14-35.15-35.14-92.14 0-127.28l99 98.99 123.74 123.74 99 99c-17.57 17.58-40.609 26.36-63.64 26.36-23.03 0-46.07-8.78-63.64-26.36z" fill="#3256c1"/><path d="m317.801 172.76c-7.011 2.41-14.541 3.72-22.371 3.72-6.239 0-12.279-.84-18.02-2.39l-26.17 12.21 2.84-23.65c-16.64-12.54-27.39-32.47-27.39-54.91 0-37.96 30.78-68.74 68.739-68.74 37.961 0 68.74 30.78 68.74 68.74 0 2.08-.09 4.14-.279 6.18-2.44 27.41-20.98 50.2-46.089 58.84z" fill="#07cc66"/><g fill="#ff5722"><path d="m472.5 89c4.15 0 7.5 3.36 7.5 7.5s-3.35 7.5-7.5 7.5c-4.14 0-7.5-3.36-7.5-7.5s3.36-7.5 7.5-7.5z"/><path d="m462.5 374c4.15 0 7.5 3.36 7.5 7.5s-3.35 7.5-7.5 7.5c-4.14 0-7.5-3.36-7.5-7.5s3.36-7.5 7.5-7.5z"/><path d="m212.5 44c4.15 0 7.5 3.36 7.5 7.5s-3.35 7.5-7.5 7.5c-4.14 0-7.5-3.36-7.5-7.5s3.36-7.5 7.5-7.5z"/><path d="m192.5 364c4.15 0 7.5 3.36 7.5 7.5s-3.35 7.5-7.5 7.5c-4.14 0-7.5-3.36-7.5-7.5s3.36-7.5 7.5-7.5z"/><path d="m107.5 449c4.15 0 7.5 3.36 7.5 7.5s-3.35 7.5-7.5 7.5c-4.14 0-7.5-3.36-7.5-7.5s3.36-7.5 7.5-7.5z"/><path d="m62.5 49c4.15 0 7.5 3.36 7.5 7.5s-3.35 7.5-7.5 7.5c-4.14 0-7.5-3.36-7.5-7.5s3.36-7.5 7.5-7.5z"/><path d="m47.5 259c4.15 0 7.5 3.36 7.5 7.5s-3.35 7.5-7.5 7.5c-4.14 0-7.5-3.36-7.5-7.5s3.36-7.5 7.5-7.5z"/></g><path d="m305 359c-1.279 0-2.559-.488-3.535-1.465l-205-205c-1.953-1.953-1.953-5.119 0-7.071s5.118-1.952 7.071 0l205 205c1.953 1.952 1.953 5.118 0 7.07-.977.978-2.257 1.466-3.536 1.466z" fill="#163eb1"/><path d="m315 89h-60c-2.761 0-5-2.239-5-5s2.239-5 5-5h60c2.762 0 5 2.239 5 5s-2.238 5-5 5z" fill="#fff"/><path d="m335 109h-80c-2.761 0-5-2.239-5-5s2.239-5 5-5h80c2.762 0 5 2.239 5 5s-2.238 5-5 5z" fill="#fff"/><path d="m335 129h-80c-2.761 0-5-2.239-5-5s2.239-5 5-5h80c2.762 0 5 2.239 5 5s-2.238 5-5 5z" fill="#fff"/></g></g></g></svg>