<svg id="Layer_3" height="512" viewBox="0 0 64 64" width="512" xmlns="http://www.w3.org/2000/svg" data-name="Layer 3"><path d="m20 22 10 6-2-6a4 4 0 0 0 4-4v-12a4 4 0 0 0 -4-4h-22a4 4 0 0 0 -4 4v12a4 4 0 0 0 4 4z" fill="#e7e4dd"/><path d="m50 50h7a5 5 0 0 1 5 5v7h-30v-7a5 5 0 0 1 5-5h7" fill="#c66b60"/><path d="m54.966 50h-17.966a5 5 0 0 0 -5 5v7h17.587a21.966 21.966 0 0 0 5.379-12z" fill="#e47c6e"/><path d="m14 50h-7a5 5 0 0 0 -5 5v7h30v-7a5 5 0 0 0 -5-5h-7" fill="#669e4f"/><path d="m25.468 50h-18.468a5 5 0 0 0 -5 5v7h18.875a22.717 22.717 0 0 0 4.593-12z" fill="#78b75b"/><path d="m44 47v3a3 3 0 0 0 3 3 3 3 0 0 0 3-3v-3" fill="#f5cf88"/><path d="m40 33h14a0 0 0 0 1 0 0v10a4 4 0 0 1 -4 4h-6a4 4 0 0 1 -4-4v-10a0 0 0 0 1 0 0z" fill="#fadfb2"/><path d="m40 37h-2a2 2 0 0 0 -2 2 2 2 0 0 0 2 2h2" fill="#fadfb2"/><path d="m54 37h2a2 2 0 0 1 2 2 2 2 0 0 1 -2 2h-2" fill="#fadfb2"/><path d="m20 47v3a3 3 0 0 1 -3 3 3 3 0 0 1 -3-3v-3" fill="#f5cf88"/><path d="m24 33v10a4 4 0 0 1 -4 4h-6a4 4 0 0 1 -4-4v-10l4 3 1-3 4 3v-3l3 3z" fill="#fadfb2"/><path d="m10 37h-2a2 2 0 0 0 -2 2 2 2 0 0 0 2 2h2" fill="#fadfb2"/><path d="m24 37h2a2 2 0 0 1 2 2 2 2 0 0 1 -2 2h-2" fill="#fadfb2"/><path d="m24 33a6 6 0 0 0 -6-6h-2a6 6 0 0 0 -6 6l4 3 1-3 4 3v-3l3 3z" fill="#976947"/><path d="m48 25h10a0 0 0 0 1 0 0v4a4 4 0 0 1 -4 4h-14a0 0 0 0 1 0 0 8 8 0 0 1 8-8z" fill="#976947"/><path d="m48 19-10 6 2-6a4 4 0 0 1 -4-4v-6a4 4 0 0 1 4-4h12a4 4 0 0 1 4 4v6a4 4 0 0 1 -4 4z" fill="#e7e4dd"/><path d="m6.999 57.999h1.999v3.999h-1.999z" fill="#669e4f"/><path d="m25 57.999h1.999v3.999h-1.999z" fill="#78b75b"/><path d="m37 57.999h1.999v3.999h-1.999z" fill="#c66b60"/><path d="m55 57.999h1.999v3.999h-1.999z" fill="#e47c6e"/><g fill="#d5cec2"><path d="m9.5 16a1.5 1.5 0 1 1 1.5-1.5 1.5 1.5 0 0 1 -1.5 1.5z"/><path d="m14.5 16a1.5 1.5 0 1 1 1.5-1.5 1.5 1.5 0 0 1 -1.5 1.5z"/><path d="m19.5 16a1.5 1.5 0 1 1 1.5-1.5 1.5 1.5 0 0 1 -1.5 1.5z"/><path d="m24.5 16a1.5 1.5 0 1 1 1.5-1.5 1.5 1.5 0 0 1 -1.5 1.5z"/><path d="m40.5 16a1.5 1.5 0 1 1 1.5-1.5 1.5 1.5 0 0 1 -1.5 1.5z"/><path d="m45.5 16a1.5 1.5 0 1 1 1.5-1.5 1.5 1.5 0 0 1 -1.5 1.5z"/><path d="m50.5 16a1.5 1.5 0 1 1 1.5-1.5 1.5 1.5 0 0 1 -1.5 1.5z"/></g></svg>