<svg id="Layer_1" enable-background="new 0 0 512 512" height="512" viewBox="0 0 512 512" width="512" xmlns="http://www.w3.org/2000/svg"><g><path d="m254.846 1.158c-140.748 0-254.846 114.098-254.846 254.846 0 42.067 10.193 81.754 28.243 116.726l367.828-328.895c-40.424-26.961-88.989-42.677-141.225-42.677z" fill="#5c2481"/><g><path d="m396.064 43.846c-9.992 0-88.109 0-98.061 0-10.289 0-18.63 8.341-18.63 18.63 0 43.296-35.098 78.394-78.394 78.394h-18.984c0-.174 0-8.107 0-7.967 0-9.794-7.94-17.734-17.734-17.734-15.436 0-51.044 0-67.262 0-9.794 0-17.734 7.94-17.734 17.734v205.075c-.03.011-.009.004-.039.014-24.773-27.356-67.435 2.664-50.81 34.647 44.293 85.21 132.939 140.421 232.398 138.134 83.783-1.923 158.292-44.385 203.618-109.779 28.529-41.16 45.26-91.118 45.26-144.991 0-88.511-45.131-166.472-113.628-212.157z" fill="#43265c"/></g><g><g><path d="m512 400.423c0 10.289-8.341 18.63-18.63 18.63h-203.983c-10.289 0-18.63-8.341-18.63-18.63v-318.33h222.613c10.289 0 18.63 8.341 18.63 18.63z" fill="#00b7f0"/></g><g><path d="m155.307 158.929v-7.966c0-9.794-7.94-17.734-17.734-17.734h-67.262c-9.794 0-17.734 7.94-17.734 17.734v206.06c0 9.794 7.94 17.734 17.734 17.734h326.91v-215.828z" fill="#fec502"/></g><g><path d="m155.307 158.929v-7.967c0-9.794-7.94-17.734-17.734-17.734h-20.988c-11.626 0-21.051 9.425-21.051 21.051v220.476h301.686v-215.826z" fill="#fec502"/></g><g><path d="m134.014 344.874c-15.069 0-27.285-12.216-27.285-27.285v-166.626c0-9.794 7.94-17.734 17.734-17.734h-54.152c-9.794 0-17.734 7.94-17.734 17.734 0 5.07 0 210.751 0 206.06 0 9.794 7.94 17.734 17.734 17.734h326.91v-29.883z" fill="#ffa50a"/></g><g><g><path d="m438.481 61.905h-121.878c-9.472 0-17.15 7.678-17.15 17.15v237.897l8.962 81.914h166.882c10.289 0 18.63-8.341 18.63-18.63v-260.595l-34.82-21.466z" fill="#b6fff6"/></g><g><path d="m307.476 180.013c0-5.866 4.755-10.621 10.621-10.621h138.077v-13.15h-148.698v-13.925c0-5.866 4.755-10.621 10.621-10.621h60.272v-13.15h-70.894v-38.01c0-10.289 8.341-18.63 18.63-18.63h-54.792c-10.289 0-18.63 8.341-18.63 18.63v299.699c0 10.289 8.341 18.63 18.63 18.63h37.101s0-.001 0-.003c-.017-8.03 6.495-14.55 14.525-14.55h122.965c5.671 0 10.269-4.598 10.269-10.269v-21.172c0-5.671-4.598-10.269-10.269-10.269h-137.501c.002-3.698.006-5.998.012-6.019.483-9.032 9.492-16.46 18.392-16.46l93.204.055v-13.15h-78.381l-7.09-5.577c-7.926-6.234-3.517-18.97 6.567-18.97h115.067v-13.15h-148.698v-13.926c0-5.866 4.755-10.621 10.621-10.621h138.077v-13.15h-148.698v-13.924c0-5.866 4.755-10.621 10.621-10.621h138.077v-13.15h-148.698z" fill="#97f4ec"/></g><g><path d="m438.481 61.905v39.105c0 10.289 8.341 18.63 18.63 18.63h36.816z" fill="#fff"/></g><g><path d="m286.594 113.065h91.776v13.15h-91.776z" fill="#fff"/></g><g><path d="m286.594 150.762h169.581v13.15h-169.581z" fill="#fff"/></g><g><path d="m286.594 188.459h169.581v13.15h-169.581z" fill="#fff"/></g><g><path d="m286.594 226.156h169.581v13.15h-169.581z" fill="#fff"/></g><g><path d="m286.594 263.853h169.581v13.15h-169.581z" fill="#fff"/></g><g><path d="m328.235 301.549h91.776v13.15h-91.776z" fill="#fff"/></g><g><path d="m445.905 334.932h-132.415v41.709h132.416c5.671 0 10.269-4.598 10.269-10.269v-21.172c-.001-5.671-4.598-10.268-10.27-10.268z" fill="#8757f3"/></g><g><path d="m318.604 366.372v-21.172c0-5.671 4.598-10.269 10.269-10.269h-32.011c-5.671 0-10.269 4.598-10.269 10.269v21.172c0 5.671 4.598 10.269 10.269 10.269h32.011c-5.671 0-10.269-4.598-10.269-10.269z" fill="#6a2bc2"/></g></g><g><path d="m130.97 287.77v93.794c0 51.801 71.91 93.795 71.91 93.795s71.91-41.993 71.91-93.795v-93.794z" fill="#fb3d80"/></g><g><path d="m209.094 414.396 50.699-50.699-18.863-18.863-36.249 36.249c-7.881 7.881-20.659 7.881-28.541 0-3.785-3.785-5.911-8.918-5.911-14.27v-79.043h-39.259v93.794c0 51.801 71.91 93.794 71.91 93.794s8.487-4.956 19.63-13.563c-3.895-3.009-8.113-6.464-12.407-10.311-10.914-9.777-11.371-26.726-1.009-37.088z" fill="#e21e69"/></g><g><g><path d="m193.041 409.791-33.718-33.719 15.292-15.292 18.426 18.425 40.959-40.959 15.292 15.293z" fill="#fff"/></g></g><g><path d="m201.586 221.146h51.099v60.222h-51.099z" fill="#fff"/></g><g><path d="m204.882 243.759v-22.613h-26.886c-7.805 0-14.133 6.327-14.133 14.133v46.09h88.82v-18.526h-28.719c-10.538-.001-19.082-8.545-19.082-19.084z" fill="#f5f0f0"/></g><g><g><path d="m202.881 483.362c-1.394 0-2.789-.364-4.036-1.092-3.098-1.809-75.877-44.951-75.877-100.706v-93.794c0-4.42 3.583-8.003 8.003-8.003h143.821c4.42 0 8.003 3.583 8.003 8.003v93.794c0 55.754-72.779 98.896-75.877 100.706-1.248.728-2.643 1.092-4.037 1.092zm-63.908-187.589v85.791c0 39.855 49.283 74.848 63.908 84.352 14.622-9.502 63.908-44.496 63.908-84.352v-85.791z" fill="#ff80b1"/></g></g></g></g></svg>