<?xml version="1.0" encoding="iso-8859-1"?>
<!-- Generator: Adobe Illustrator 19.0.0, SVG Export Plug-In . SVG Version: 6.00 Build 0)  -->
<svg version="1.1" id="Capa_1" xmlns="http://www.w3.org/2000/svg" xmlns:xlink="http://www.w3.org/1999/xlink" x="0px" y="0px"
	 viewBox="0 0 512 512" style="enable-background:new 0 0 512 512;" xml:space="preserve">
<circle style="fill:#FFAA20;" cx="256" cy="256" r="256"/>
<path style="fill:#FF8A00;" d="M506.427,309.303l-68.815-68.815c-6.064-6.703-13.285-12.167-21.305-16.015l-50.775-50.627
	c-11.378-12.783-27.607-20.79-45.633-20.79c-8.586,0-16.76,1.827-24.201,5.111l-28.753-28.654
	c-16.558-17.925-39.435-29.014-64.707-29.014c-50.535,0-91.501,44.331-91.501,99.017c0,6.696,0.618,13.235,1.788,19.557
	c-32.603,5.605-57.734,36.349-57.734,73.144l0,0c0,21.936,8.934,41.721,23.056,55.314L242.04,511.617
	c4.622,0.248,9.275,0.383,13.96,0.383C379.105,512,481.899,425.102,506.427,309.303z"/>
<path style="fill:#FFFFFF;" d="M388.766,218.155h-6.556c0-35.953-27.898-65.098-62.311-65.098c-11.99,0-23.183,3.546-32.687,9.676
	c-13.494-36.47-46.452-62.233-84.974-62.233c-50.535,0-91.501,44.331-91.501,99.017c0,6.696,0.618,13.235,1.789,19.557
	c-32.603,5.605-57.734,36.349-57.734,73.144l0,0c0,40.735,30.799,74.064,68.441,74.064h265.533
	c37.643,0,68.441-33.329,68.441-74.064l0,0C457.208,251.483,426.409,218.155,388.766,218.155z"/>
<path style="fill:#FFF5CA;" d="M457.21,292.22c0,40.73-30.8,74.06-68.44,74.06H256V119.39c13.84,10.9,24.75,25.9,31.21,43.34
	c9.51-6.13,20.7-9.67,32.69-9.67c34.41,0,62.31,29.14,62.31,65.09h6.56c18.82,0,35.93,8.33,48.33,21.76
	C449.51,253.33,457.21,271.85,457.21,292.22z"/>
<polygon style="fill:#00E0C1;" points="311.714,270.402 256,338.2 200.286,270.402 222.572,270.402 222.572,200.141 
	289.428,200.141 289.428,270.402 "/>
<polygon style="fill:#00AF95;" points="311.71,270.398 289.43,270.398 289.43,200.138 256,200.138 256,338.198 "/>
<g>
</g>
<g>
</g>
<g>
</g>
<g>
</g>
<g>
</g>
<g>
</g>
<g>
</g>
<g>
</g>
<g>
</g>
<g>
</g>
<g>
</g>
<g>
</g>
<g>
</g>
<g>
</g>
<g>
</g>
</svg>
