<svg id="Capa_1" enable-background="new 0 0 512 512" height="512" viewBox="0 0 512 512" width="512" xmlns="http://www.w3.org/2000/svg"><g><path d="m508.787 256.034c0 1.698 3.197 3.359 3.164 5.05-2.709 139.038-116.265 250.916-255.951 250.916-139.902 0-253.593-112.224-255.962-251.561-.025-1.477 5.263-2.957 5.263-4.439 0-1.641-5.285-3.279-5.254-4.913 2.618-139.118 116.21-251.087 255.953-251.087 139.665 0 253.207 111.844 255.949 250.852.029 1.47-3.141 3.127-3.136 4.603.001.243-.026.336-.026.579z" fill="#3342ae"/><path d="m442 256c0 102.725-83.275 186-186 186s-186-83.275-186-186 83.275-186 186-186 186 83.275 186 186z" fill="#3d4ec6"/><path d="m440 305c0 2.761-2.239 5-5 5s-5-2.239-5-5 2.239-5 5-5 5 2.239 5 5zm15-5c-2.761 0-5 2.239-5 5s2.239 5 5 5 5-2.239 5-5-2.239-5-5-5zm20 0c-2.761 0-5 2.239-5 5s2.239 5 5 5 5-2.239 5-5-2.239-5-5-5z" fill="#a6aee5"/><path d="m317.72 125.038-21.827 21.827c-.976.977-2.256 1.465-3.535 1.465s-2.56-.488-3.535-1.465c-1.953-1.952-1.953-5.118 0-7.07l13.006-13.007h-111.62c-2.762 0-5-2.238-5-5s2.238-5 5-5h112.19l-13.576-13.577c-1.953-1.952-1.953-5.118 0-7.07 1.951-1.953 5.119-1.953 7.07 0l21.827 21.827c1.953 1.952 1.953 5.118 0 7.07z" fill="#fff"/><path d="m512 256c0 1.67-.016 3.337-.048 5h-511.904c-.032-1.663-.048-3.33-.048-5s.016-3.337.048-5h511.904c.032 1.663.048 3.33.048 5z" fill="#8c96dd"/><path d="m480 256c0 2.761-2.239 5-5 5h-330c-2.761 0-5-2.239-5-5s2.239-5 5-5h330c2.761 0 5 2.239 5 5z" fill="#a6aee5"/><path d="m282 256c0 14.359-11.641 26-26 26s-26-11.641-26-26 11.641-26 26-26 26 11.641 26 26zm-196-26c-14.359 0-26 11.641-26 26s11.641 26 26 26 26-11.641 26-26-11.641-26-26-26zm340 0c-14.359 0-26 11.641-26 26s11.641 26 26 26 26-11.641 26-26-11.641-26-26-26z" fill="#c2eaf2"/><path d="m282 256c0 3.323-.624 6.5-1.76 9.421-2.921 1.136-6.098 1.76-9.421 1.76-14.359 0-26-11.641-26-26 0-3.323.624-6.5 1.76-9.421 2.921-1.136 6.098-1.76 9.421-1.76 14.359 0 26 11.641 26 26zm-196-26c-3.323 0-6.5.624-9.421 1.76-1.136 2.921-1.76 6.099-1.76 9.421 0 14.359 11.641 26 26 26 3.323 0 6.5-.624 9.421-1.76 1.136-2.921 1.76-6.099 1.76-9.421 0-14.359-11.641-26-26-26zm340 0c-3.323 0-6.5.624-9.421 1.76-1.136 2.921-1.76 6.099-1.76 9.421 0 14.359 11.641 26 26 26 3.323 0 6.5-.624 9.421-1.76 1.136-2.921 1.76-6.099 1.76-9.421 0-14.359-11.641-26-26-26z" fill="#def4f8"/><path d="m342 348.905v92.189c0 7.196-5.834 13.03-13.03 13.03h-145.94c-7.196 0-13.03-5.834-13.03-13.03v-92.189c0-7.196 5.834-13.03 13.03-13.03h49.544c.062-.15.136-.298.225-.442l20.643-33.685c1.17-1.91 3.945-1.91 5.116 0l20.643 33.685c.089.145.163.292.225.442h49.544c7.196 0 13.03 5.834 13.03 13.03z" fill="#44bfd7"/><path d="m342 348.905v92.189c0 7.196-5.834 13.03-13.03 13.03h-31.464c-29.669 0-54.618-22.251-58.002-51.727-.057-.499-.114-.998-.17-1.498-3.874-34.658 5.217-65.025 40.091-65.025h49.544c7.197.001 13.031 5.835 13.031 13.031z" fill="#7cd2e3"/><path d="m498.97 60.315h-145.94c-7.196 0-13.03 5.834-13.03 13.03v92.189c0 7.197 5.834 13.03 13.03 13.03h49.544c.062.15.136.298.225.443l20.643 33.685c1.17 1.91 3.945 1.91 5.116 0l20.643-33.685c.089-.145.163-.293.225-.443h49.544c7.196 0 13.03-5.833 13.03-13.03v-92.189c0-7.196-5.834-13.03-13.03-13.03zm-326.97 13.03c0-7.196-5.834-13.03-13.03-13.03h-145.94c-7.196 0-13.03 5.834-13.03 13.03v92.189c0 7.197 5.834 13.03 13.03 13.03h49.544c.062.15.136.298.225.443l20.643 33.685c1.17 1.91 3.945 1.91 5.116 0l20.643-33.685c.089-.145.163-.293.225-.443h49.544c7.196 0 13.03-5.833 13.03-13.03z" fill="#ff9f22"/><path d="m512 165.535v-92.19c0-7.196-5.834-13.03-13.03-13.03h-31.464c-29.669 0-54.618 22.252-58.002 51.727-.057.499-.114.998-.17 1.498-3.874 34.658 4.993 65.026 39.867 65.026h49.769c7.196-.001 13.03-5.835 13.03-13.031zm-340 0v-92.19c0-7.196-5.834-13.03-13.03-13.03h-31.464c-29.669 0-54.618 22.252-58.002 51.727-.057.499-.114.998-.17 1.498-3.874 34.658 5.217 65.026 40.091 65.026h49.544c7.197-.001 13.031-5.835 13.031-13.031z" fill="#ffb52d"/><path d="m245.841 418.614c0 2.761-2.239 5-5 5h-25.455c-2.761 0-5-2.239-5-5 0-2.762 2.239-5 5-5h25.455c2.761 0 5 2.238 5 5zm22.773-28h-53.227c-2.761 0-5 2.238-5 5 0 2.761 2.239 5 5 5h53.227c2.761 0 5-2.239 5-5 0-2.762-2.239-5-5-5zm-53.228-13h36.227c2.761 0 5-2.239 5-5 0-2.762-2.239-5-5-5h-36.227c-2.761 0-5 2.238-5 5 0 2.761 2.239 5 5 5z" fill="#a6e0ec"/><path d="m385.386 100.826h25.455c2.761 0 5-2.238 5-5 0-2.761-2.239-5-5-5h-25.455c-2.761 0-5 2.239-5 5 0 2.762 2.239 5 5 5zm53.228 13h-53.228c-2.761 0-5 2.239-5 5 0 2.762 2.239 5 5 5h53.228c2.761 0 5-2.238 5-5 0-2.761-2.239-5-5-5zm-17 23h-36.228c-2.761 0-5 2.239-5 5 0 2.762 2.239 5 5 5h36.228c2.761 0 5-2.238 5-5 0-2.761-2.239-5-5-5zm-376.228-36h25.455c2.761 0 5-2.238 5-5 0-2.761-2.239-5-5-5h-25.455c-2.761 0-5 2.239-5 5 0 2.762 2.239 5 5 5zm53.228 13h-53.228c-2.761 0-5 2.239-5 5 0 2.762 2.239 5 5 5h53.227c2.761 0 5-2.238 5-5 .001-2.761-2.238-5-4.999-5zm-17 23h-36.228c-2.761 0-5 2.239-5 5 0 2.762 2.239 5 5 5h36.227c2.761 0 5-2.238 5-5 .001-2.761-2.238-5-4.999-5z" fill="#ffde91"/></g></svg>