<svg id="Layer_1" enable-background="new 0 0 512 512" height="512" viewBox="0 0 512 512" width="512" xmlns="http://www.w3.org/2000/svg"><g><path d="m256 119.85v94.942l-13.073 27.393-28.135 13.815h-212.703c-1.834 0-2.771-2.194-1.514-3.523l126.559-132.627z" fill="#ffc107"/><path d="m256 119.85v94.943l-13.073 27.392-115.793-122.335z" fill="#ffa000"/><path d="m225.095 119.85v94.943l-2.714 5.686 20.546 21.706 13.073-27.392v-94.943z" fill="#ff8f00"/><path d="m392.15 127.134v128.866h-94.942l-27.135-13.32-14.073-27.887v-212.704c0-1.834 2.194-2.771 3.523-1.514z" fill="#ef5350"/><path d="m259.523.575c-1.329-1.257-3.523-.319-3.523 1.514v24.615l105.244 100.429v128.867h30.905v-128.866z" fill="#f44336"/><path d="m392.15 127.134v128.866h-94.942l-27.136-13.32z" fill="#d32f2f"/><path d="m361.244 156.386v99.614h30.906v-128.866z" fill="#c62828"/><path d="m256 297.208v212.703c0 1.834-2.194 2.771-3.523 1.514l-132.627-126.559v-128.866h94.942l27.135 13.32z" fill="#9ccc65"/><path d="m241.928 269.32-27.135-13.32h-30.905l27.135 13.32 14.072 27.887v188.088l27.382 26.129c1.329 1.257 3.523.32 3.523-1.514v-212.702z" fill="#8bc34a"/><path d="m241.928 269.32-122.078 115.546v-128.866h94.942z" fill="#4caf50"/><path d="m511.425 259.523-126.559 132.627h-128.866v-94.942l13.073-27.393 28.135-13.815h212.703c1.833 0 2.771 2.194 1.514 3.523z" fill="#2196f3"/><path d="m509.911 256h-30.905c1.834 0 2.771 2.194 1.514 3.523l-126.559 132.627h30.905l126.558-132.626c1.258-1.33.32-3.524-1.513-3.524z" fill="#1e88e5"/><path d="m384.866 392.15h-128.866v-94.942l13.073-27.393z" fill="#1976d2"/></g></svg>