<?xml version="1.0" encoding="iso-8859-1"?>
<!-- Generator: Adobe Illustrator 19.0.0, SVG Export Plug-In . SVG Version: 6.00 Build 0)  -->
<svg version="1.1" id="Capa_1" xmlns="http://www.w3.org/2000/svg" xmlns:xlink="http://www.w3.org/1999/xlink" x="0px" y="0px"
	 viewBox="0 0 512 512" style="enable-background:new 0 0 512 512;" xml:space="preserve">
<circle style="fill:#D6E1EA;" cx="256" cy="256" r="256"/>
<path style="fill:#A6CAFF;" d="M483.556,134.073c0.033,28.037-11.108,54.931-30.962,74.724l-89.662,89.662
	c-11.16,11.202-24.699,19.745-39.614,24.988c3.992-11.297,6.03-23.196,6.021-35.181c0-3.461-0.19-6.874-0.474-10.335
	c2.56-1.934,4.983-4.039,7.253-6.305l89.6-89.662c26.965-25.894,27.833-68.745,1.939-95.711s-68.745-27.833-95.711-1.939
	c-0.654,0.626-1.294,1.266-1.92,1.92l-89.671,89.609c-2.266,2.266-4.376,4.693-6.305,7.253
	c-22.438,29.919-16.375,72.363,13.549,94.805c11.724,8.794,25.984,13.544,40.642,13.54c1.043,0,2.086,0,3.081-0.095
	c-0.578,13.592-5.276,26.686-13.464,37.551c-50.148-4.959-89.818-44.634-94.767-94.782c-0.332-3.461-0.521-6.921-0.521-10.382
	c-0.038-28.023,11.108-54.903,30.962-74.676l89.662-89.662c41.268-41.259,108.169-41.249,149.428,0.019
	C472.415,79.218,483.541,106.069,483.556,134.073z"/>
<path style="fill:#FFFFFF;" d="M329.363,288.265c0.009,28.008-11.112,54.869-30.914,74.676l-89.662,89.662
	c-41.24,41.235-108.094,41.235-149.333,0l-0.047-0.047c-41.235-41.24-41.235-108.094,0-149.333l89.638-89.681
	c11.131-11.155,24.633-19.66,39.495-24.894c-3.954,11.273-5.973,23.135-5.973,35.081c0,3.461,0.19,6.921,0.521,10.382
	c-2.541,1.911-4.949,3.996-7.206,6.244l-89.662,89.6c-25.956,26.932-25.164,69.807,1.768,95.763
	c26.231,25.278,67.759,25.278,93.995,0l89.628-89.6c2.252-2.257,4.342-4.66,6.258-7.206c22.457-29.924,16.403-72.386-13.516-94.843
	c-11.71-8.789-25.951-13.544-40.59-13.563c-1.043,0-2.086,0-3.129,0.095c0.583-13.568,5.262-26.643,13.416-37.504
	c50.181,4.93,89.884,44.634,94.815,94.815C329.173,281.391,329.363,284.805,329.363,288.265z"/>
<g>
	<path style="fill:#2A457F;" d="M277.855,338.394c-0.308,0-0.621-0.014-0.929-0.047c-54.495-5.376-97.925-48.83-103.272-103.324
		c-0.384-3.977-0.569-7.671-0.569-11.307c-0.038-30.317,12.264-59.985,33.749-81.384l89.638-89.633
		C341.276,7.77,414.289,7.685,459.217,52.494c38.3,38.201,44.705,98.844,15.227,144.199c-2.854,4.39-8.728,5.627-13.118,2.783
		c-4.39-2.854-5.637-8.723-2.783-13.118c24.619-37.883,19.271-88.533-12.719-120.443c-37.532-37.428-98.508-37.343-135.941,0.18
		l-89.657,89.657c-17.944,17.877-28.212,42.638-28.179,67.949c0,3.039,0.156,6.135,0.479,9.481
		c4.286,43.662,37.864,78.848,80.792,85.589c3.48-5.632,5.95-11.771,7.32-18.214c-13.971-1.403-27.501-6.632-38.746-15.076
		c-16.498-12.373-27.183-30.436-30.099-50.854c-2.911-20.418,2.299-40.747,14.677-57.24c2.2-2.92,4.613-5.698,7.187-8.268
		l89.647-89.6c0.593-0.593,1.195-1.143,1.811-1.692c3.902-3.489,9.903-3.148,13.383,0.754c3.489,3.906,3.153,9.899-0.754,13.388
		c-0.337,0.303-0.683,0.602-1.014,0.943l-89.671,89.624c-1.948,1.948-3.778,4.049-5.438,6.253
		c-9.325,12.43-13.255,27.762-11.06,43.164c2.195,15.403,10.259,29.028,22.703,38.362c10.207,7.656,22.898,11.601,35.665,11.657
		c0.493,0,0.991-0.005,1.47-0.052c2.721-0.294,5.447,0.664,7.438,2.551c1.996,1.882,3.067,4.546,2.953,7.287
		c-0.664,15.583-5.978,30.402-15.365,42.852C283.624,337.01,280.813,338.394,277.855,338.394z"/>
	<path style="fill:#2A457F;" d="M323.319,332.942c-2.475,0-4.902-0.972-6.713-2.783c-2.574-2.584-3.447-6.419-2.228-9.856
		c3.646-10.316,5.485-21.087,5.476-32.014c0-2.849-0.137-5.883-0.441-9.576c-0.27-3.262,1.166-6.424,3.793-8.377
		c2.209-1.645,4.309-3.461,6.253-5.404l89.591-89.69c10.994-11.008,17.048-25.633,17.038-41.188
		c-0.009-15.559-6.078-30.18-17.086-41.173c-10.989-10.975-25.595-17.024-41.131-17.033c-0.019,0-0.038,0-0.052,0
		c-2.181,0-4.39,0.123-6.575,0.37c-5.201,0.555-9.894-3.167-10.472-8.372c-0.583-5.205,3.167-9.894,8.372-10.472
		c2.901-0.322,5.916-0.417,8.742-0.484c20.584,0.009,39.95,8.031,54.514,22.58c14.592,14.573,22.632,33.958,22.647,54.58
		c0.009,20.622-8.007,40.012-22.585,54.604l-89.586,89.69c-1.351,1.351-2.759,2.66-4.219,3.906c0.109,2.129,0.161,4.105,0.161,6.03
		c0.005,6.111-0.474,12.179-1.432,18.176c6.86-4.082,13.222-9.022,18.844-14.673l76.814-76.814c3.703-3.703,9.704-3.703,13.407,0
		c3.703,3.702,3.703,9.704,0,13.407l-76.8,76.8c-12.079,12.136-27.017,21.556-43.193,27.231
		C325.433,332.767,324.371,332.942,323.319,332.942z"/>
	<path style="fill:#2A457F;" d="M133.746,455.429c-19.565,0-39.144-7.372-54.163-22.149c-14.696-14.469-22.879-33.792-23.04-54.414
		c-0.161-20.622,7.713-40.069,22.182-54.765l90.458-90.453c1.313-1.308,2.674-2.579,4.077-3.793
		c-0.114-2.086-0.175-4.124-0.175-6.144c0-6.078,0.474-12.117,1.417-18.076c-6.822,4.068-13.146,8.979-18.745,14.583l-31.768,31.768
		c-3.698,3.702-9.704,3.702-13.407,0c-3.703-3.703-3.703-9.704,0-13.407l31.763-31.763c12.051-12.075,26.942-21.461,43.046-27.131
		c3.442-1.209,7.272-0.337,9.851,2.238c2.579,2.579,3.456,6.409,2.247,9.847c-3.608,10.287-5.438,21.035-5.438,31.943
		c0,3.025,0.156,6.125,0.479,9.472c0.318,3.285-1.095,6.5-3.731,8.481c-2.181,1.645-4.271,3.456-6.215,5.4l-90.34,90.34
		c-10.923,11.093-16.863,25.766-16.74,41.32c0.123,15.554,6.296,30.127,17.38,41.041c22.888,22.523,59.828,22.234,82.356-0.654
		l89.647-89.695c1.939-1.939,3.755-4.03,5.395-6.21c7.448-9.951,11.577-22.305,11.615-34.773
		c0.085-32.152-26.008-58.377-58.159-58.463c-0.74-0.005-1.489-0.009-2.242,0.057c-2.769,0.228-5.428-0.692-7.405-2.579
		c-1.977-1.887-3.048-4.537-2.93-7.272c0.668-15.545,5.959-30.341,15.308-42.785c1.986-2.645,5.205-4.068,8.5-3.745
		c15.346,1.493,30.004,5.983,43.563,13.336c4.608,2.498,6.315,8.254,3.816,12.857c-2.498,4.603-8.254,6.31-12.852,3.816
		c-9.695-5.257-20.058-8.761-30.886-10.439c-3.465,5.623-5.921,11.757-7.286,18.181c39.087,3.911,69.637,37.035,69.537,77.089
		c-0.047,16.517-5.523,32.891-15.417,46.108c-2.181,2.897-4.575,5.66-7.135,8.225l-89.605,89.647
		C173.649,447.758,153.704,455.424,133.746,455.429z"/>
	<path style="fill:#2A457F;" d="M137.572,492.942c-5.101,0-9.311-4.049-9.472-9.188c-0.161-5.234,3.949-9.609,9.183-9.775
		c24.486-0.759,47.493-10.738,64.787-28.084l89.662-89.657c18.148-18.148,28.141-42.283,28.132-67.959
		c0-2.844-0.137-5.879-0.441-9.572c-1.825-18.968-9.263-36.878-21.509-51.655c-3.342-4.034-2.783-10.008,1.252-13.35
		c4.049-3.342,10.012-2.778,13.35,1.252c14.677,17.711,23.599,39.177,25.794,62.075c0.351,4.352,0.512,7.879,0.512,11.24
		c0.009,30.739-11.951,59.639-33.683,81.37l-89.647,89.647c-20.708,20.779-48.28,32.725-77.615,33.64
		C137.771,492.942,137.671,492.942,137.572,492.942z"/>
	<path style="fill:#2A457F;" d="M90.164,483.461c-1.318,0-2.66-0.275-3.94-0.863c-12.516-5.722-23.784-13.568-33.493-23.315
		c-44.9-44.814-44.966-117.755-0.18-162.631l29.582-29.625c3.698-3.712,9.704-3.703,13.407-0.009
		c3.707,3.698,3.712,9.704,0.009,13.407l-29.44,29.487c-37.532,37.613-37.476,98.522-0.009,135.927
		c8.168,8.197,17.569,14.739,28.013,19.518c4.76,2.176,6.855,7.803,4.679,12.563C97.195,481.408,93.758,483.461,90.164,483.461z"/>
</g>
<g>
</g>
<g>
</g>
<g>
</g>
<g>
</g>
<g>
</g>
<g>
</g>
<g>
</g>
<g>
</g>
<g>
</g>
<g>
</g>
<g>
</g>
<g>
</g>
<g>
</g>
<g>
</g>
<g>
</g>
</svg>
