<svg id="Layer_1" enable-background="new 0 0 512 512" height="512" viewBox="0 0 512 512" width="512" xmlns="http://www.w3.org/2000/svg"><g clip-rule="evenodd" fill-rule="evenodd"><circle cx="256" cy="256" fill="#8ee26b" r="256"/><path d="m512 256c0-21.935-2.777-43.234-7.991-63.566l-92.222-92.222c-3.309-3.309-7.88-5.356-12.929-5.356h-285.714c-10.1 0-18.286 8.188-18.286 18.286v63.138c0 5.049 2.047 9.62 5.356 12.93l48.503 48.503h-35.573c-10.1 0-18.286 8.188-18.286 18.286 0 5.055 2.052 9.632 5.368 12.941l111.63 111.63h-28.056l-56.9-56.899c-3.351-3.824-8.271-6.24-13.756-6.24-10.1 0-18.286 8.188-18.286 18.286v63.138c0 5.049 2.047 9.621 5.356 12.93l92.222 92.222c20.331 5.216 41.629 7.993 63.564 7.993 141.159 0 256-114.841 256-256z" fill="#00da80"/><g fill="#fff"><path d="m94.857 256c0 10.098 8.187 18.285 18.286 18.285h111.468l-9.912 9.912c-7.142 7.14-7.142 18.719 0 25.86 3.57 3.57 8.25 5.355 12.929 5.355s9.359-1.785 12.929-5.357l41.127-41.128c7.142-7.14 7.142-18.719 0-25.859l-41.127-41.126c-7.138-7.141-18.717-7.141-25.859 0-7.142 7.142-7.142 18.719 0 25.86l9.912 9.912h-111.467c-10.1 0-18.286 8.188-18.286 18.286z"/><path d="m417.143 113.143v285.714c0 10.098-8.186 18.286-18.285 18.286h-285.714c-10.1 0-18.286-8.187-18.286-18.285v-63.138c0-10.098 8.187-18.286 18.286-18.286s18.285 8.188 18.285 18.286v44.853h249.143v-249.145h-249.143v44.853c0 10.099-8.186 18.286-18.285 18.286-10.1 0-18.286-8.188-18.286-18.286v-63.138c0-10.098 8.187-18.286 18.286-18.286h285.714c10.099 0 18.285 8.188 18.285 18.286z"/></g></g></svg>