<svg id="Capa_1" enable-background="new 0 0 512 512" height="512" viewBox="0 0 512 512" width="512" xmlns="http://www.w3.org/2000/svg"><g><g><path d="m497 512h-482c-8.284 0-15-6.716-15-15v-282c0-4.462 1.987-8.693 5.421-11.543l241-200c5.556-4.609 13.604-4.609 19.158 0l241 200c3.435 2.85 5.421 7.081 5.421 11.543v282c0 8.284-6.716 15-15 15z" fill="#bedce6"/></g><path d="m506.579 203.457-241-200c-2.777-2.305-6.178-3.457-9.579-3.457v512h241c8.284 0 15-6.716 15-15v-282c0-4.463-1.986-8.694-5.421-11.543z" fill="#a0bfc8"/><g><g><path d="m161 183.908 84.91 77.191c5.72 5.201 14.458 5.202 20.18 0l84.91-77.191v188.092h75v-267c0-8.284-6.716-15-15-15h-79.645c-3.979 0-7.794 1.581-10.606 4.394l-64.749 64.748-64.749-64.749c-2.813-2.813-6.628-4.393-10.606-4.393h-79.645c-8.284 0-15 6.716-15 15v267h75z" fill="#ff6446"/></g></g><path d="m266.09 261.099 84.91-77.191v188.092h75v-267c0-8.284-6.716-15-15-15h-79.645c-3.979 0-7.794 1.581-10.606 4.394l-64.749 64.748v105.858c3.615 0 7.229-1.3 10.09-3.901z" fill="#ff320a"/><g><path d="m497 512h-482c-8.284 0-15-6.716-15-15v-282c0-5.448 2.954-10.467 7.716-13.113 4.764-2.646 10.584-2.5 15.21.378l233.074 145.067 233.074-145.067c4.624-2.879 10.446-3.023 15.21-.378 4.762 2.646 7.716 7.665 7.716 13.113v282c0 8.284-6.716 15-15 15z" fill="#dcf5fa"/></g><path d="m504.284 201.887c-4.764-2.645-10.586-2.501-15.21.378l-233.074 145.067v164.668h241c8.284 0 15-6.716 15-15v-282c0-5.448-2.954-10.467-7.716-13.113z" fill="#bedce6"/></g></svg>