<svg id="Layer_1" enable-background="new 0 0 128 128" height="512" viewBox="0 0 128 128" width="512" xmlns="http://www.w3.org/2000/svg"><g><path d="m122.711 97.243h-6.132v-84.997c0-2.757-2.243-5-5-5h-32.157c-2.757 0-5 2.243-5 5v50.416h-16.844v-50.416c0-2.757-2.243-5-5-5h-32.157c-2.757 0-5 2.243-5 5v84.997h-6.132c-.553 0-1 .447-1 1s.447 1 1 1h22.065v18.512c0 3.859 3.141 7 7 7h55.291c3.859 0 7-3.141 7-7v-18.512h22.065c.553 0 1-.447 1-1s-.446-1-.999-1zm-48.289-23.609h-16.844v-3.877c.177-.403.577-.687 1.045-.687h14.754c.467 0 .868.284 1.045.687z" fill="#e6e7e8"/><g><g><g><g><g><path d="m28.355 86.161c-.864-.925-1.355-2.139-1.355-3.407v-8.12c0-2.209 1.791-4 4-4h17.071v-5.972c0-2.593 1.98-4.699 4.507-4.95v-51.466c0-2.209-1.791-4-4-4h-32.157c-2.209 0-4 1.791-4 4v85.997h15.933v-8.082z" fill="#fa759e"/></g><g fill="#ffd7e5"><g><path d="m27.31 22.548h-6.544c-.505 0-.914-.409-.914-.914v-6.544c0-.505.409-.914.914-.914h6.544c.505 0 .914.409.914.914v6.544c0 .505-.409.914-.914.914z"/><path d="m44.233 22.548h-6.543c-.505 0-.914-.409-.914-.914v-6.544c0-.505.409-.914.914-.914h6.544c.505 0 .914.409.914.914v6.544c-.001.505-.41.914-.915.914z"/></g><g><path d="m27.31 40.824h-6.544c-.505 0-.914-.409-.914-.914v-6.544c0-.505.409-.914.914-.914h6.544c.505 0 .914.409.914.914v6.544c0 .505-.409.914-.914.914z"/><path d="m44.233 40.824h-6.543c-.505 0-.914-.409-.914-.914v-6.544c0-.505.409-.914.914-.914h6.544c.505 0 .914.409.914.914v6.544c-.001.505-.41.914-.915.914z"/></g><g><path d="m27.31 59.1h-6.544c-.505 0-.914-.409-.914-.914v-6.544c0-.505.409-.914.914-.914h6.544c.505 0 .914.409.914.914v6.544c0 .504-.409.914-.914.914z"/><path d="m44.233 59.1h-6.543c-.505 0-.914-.409-.914-.914v-6.544c0-.505.409-.914.914-.914h6.544c.505 0 .914.409.914.914v6.544c-.001.504-.41.914-.915.914z"/></g></g></g></g><g><g><g><path d="m107.579 4.246h-32.158c-2.209 0-4 1.791-4 4v51.466c2.526.251 4.507 2.358 4.507 4.95v5.972h17.072c2.209 0 4 1.791 4 4v8.196c0 1.264-.478 2.48-1.339 3.405l-.016.017v7.991h15.933v-85.997c.001-2.209-1.79-4-3.999-4z" fill="#fa759e"/></g><g fill="#ffd7e5"><g><path d="m86.31 22.548h-6.544c-.505 0-.914-.409-.914-.914v-6.544c0-.505.409-.914.914-.914h6.544c.505 0 .914.409.914.914v6.544c0 .505-.409.914-.914.914z"/><path d="m103.234 22.548h-6.544c-.505 0-.914-.409-.914-.914v-6.544c0-.505.409-.914.914-.914h6.544c.505 0 .914.409.914.914v6.544c0 .505-.409.914-.914.914z"/></g><g><path d="m86.31 40.824h-6.544c-.505 0-.914-.409-.914-.914v-6.544c0-.505.409-.914.914-.914h6.544c.505 0 .914.409.914.914v6.544c0 .505-.409.914-.914.914z"/><path d="m103.234 40.824h-6.544c-.505 0-.914-.409-.914-.914v-6.544c0-.505.409-.914.914-.914h6.544c.505 0 .914.409.914.914v6.544c0 .505-.409.914-.914.914z"/></g><g><path d="m86.31 59.1h-6.544c-.505 0-.914-.409-.914-.914v-6.544c0-.505.409-.914.914-.914h6.544c.505 0 .914.409.914.914v6.544c0 .504-.409.914-.914.914z"/><path d="m103.234 59.1h-6.544c-.505 0-.914-.409-.914-.914v-6.544c0-.505.409-.914.914-.914h6.544c.505 0 .914.409.914.914v6.544c0 .504-.409.914-.914.914z"/></g></g></g></g></g><g><path d="m52.48 70.634v-4.42c0-1.183.959-2.143 2.143-2.143h14.754c1.183 0 2.143.959 2.143 2.143v4.42h4.409v-5.972c0-2.761-2.239-5-5-5h-17.858c-2.761 0-5 2.239-5 5v5.972z" fill="#d4fbff"/><path d="m84.682 98.038c-.946 1.017-2.272 1.595-3.661 1.595h-37.377c-1.343 0-2.63-.541-3.571-1.5l-11.644-11.879c-.028-.029-.047-.064-.075-.093v27.594c0 3.314 2.686 6 6 6h55.291c3.314 0 6-2.686 6-6v-27.503z" fill="#0089ef"/><path d="m28.355 106.059v3.043c5.874 0 10.652 4.778 10.652 10.652h3.043c0-7.551-6.144-13.695-13.695-13.695z" fill="#6dc9f7"/><path d="m95.645 109.103v-3.043c-7.552 0-13.696 6.144-13.696 13.696h3.043c.001-5.875 4.78-10.653 10.653-10.653z" fill="#6dc9f7"/><path d="m27 82.754v-8.12c0-2.209 1.791-4 4-4h62c2.209 0 4 1.791 4 4v8.196c0 1.264-.478 2.48-1.339 3.405l-10.979 11.803c-.946 1.017-2.272 1.595-3.661 1.595h-37.377c-1.343 0-2.63-.541-3.571-1.5l-11.644-11.879c-.916-.935-1.429-2.192-1.429-3.5z" fill="#6dc9f7"/><g fill="#d4fbff"><path d="m90.913 78.572v-7.938h-3.043v7.938c0 .465-.174.908-.49 1.248l-8.909 9.577c-.345.371-.833.584-1.341.584h-29.73c-.489 0-.967-.2-1.309-.549l-9.437-9.629c-.337-.344-.523-.799-.523-1.282v-7.887h-3.043v7.887c0 1.285.495 2.497 1.394 3.413l9.437 9.629c.912.929 2.18 1.462 3.482 1.462h29.73c1.351 0 2.652-.567 3.57-1.554l8.909-9.577c.839-.907 1.303-2.086 1.303-3.322z"/><path d="m67.143 103.198h-9.571c-1.105 0-2-.895-2-2v-3.131c0-1.105.895-2 2-2h9.571c1.105 0 2 .895 2 2v3.131c0 1.105-.895 2-2 2z"/><path d="m67.143 103.198h-9.571c-1.105 0-2-.895-2-2v-3.131c0-1.105.895-2 2-2h9.571c1.105 0 2 .895 2 2v3.131c0 1.105-.895 2-2 2z"/></g><path d="m67.143 96.067h-9.571c-1.105 0-2 .895-2 2v2.02c0-.888.72-1.608 1.608-1.608h10.355c.888 0 1.608.72 1.608 1.608v-2.02c0-1.104-.895-2-2-2z" fill="#fff"/></g><g fill="#3a2c60"><path d="m20.767 23.548h6.544c1.055 0 1.913-.858 1.913-1.914v-6.544c0-1.056-.858-1.914-1.913-1.914h-6.544c-1.056 0-1.914.858-1.914 1.914v6.544c0 1.056.858 1.914 1.914 1.914zm.086-8.372h6.371v6.372h-6.371z"/><path d="m37.689 23.548h6.544c1.056 0 1.914-.858 1.914-1.914v-6.544c0-1.056-.858-1.914-1.914-1.914h-6.544c-1.056 0-1.914.858-1.914 1.914v6.544c0 1.056.859 1.914 1.914 1.914zm.086-8.372h6.372v6.372h-6.372z"/><path d="m20.767 41.824h6.544c1.055 0 1.913-.858 1.913-1.914v-6.544c0-1.056-.858-1.914-1.913-1.914h-6.544c-1.056 0-1.914.858-1.914 1.914v6.544c0 1.055.858 1.914 1.914 1.914zm.086-8.372h6.371v6.372h-6.371z"/><path d="m37.689 41.824h6.544c1.056 0 1.914-.858 1.914-1.914v-6.544c0-1.056-.858-1.914-1.914-1.914h-6.544c-1.056 0-1.914.858-1.914 1.914v6.544c0 1.055.859 1.914 1.914 1.914zm.086-8.372h6.372v6.372h-6.372z"/><path d="m29.224 58.186v-6.544c0-1.056-.858-1.914-1.913-1.914h-6.544c-1.056 0-1.914.858-1.914 1.914v6.544c0 1.056.858 1.914 1.914 1.914h6.544c1.054 0 1.913-.858 1.913-1.914zm-2-.086h-6.371v-6.372h6.371z"/><path d="m37.689 60.1h6.544c1.056 0 1.914-.858 1.914-1.914v-6.544c0-1.056-.858-1.914-1.914-1.914h-6.544c-1.056 0-1.914.858-1.914 1.914v6.544c0 1.056.859 1.914 1.914 1.914zm.086-8.372h6.372v6.372h-6.372z"/><path d="m86.311 13.176h-6.544c-1.056 0-1.914.858-1.914 1.914v6.544c0 1.056.858 1.914 1.914 1.914h6.544c1.056 0 1.914-.858 1.914-1.914v-6.544c0-1.055-.859-1.914-1.914-1.914zm-.086 8.372h-6.372v-6.372h6.372z"/><path d="m103.233 13.176h-6.544c-1.055 0-1.913.858-1.913 1.914v6.544c0 1.056.858 1.914 1.913 1.914h6.544c1.056 0 1.914-.858 1.914-1.914v-6.544c0-1.055-.858-1.914-1.914-1.914zm-.086 8.372h-6.371v-6.372h6.371z"/><path d="m86.311 31.452h-6.544c-1.056 0-1.914.858-1.914 1.914v6.544c0 1.056.858 1.914 1.914 1.914h6.544c1.056 0 1.914-.858 1.914-1.914v-6.544c0-1.056-.859-1.914-1.914-1.914zm-.086 8.372h-6.372v-6.372h6.372z"/><path d="m103.233 31.452h-6.544c-1.055 0-1.913.858-1.913 1.914v6.544c0 1.056.858 1.914 1.913 1.914h6.544c1.056 0 1.914-.858 1.914-1.914v-6.544c0-1.056-.858-1.914-1.914-1.914zm-.086 8.372h-6.371v-6.372h6.371z"/><path d="m86.311 49.728h-6.544c-1.056 0-1.914.858-1.914 1.914v6.544c0 1.056.858 1.914 1.914 1.914h6.544c1.056 0 1.914-.858 1.914-1.914v-6.544c0-1.056-.859-1.914-1.914-1.914zm-.086 8.372h-6.372v-6.372h6.372z"/><path d="m103.233 49.728h-6.544c-1.055 0-1.913.858-1.913 1.914v6.544c0 1.056.858 1.914 1.913 1.914h6.544c1.056 0 1.914-.858 1.914-1.914v-6.544c0-1.056-.858-1.914-1.914-1.914zm-.086 8.372h-6.371v-6.372h6.371z"/><path d="m66.159 118.754h-7.405c-.553 0-1 .447-1 1s.447 1 1 1h7.405c.553 0 1-.447 1-1s-.447-1-1-1z"/><path d="m118.711 93.243h-6.132v-84.997c0-2.757-2.243-5-5-5h-32.157c-2.757 0-5 2.243-5 5v50.416h-16.844v-50.416c0-2.757-2.243-5-5-5h-32.157c-2.757 0-5 2.243-5 5v84.997h-6.132c-.553 0-1 .447-1 1s.447 1 1 1h22.065v18.512c0 3.859 3.141 7 7 7h20.457c.553 0 1-.447 1-1s-.447-1-1-1h-20.457c-2.757 0-5-2.243-5-5v-25.13l10.005 10.207c1.12 1.144 2.682 1.8 4.284 1.8h10.928v.566c0 1.654 1.346 3 3 3h9.571c1.654 0 3-1.346 3-3v-.566h10.878c1.662 0 3.263-.697 4.394-1.913l9.231-9.924v24.96c0 2.757-2.243 5-5 5h-19.416c-.553 0-1 .447-1 1s.447 1 1 1h19.417c3.859 0 7-3.141 7-7v-18.512h22.065c.553 0 1-.447 1-1s-.447-1-1-1zm-65.133-27.485c.177-.403.577-.687 1.045-.687h14.754c.467 0 .868.284 1.045.687v3.877h-16.844zm21.351 3.876h-2.409v-3.421c0-1.732-1.41-3.143-3.143-3.143h-14.754c-1.732 0-3.143 1.41-3.143 3.143v3.421h-2.409v-4.973c0-2.206 1.794-4 4-4h17.857c2.206 0 4 1.794 4 4v4.973zm-61.508 23.609v-84.997c0-1.654 1.346-3 3-3h32.157c1.654 0 3 1.346 3 3v50.612c-2.587.666-4.507 3.012-4.507 5.804v4.973h-16.071c-2.757 0-5 2.243-5 5v8.119c0 1.399.479 2.726 1.354 3.795v6.695h-13.933zm54.722 7.956c0 .552-.448 1-1 1h-9.571c-.552 0-1-.448-1-1v-3.132c0-.552.448-1 1-1h9.571c.552 0 1 .448 1 1zm15.806-3.841c-.753.81-1.82 1.274-2.929 1.274h-10.877v-.565c0-1.654-1.346-3-3-3h-9.571c-1.654 0-3 1.346-3 3v.565h-10.928c-1.068 0-2.109-.438-2.856-1.2l-11.644-11.879c-.738-.752-1.144-1.746-1.144-2.8v-8.119c0-1.654 1.346-3 3-3h62c1.654 0 3 1.346 3 3v8.195c0 1.015-.38 1.981-1.071 2.725zm12.696-4.115v-6.655c.863-1.065 1.355-2.376 1.355-3.758v-8.195c0-2.757-2.243-5-5-5h-16.071v-4.973c0-2.792-1.92-5.138-4.507-5.804v-50.612c0-1.654 1.346-3 3-3h32.157c1.654 0 3 1.346 3 3v84.997z"/></g></g></g></svg>