<svg id="Capa_1" enable-background="new 0 0 512 512" height="512" viewBox="0 0 512 512" width="512" xmlns="http://www.w3.org/2000/svg"><g><g><path d="m437 512h-105l-95-40-97 40h-65c-41.355 0-75-33.645-75-75v-202c0-41.355 33.645-75 75-75h227l12 13 18-13h105c41.355 0 75 33.645 75 75v57l-40 58 40 52v35c0 41.355-33.645 75-75 75z" fill="#d0ec8b"/></g><g><path d="m512 235c0-41.355-33.645-75-75-75h-105l-18 13-12-13h-46v320l76 32h105c41.355 0 75-33.645 75-75v-35l-40-52 40-58z" fill="#8ee26b"/></g><g><path d="m302 160h30v147h-30z" fill="#e2dff4"/></g><g><path d="m302 512h-162v-100l177-15z" fill="#8cbcff"/></g><g><path d="m317 397-61 5.169v109.831h46z" fill="#7c84e8"/></g><g><path d="m512 402h-115c-8.284 0-15-6.716-15-15v-72l130 7z" fill="#7c84e8"/></g><g><path d="m165 270h-75v112h227c8.284 0 15 6.716 15 15v115h-30v-100h-227c-8.284 0-15-6.716-15-15v-142c0-8.284 6.716-15 15-15h90z" fill="#fff5f5"/></g><g><path d="m317 382h-61v30h46v100h30v-115c0-8.284-6.716-15-15-15z" fill="#e2dff4"/></g><g><path d="m202 397v-90c0-8.284 6.716-15 15-15h295v30h-280v75z" fill="#fff5f5"/></g><g><path d="m256 292h256v30h-256z" fill="#e2dff4"/></g><g><path d="m165 270c-3.562 0-7.124-1.263-9.966-3.789-3.88-3.449-95.034-85.347-95.034-161.211 0-57.897 47.103-105 105-105s105 47.103 105 105c0 75.864-91.154 157.762-95.034 161.211-2.842 2.526-6.404 3.789-9.966 3.789z" fill="#ff7c48"/></g><g><path d="m165 0v270c3.562 0 7.124-1.263 9.966-3.789 3.88-3.449 95.034-85.347 95.034-161.211 0-57.897-47.103-105-105-105z" fill="#ff1f3d"/></g><g><path d="m165 150c-24.813 0-45-20.187-45-45s20.187-45 45-45 45 20.187 45 45-20.187 45-45 45z" fill="#fff5f5"/></g><g><path d="m165 60v90c24.813 0 45-20.187 45-45s-20.187-45-45-45z" fill="#e2dff4"/></g></g></svg>