<svg id="Layer_1" enable-background="new 0 0 500 500" height="512" viewBox="0 0 500 500" width="512" xmlns="http://www.w3.org/2000/svg"><g id="XMLID_2616_"><g id="XMLID_2615_"><circle cx="250" cy="250" fill="#4287c5" r="250"/></g><g id="XMLID_1377_"><g id="XMLID_51_"><g id="XMLID_1354_"><g id="XMLID_2933_"><g id="XMLID_1353_"><g id="XMLID_2934_"><path d="m336.957 72.226c.003-10.411-8.422-18.853-18.815-18.853l-219.896-.006c-10.39 0-18.814 8.435-18.816 18.844l-.095 360.521h257.527z" fill="#f5f5f5"/></g><g id="XMLID_2943_"><path d="m318.142 53.372-219.896-.005c-.003 0-.005 0-.008 0l200.72.004c10.394 0 18.818 8.442 18.815 18.853l-.095 360.507h19.184l.095-360.507c.003-10.41-8.422-18.852-18.815-18.852z" fill="#eee"/></g></g><g id="XMLID_2593_"><g id="XMLID_2935_"><path d="m79.335 432.732-.009 33.414c-.003 10.412 8.422 18.854 18.816 18.854h219.895c10.39 0 18.813-8.436 18.816-18.844l.009-33.424z" fill="#205081"/></g><g id="XMLID_2595_"><path d="m317.678 432.732-.009 33.424c-.002 10.408-8.426 18.844-18.815 18.844h19.184c10.39 0 18.813-8.436 18.816-18.844l.009-33.424z" fill="#1c3b5c"/></g></g></g><g id="XMLID_1347_"><g id="XMLID_2967_"><g id="XMLID_1349_"><path d="m208.133 96.396c13.444 0 24.343-10.899 24.343-24.343v-18.683h-48.686v18.683c0 13.444 10.899 24.343 24.343 24.343z" fill="#205081"/></g><g id="XMLID_2969_"><path d="m213.292 53.37v18.683c0 10.038-6.077 18.654-14.751 22.378 2.944 1.263 6.185 1.965 9.592 1.965 13.444 0 24.343-10.899 24.343-24.343v-18.683z" fill="#1c3b5c"/></g></g><g id="XMLID_1348_"><ellipse cx="208.133" cy="73.841" fill="#fff" rx="7.253" ry="7.29"/></g></g><g id="XMLID_1346_"><path d="m220.833 463.646h-25.401c-2.761 0-5-2.238-5-5s2.239-5 5-5h25.401c2.761 0 5 2.238 5 5s-2.238 5-5 5z" fill="#fff"/></g></g><g id="XMLID_1274_"><g id="XMLID_1277_"><g id="XMLID_1308_"><g id="XMLID_2734_"><g id="XMLID_1321_"><path d="m396.333 105.79 67.184 97.218-170.96 8.239z" fill="#dee0e5"/></g><g id="XMLID_2950_"><path d="m463.517 203.008-67.184-97.218-11.269 11.453 59.27 85.765z" fill="#c4cacd"/></g></g><g id="XMLID_2687_"><g id="XMLID_1320_"><path d="m308.721 105.79 81.611 97.218h-163.222z" fill="#dee0e5"/></g><g id="XMLID_2729_"><path d="m308.721 105.79-9.592 11.427 72.02 85.791h19.183z" fill="#c4cacd"/></g></g><g id="XMLID_1309_"><g id="XMLID_1969_"><g id="XMLID_1319_"><path d="m259.363 214.794c-21.963 10.247-48.119.8-58.307-21.058s-.608-47.977 21.356-58.224 48.119-.8 58.307 21.058c10.187 21.858.607 47.977-21.356 58.224z" fill="#ffc42e"/></g><g id="XMLID_1994_"><path d="m280.719 156.57c-10.188-21.858-36.344-31.305-58.307-21.058-8.103 3.78-14.514 9.725-18.875 16.815 1.434-.882 2.925-1.699 4.487-2.428 21.963-10.247 48.119-.8 58.307 21.058 6.429 13.794 4.979 29.281-2.481 41.409 18.731-11.52 26.332-35.492 16.869-55.796z" fill="#f4b42e"/></g></g><g id="XMLID_1316_"><g id="XMLID_1318_"><path d="m241.376 170.616c-5.726.273-7.033-.411-7.796-2.049-.708-1.52-.36-3.659 2.741-5.105 2.707-1.263 5.349-1.267 8.235-1.038l-.48-6.765c-2.679-.391-5.351-.12-7.922.748l-2.352-5.047-5.867 2.737 2.519 5.404c-4.021 3.291-5.642 8.359-3.519 12.915 2.62 5.621 8.251 6.055 13.952 5.679 5.263-.287 6.627 1.07 7.329 2.576 1.047 2.247-.213 4.674-3.128 6.034-3.069 1.432-6.171 1.376-9.427.892l.608 6.818c3.073.78 6.359.318 9.322-.735l2.556 5.483 5.867-2.737-2.705-5.803c4.649-3.646 5.885-8.843 3.69-13.552-2.882-6.18-8.768-6.71-13.623-6.455z" fill="#fff"/></g></g></g></g><g id="XMLID_2952_"><g id="XMLID_1303_"><path d="m175.456 201.824v179.029c0 7.01 5.68 12.693 12.686 12.693h284.172c7.006 0 12.686-5.683 12.686-12.693v-179.029c0-7.01-5.68-12.693-12.686-12.693h-284.172c-7.006 0-12.686 5.683-12.686 12.693z" fill="#ff576b"/></g><g id="XMLID_2954_"><path d="m472.314 189.131h-19.184c7.006 0 12.686 5.683 12.686 12.693v179.029c0 7.01-5.68 12.693-12.686 12.693h19.184c7.006 0 12.686-5.683 12.686-12.693v-179.029c0-7.01-5.68-12.693-12.686-12.693z" fill="#e64e60"/></g></g><g id="XMLID_1278_"><g id="XMLID_2948_"><g id="XMLID_1281_"><path d="m427.729 330.705h57.271v-78.956h-57.271c-21.803 0-39.478 17.675-39.478 39.478 0 21.803 17.675 39.478 39.478 39.478z" fill="#dee0e5"/></g><g id="XMLID_2951_"><path d="m465.816 251.749h19.184v78.956h-19.184z" fill="#c4cacd"/></g></g><g id="XMLID_2947_"><g id="XMLID_1279_"><path d="m424.118 304.108c-7.039 0-12.764-5.778-12.764-12.881s5.726-12.881 12.764-12.881 12.767 5.778 12.767 12.881-5.728 12.881-12.767 12.881z" fill="#ff576b"/></g><g id="XMLID_2949_"><path d="m436.885 291.227c0-7.103-5.729-12.881-12.767-12.881-6.027 0-11.079 4.242-12.41 9.919.908-.207 1.849-.327 2.818-.327 7.039 0 12.767 5.779 12.767 12.881 0 1.021-.131 2.009-.354 2.962 5.685-1.302 9.946-6.431 9.946-12.554z" fill="#e64e60"/></g></g></g></g><g id="XMLID_1276_"><g id="XMLID_2752_"><path d="m279.411 223.048h-34.531c-2.649 0-4.796 2.147-4.796 4.796s2.147 4.796 4.796 4.796h34.531c2.649 0 4.796-2.147 4.796-4.796s-2.147-4.796-4.796-4.796z" fill="#fff"/></g><g id="XMLID_2792_"><path d="m210.35 223.048h-34.531v9.592h34.531c2.649 0 4.796-2.147 4.796-4.796s-2.148-4.796-4.796-4.796z" fill="#fff"/></g><g id="XMLID_2701_"><path d="m452.064 223.048c-2.649 0-4.796 2.147-4.796 4.796s2.147 4.796 4.796 4.796h32.572v-9.592z" fill="#fff"/></g><g id="XMLID_2794_"><path d="m348.472 223.048h-34.531c-2.649 0-4.796 2.147-4.796 4.796s2.147 4.796 4.796 4.796h34.531c2.649 0 4.796-2.147 4.796-4.796s-2.147-4.796-4.796-4.796z" fill="#fff"/></g><g id="XMLID_2804_"><path d="m417.534 223.048h-34.531c-2.649 0-4.796 2.147-4.796 4.796s2.147 4.796 4.796 4.796h34.531c2.649 0 4.796-2.147 4.796-4.796-.001-2.649-2.148-4.796-4.796-4.796z" fill="#fff"/></g></g><g id="XMLID_1351_"><g id="XMLID_2728_"><path d="m210.35 357.768h-34.531v9.592h34.531c2.649 0 4.796-2.147 4.796-4.796s-2.148-4.796-4.796-4.796z" fill="#fff"/></g><g id="XMLID_2736_"><path d="m348.472 357.768h-34.531c-2.649 0-4.796 2.147-4.796 4.796s2.147 4.796 4.796 4.796h34.531c2.649 0 4.796-2.147 4.796-4.796s-2.147-4.796-4.796-4.796z" fill="#fff"/></g><g id="XMLID_2739_"><path d="m279.411 357.768h-34.531c-2.649 0-4.796 2.147-4.796 4.796s2.147 4.796 4.796 4.796h34.531c2.649 0 4.796-2.147 4.796-4.796s-2.147-4.796-4.796-4.796z" fill="#fff"/></g><g id="XMLID_2740_"><path d="m417.534 357.768h-34.531c-2.649 0-4.796 2.147-4.796 4.796s2.147 4.796 4.796 4.796h34.531c2.649 0 4.796-2.147 4.796-4.796-.001-2.649-2.148-4.796-4.796-4.796z" fill="#fff"/></g><g id="XMLID_2709_"><path d="m452.064 357.768c-2.649 0-4.796 2.147-4.796 4.796s2.147 4.796 4.796 4.796h32.572v-9.592z" fill="#fff"/></g></g></g></g><g id="XMLID_1374_"><g id="XMLID_921_"><g id="XMLID_1376_"><ellipse cx="67.665" cy="67.755" fill="#00daa9" rx="52.665" ry="52.755"/></g><g id="XMLID_1965_"><path d="m120.33 67.755c0-29.136-23.579-52.755-52.665-52.755-17.709 0-33.364 8.764-42.911 22.189 8.019-4.944 17.457-7.802 27.564-7.802 29.086 0 52.665 23.619 52.665 52.755 0 11.397-3.62 21.941-9.754 30.566 15.058-9.284 25.101-25.941 25.101-44.953z" fill="#01c499"/></g></g><g id="XMLID_56_"><path d="m55.264 86.972-15.134-16.874c-1.844-2.057-1.672-5.218.384-7.062 2.055-1.842 5.217-1.671 7.061.384l11.649 12.989 28.759-28.108c1.974-1.93 5.14-1.894 7.07.081 1.93 1.976 1.894 5.141-.081 7.071l-32.491 31.756c-1.543 1.583-4.877 2.27-7.217-.237z" fill="#fff"/></g></g></g></g></svg>