<svg height="512pt" viewBox="-70 0 512 512" width="512pt" xmlns="http://www.w3.org/2000/svg" xmlns:xlink="http://www.w3.org/1999/xlink"><linearGradient id="a"><stop offset="0" stop-color="#445ea0"/><stop offset=".3216" stop-color="#415a9b"/><stop offset=".6926" stop-color="#364d8d"/><stop offset="1" stop-color="#2a3d7c"/></linearGradient><linearGradient id="b" gradientUnits="userSpaceOnUse" x1="94.7773948082" x2="330.4164607652" xlink:href="#a" y1="207.0040983588" y2="207.0040983588"/><linearGradient id="c" gradientUnits="userSpaceOnUse" x1="140.8521942138" x2="140.8521942138" y1="374.3779741988" y2="408.2419699262"><stop offset="0" stop-color="#2a3d7c" stop-opacity="0"/><stop offset=".3949" stop-color="#273a77" stop-opacity=".396078"/><stop offset=".8504" stop-color="#1e3069" stop-opacity=".85098"/><stop offset="1" stop-color="#1a2b63"/></linearGradient><linearGradient id="d" gradientUnits="userSpaceOnUse" x1="67.9392468056" x2="356.8744235064" y1="115.8398489906" y2="404.7750256914"><stop offset="0" stop-color="#00e7b2"/><stop offset=".2459" stop-color="#05e5b1"/><stop offset=".5301" stop-color="#13ddac"/><stop offset=".8322" stop-color="#2ad1a5"/><stop offset="1" stop-color="#3ac9a0"/></linearGradient><linearGradient id="e" gradientUnits="userSpaceOnUse" x1="160.1049083688" x2="123.9490591076" xlink:href="#a" y1="397.078758855" y2="360.9228092016"/><linearGradient id="f" gradientUnits="userSpaceOnUse" x1="297.247279454" x2="113.485380886" y1="246.5390486798" y2="144.9866160244"><stop offset="0" stop-color="#3ac9a0" stop-opacity="0"/><stop offset=".0351" stop-color="#38c69d" stop-opacity=".035294"/><stop offset=".4167" stop-color="#23aa82" stop-opacity=".415686"/><stop offset=".7511" stop-color="#169971" stop-opacity=".752941"/><stop offset="1" stop-color="#11936b"/></linearGradient><linearGradient id="g"><stop offset="0" stop-color="#ffd00d"/><stop offset=".2378" stop-color="#ffcb0e"/><stop offset=".5353" stop-color="#fb1"/><stop offset=".8632" stop-color="#ffa215"/><stop offset="1" stop-color="#ff9517"/></linearGradient><linearGradient id="h" gradientUnits="userSpaceOnUse" x1="277.9973305196" x2="172.385438865" xlink:href="#g" y1="131.1622516542" y2="131.1622516542"/><linearGradient id="i" gradientUnits="userSpaceOnUse" x1="86.2270457654" x2="204.1341709384" xlink:href="#g" y1="131.1622516542" y2="131.1622516542"/><linearGradient id="j" gradientUnits="userSpaceOnUse" x1="314.5128304022" x2="178.5783782674" y1="343.2070996286" y2="280.6234052862"><stop offset="0" stop-color="#2a3d7c" stop-opacity="0"/><stop offset="1" stop-color="#1a2b63"/></linearGradient><linearGradient id="k" gradientUnits="userSpaceOnUse" x1="157.1382184666" x2="199.7199716654" xlink:href="#g" y1="288.7824801646" y2="377.5958453854"/><linearGradient id="l" gradientUnits="userSpaceOnUse" x1="173.9489927488" x2="312.142972129" xlink:href="#g" y1="225.3186474048" y2="450.6810658088"/><linearGradient id="m" gradientUnits="userSpaceOnUse" x1="285.616843084" x2="212.6195662278" y1="336.9917181344" y2="119.2165406376"><stop offset="0" stop-color="#ff9517" stop-opacity="0"/><stop offset=".3074" stop-color="#ee8421" stop-opacity=".305882"/><stop offset=".6784" stop-color="#e07728" stop-opacity=".678431"/><stop offset="1" stop-color="#db722b"/></linearGradient><linearGradient id="n" gradientUnits="userSpaceOnUse" x1="252.001518836" x2="279.4907102556" y1="435.0529116426" y2="542.0643709574"><stop offset="0" stop-color="#ff4974"/><stop offset=".3262" stop-color="#fe4672"/><stop offset=".5324" stop-color="#fb3e6c"/><stop offset=".7054" stop-color="#f52f60"/><stop offset=".8591" stop-color="#ee1a51"/><stop offset="1" stop-color="#e4003d"/></linearGradient><path d="m274.042969 414.007812h-266.382813c-4.230468 0-7.660156-3.429687-7.660156-7.660156v-398.6875c0-4.230468 3.429688-7.660156 7.660156-7.660156h266.382813c4.230469 0 7.660156 3.429688 7.660156 7.660156v398.683594c0 4.234375-3.429687 7.664062-7.660156 7.664062zm0 0" fill="url(#b)"/><path d="m0 341.644531v64.699219c0 4.234375 3.429688 7.664062 7.660156 7.664062h266.382813c4.230469 0 7.660156-3.429687 7.660156-7.664062v-64.699219zm0 0" fill="url(#c)"/><path d="m240.46875 341.644531h-199.234375c-3.558594 0-6.441406-2.886719-6.441406-6.441406v-292.898437c0-3.558594 2.882812-6.445313 6.441406-6.445313h199.238281c3.554688 0 6.441406 2.886719 6.441406 6.445313v292.898437c0 3.554687-2.886718 6.441406-6.445312 6.441406zm0 0" fill="url(#d)"/><path d="m162.480469 377.824219c0 11.945312-9.683594 21.628906-21.628907 21.628906-11.941406 0-21.625-9.683594-21.625-21.628906 0-11.941407 9.683594-21.625 21.625-21.625 11.945313 0 21.628907 9.683593 21.628907 21.625zm0 0" fill="url(#e)"/><path d="m246.914062 326.117188v-197l-60.328124-60.324219c-1.453126-2.757813-4.644532-5.023438-9.582032-6.796875-4.832031-1.734375-9.976562-2.921875-15.421875-3.589844-.242187-.257812-8.222656-8.445312-9.472656-9.367188-1.292969-.949218-2.6875-1.429687-4.179687-1.429687-.03125 0-8.820313 0-8.847657 0-.816406 0-1.574219.121094-2.273437.359375-.695313.238281-1.332032.59375-1.910156 1.070312-.867188.714844-1.410157 1.503907-1.625 2.371094-.074219.289063-.109376.585938-.109376.894532v5.914062c-6.886718.765625-13.070312 2.488281-18.546874 5.164062-3.289063 1.609376-6.320313 3.558594-9.101563 5.855469-7.414063 6.121094-11.117187 15.089844-11.117187 26.90625 0 4.207031.472656 8.042969 1.425781 11.507813.953125 3.460937 2.515625 6.480468 4.695312 9.058594 1.085938 1.289062 2.148438 2.484374 3.1875 3.589843 0 0 29.226563 29.175781 29.394531 29.324219.019532.019531.039063.042969.0625.066406v32.628906c-2.523437-.769531-4.886718-1.800781-7.082031-3.097656-4.589843-2.714844-8.195312-5.257812-10.824219-7.636718-2.625-2.375-4.746093-3.5625-6.359374-3.5625-.03125 0-8.820313 0-8.84375 0-1.828126 0-3.5.726562-5.019532 2.175781-.507812.484375-1 1.050781-1.472656 1.695312-1.894531 2.578125-2.839844 5.15625-2.839844 7.734375 0 .34375.019532.6875.050782 1.03125.191406 2.050782.964843 4.089844 2.3125 6.113282.351562.523437.75 1.042968 1.175781 1.566406.398437.484375.820312.972656 1.285156 1.457031l142.816406 142.761719h2.109375c3.554688 0 6.441406-2.882813 6.441406-6.441406zm0 0" fill="url(#f)"/><path d="m147.929688 214.710938c1.492187 0 2.886718-.46875 4.179687-1.402344s1.9375-2.003906 1.9375-3.203125v-6.820313c11.363281-1.636718 20.359375-6.039062 26.988281-13.207031 6.628906-7.164063 9.945313-16.824219 9.945313-28.976563 0-6.652343-1.019531-12.457031-3.046875-17.410156s-5.035156-9.058594-9.027344-12.320312c-3.992188-3.257813-7.78125-5.800782-11.367188-7.632813-3.582031-1.835937-8.082031-3.769531-13.492187-5.804687v-39.773438c2.265625.648438 4.472656 1.484375 6.628906 2.503906 4.871094 2.3125 7.851563 3.46875 8.933594 3.46875h8.847656c2.742188 0 4.9375-1.328124 6.582031-3.980468 1.648438-2.652344 2.472657-5.203125 2.472657-7.648438 0-4.488281-3.503907-7.992187-10.507813-10.507812-7.007812-2.515625-14.660156-3.910156-22.957031-4.183594v-5.507812c0-1.226563-.644531-2.3125-1.9375-3.265626-1.292969-.949218-2.6875-1.429687-4.179687-1.429687-.03125 0-8.820313 0-8.847657 0-1.632812 0-3.03125.480469-4.183593 1.429687-1.15625.953126-1.734376 2.039063-1.734376 3.265626v5.914062c-11.019531 1.226562-20.234374 4.898438-27.648437 11.019531-7.414063 6.121094-11.117187 15.089844-11.117187 26.90625 0 4.207031.472656 8.042969 1.425781 11.503907.949219 3.464843 2.515625 6.480468 4.695312 9.0625 2.171875 2.578124 4.246094 4.785156 6.21875 6.617187 1.972657 1.832031 4.761719 3.601563 8.367188 5.296875 3.601562 1.695312 6.492187 2.984375 8.671875 3.867188 2.171875.882812 5.304687 2.070312 9.382812 3.5625v46.265624c-2.523437-.769531-4.882812-1.800781-7.082031-3.101562-4.589844-2.710938-8.195313-5.257812-10.820313-7.632812-2.628906-2.378907-4.75-3.566407-6.359374-3.566407-.035157 0-8.824219 0-8.847657 0-2.433593 0-4.597656 1.292969-6.492187 3.871094-1.890625 2.578125-2.835938 5.15625-2.835938 7.738281 0 5.484375 4.113282 10.867188 12.34375 16.144532 8.226563 5.28125 18.261719 7.988281 30.09375 8.125v6.207031c0 1.199219.578125 2.269531 1.734375 3.207031 1.15625.929688 2.550781 1.398438 4.183594 1.398438zm4.894531-69.289063c1.679687 1.214844 3.152343 2.503906 4.414062 3.871094 3.128907 3.390625 4.695313 8.074219 4.695313 14.046875 0 8.023437-3.039063 13.738281-9.109375 17.148437zm-18.4375-35.25c-2.390625-1.273437-4.390625-2.589844-5.996094-3.945313-3.300781-2.78125-4.949219-6.820312-4.949219-12.113281 0-7.285156 3.652344-12.308593 10.945313-15.078125zm0 0" fill="url(#h)"/><path d="m90.726562 179.628906c0-2.578125.945313-5.15625 2.835938-7.738281 1.894531-2.578125 4.054688-3.867187 6.492188-3.867187 1.613281 0 3.734374 1.1875 6.359374 3.5625 2.625 2.378906 6.234376 4.921874 10.824219 7.636718 4.589844 2.714844 9.898438 4.273438 15.925781 4.683594v-47.851562c-4.078124-1.492188-7.210937-2.679688-9.382812-3.5625-2.179688-.878907-5.070312-2.171876-8.671875-3.867188-3.605469-1.695312-6.394531-3.460938-8.367187-5.296875-1.972657-1.832031-4.046876-4.039063-6.222657-6.617187-2.175781-2.578126-3.742187-5.597657-4.691406-9.058594-.953125-3.464844-1.429687-7.296875-1.429687-11.507813 0-11.8125 3.707031-20.785156 11.121093-26.90625 7.414063-6.121093 16.628907-9.792969 27.648438-11.015625v-5.917968c0-1.222657.574219-2.3125 1.734375-3.265626 1.152344-.949218 2.550781-1.425781 4.183594-1.425781 1.492187 0 2.886718.476563 4.179687 1.425781 1.292969.953126 1.941406 2.042969 1.941406 3.265626v5.507812c8.292969.273438 15.945313 1.667969 22.953125 4.183594 7.003906 2.519531 10.507813 6.019531 10.507813 10.507812 0 2.449219-.824219 5-2.46875 7.652344-1.648438 2.652344-3.84375 3.976562-6.585938 3.976562-1.082031 0-4.066406-1.152343-8.9375-3.46875-4.875-2.308593-10.03125-3.671874-15.46875-4.078124v41.347656c5.410157 2.035156 9.90625 3.972656 13.488281 5.804687 3.585938 1.832031 7.375 4.378907 11.367188 7.636719s7 7.363281 9.027344 12.316406c2.03125 4.957032 3.046875 10.761719 3.046875 17.410156 0 12.152344-3.316407 21.8125-9.945313 28.980469-6.628906 7.164063-15.625 11.566407-26.984375 13.207031v6.816407c0 1.199219-.648437 2.269531-1.941406 3.207031-1.292969.933594-2.6875 1.402344-4.179687 1.402344-1.632813 0-3.03125-.46875-4.183594-1.402344-1.160156-.933594-1.734375-2.003906-1.734375-3.203125v-6.207031c-11.835938-.136719-21.867188-2.84375-30.097657-8.125-8.230468-5.28125-12.34375-10.660156-12.34375-16.148438zm23.871094-85.519531c0 5.296875 1.648438 9.335937 4.949219 12.117187 3.296875 2.78125 8.242187 5.394532 14.839844 7.839844v-37.09375c-13.191407 1.632813-19.789063 7.34375-19.789063 17.136719zm29.378906 89.386719c11.96875-2.171875 17.957032-8.890625 17.957032-20.15625 0-5.972656-1.566406-10.65625-4.695313-14.046875-3.128906-3.390625-7.546875-6.3125-13.261719-8.757813zm0 0" fill="url(#i)"/><path d="m274.042969 414.007812c4.230469 0 7.660156-3.429687 7.660156-7.660156v-186.488281l-38.390625-38.394531c-2.746094-3.230469-6.832031-5.285156-11.40625-5.285156h-32.109375c-8.269531 0-14.96875 6.699218-14.96875 14.96875v222.859374zm0 0" fill="url(#j)"/><path d="m195.40625 268.03125v179.078125h-10.578125l-36.648437-94.160156c-6.414063-16.484375-2.484376-35.199219 10.023437-47.707031l26.625-26.632813zm0 0" fill="url(#k)"/><path d="m317.097656 283.804688-70.222656-19.585938v-73.070312c0-8.269532-6.699219-14.96875-14.96875-14.96875h-32.109375c-8.265625 0-14.96875 6.699218-14.96875 14.96875v255.960937h173.859375v-108.523437c0-25.523438-17.003906-47.921876-41.589844-54.78125zm0 0" fill="url(#l)"/><path d="m358.6875 447.109375v-108.523437c0-25.523438-17.003906-47.921876-41.589844-54.777344l-70.222656-19.589844v182.894531h111.8125zm0 0" fill="url(#m)"/><path d="m361.453125 512h-196.367187c-5.609376 0-10.15625-4.546875-10.15625-10.15625v-45.84375c0-5.609375 4.550781-10.15625 10.15625-10.15625h196.367187c5.609375 0 10.15625 4.546875 10.15625 10.15625v45.84375c0 5.609375-4.546875 10.15625-10.15625 10.15625zm0 0" fill="url(#n)"/></svg>