<svg enable-background="new 0 0 256 256" height="512" viewBox="0 0 256 256" width="512" xmlns="http://www.w3.org/2000/svg"><g id="Layer_1"><g><g><g><g><g><path d="m245.885 159.48c5.476-20.515 5.487-42.425 0-62.98h-16.85c-1.89-6.17-4.37-12.04-7.34-17.66l11.93-11.92c-10.7-18.46-26.1-33.86-44.56-44.56l-11.92 11.93c-5.62-2.97-11.49-5.45-17.66-7.35v-16.84c-20.518-5.476-42.424-5.486-62.98 0v16.84c-6.17 1.9-12.04 4.38-17.66 7.35l-11.92-11.93c-18.46 10.7-33.86 26.1-44.56 44.56l11.93 11.92c-2.97 5.62-5.45 11.49-7.35 17.66h-16.84c-2.68 10.04-4.11 20.61-4.11 31.49s1.43 21.45 4.11 31.49h16.84c1.9 6.17 4.38 12.04 7.35 17.66l-11.93 11.92c10.7 18.46 26.1 33.86 44.56 44.56l11.92-11.93c5.62 2.97 11.49 5.45 17.66 7.35v16.84c20.518 5.476 42.424 5.486 62.98 0v-16.84c6.17-1.9 12.04-4.38 17.66-7.35l11.92 11.93c18.46-10.7 33.86-26.1 44.56-44.56l-11.93-11.92c2.97-5.62 5.45-11.49 7.34-17.66zm-119.022 47.257c-44.098 0-79.815-35.76-79.815-79.869s35.717-79.826 79.815-79.826c44.108 0 79.879 35.717 79.879 79.826s-35.771 79.869-79.879 79.869z" fill="#72c1e8"/></g></g><g><g><path d="m126.892 221.444c-19.839 0-38.815-6.061-54.878-17.525-1.124-.803-1.384-2.364-.582-3.487.802-1.124 2.364-1.383 3.487-.583 15.209 10.857 33.181 16.596 51.973 16.596 49.471 0 89.574-40.011 89.574-89.536 0-23.934-9.325-46.439-26.259-63.373-.977-.977-.977-2.559 0-3.535s2.559-.977 3.535 0c17.878 17.878 27.724 41.64 27.724 66.908.001 52.233-42.284 94.535-94.574 94.535zm-62.897-23.934c-1.357-1.211-2.7-2.479-3.991-3.769-.977-.976-.978-2.559-.001-3.535.977-.978 2.559-.977 3.536-.002 1.225 1.224 2.499 2.427 3.786 3.575 1.03.919 1.12 2.499.201 3.529-.92 1.03-2.5 1.122-3.531.202z" fill="#c5e5ff"/></g></g><g><g><g><path d="m159.798 99.46v13.726h-11.474v-13.726c0-11.207-9.122-20.329-20.328-20.329s-20.328 9.122-20.328 20.329v13.726h-11.476v-13.726c0-17.565 14.238-31.803 31.803-31.803s31.803 14.237 31.803 31.803z" fill="#efefef"/></g></g><g><g><path d="m166.565 113.188h-77.14c-3.715 0-6.727 3.012-6.727 6.727v49.89c0 3.715 3.012 6.727 6.727 6.727h77.141c3.715 0 6.727-3.012 6.727-6.727v-49.89c-.001-3.716-3.012-6.727-6.728-6.727z" fill="#fc5d3d"/></g></g><g><g><path d="m136.519 138.835c0-4.708-3.817-8.524-8.524-8.524s-8.524 3.817-8.524 8.524c0 2.565 1.138 4.859 2.93 6.422v8.559c0 3.09 2.505 5.594 5.594 5.594s5.594-2.504 5.594-5.594v-8.559c1.792-1.563 2.93-3.858 2.93-6.422z" fill="#4c4945"/></g></g><g><g><path d="m164.23 170.117h-.765c-1.381 0-2.5-1.119-2.5-2.5s1.119-2.5 2.5-2.5h.765c1.381 0 2.5 1.119 2.5 2.5s-1.119 2.5-2.5 2.5zm-10.764 0h-62.408c-1.381 0-2.5-1.119-2.5-2.5v-42.592c0-1.381 1.119-2.5 2.5-2.5s2.5 1.119 2.5 2.5v40.092h59.908c1.381 0 2.5 1.119 2.5 2.5s-1.12 2.5-2.5 2.5z" fill="#ffcbc2"/></g></g></g></g><g><path d="m152.974 51.36c-.5 1.29.16 2.729 1.44 3.229 1.452.503 2.781-.284 3.229-1.45.49-1.29-.159-2.729-1.439-3.229 0 0 0 0-.01 0-1.26-.48-2.749.2-3.22 1.45z"/></g><g><path d="m165.585 54.18c-1.293-.68-2.766-.141-3.38 1.03-.65 1.22-.19 2.73 1.03 3.38 25.29 13.49 41 39.65 41 68.271 0 42.84-34.684 77.37-77.371 77.37-42.743 0-77.32-34.595-77.32-77.37 0-42.753 34.566-77.32 77.32-77.32 6.19 0 12.35.729 18.31 2.17 1.32.33 2.69-.52 3.01-1.84.345-1.401-.552-2.714-1.84-3.01-6.34-1.54-12.89-2.32-19.48-2.32-45.491 0-82.32 36.829-82.32 82.32 0 45.428 36.749 82.37 82.32 82.37 45.421 0 82.371-36.779 82.371-82.37 0-30.45-16.756-58.342-43.65-72.681z"/></g><g><path d="m127.995 161.91c4.46 0 8.09-3.63 8.09-8.09v-7.511c1.89-2.05 2.93-4.699 2.93-7.479 0-6.07-4.939-11.021-11.02-11.021s-11.02 4.95-11.03 11.021c0 2.78 1.05 5.439 2.94 7.479v7.511c0 4.46 3.63 8.09 8.09 8.09zm0-29.101c3.31.011 6.02 2.71 6.02 6.021 0 1.76-.739 3.37-2.069 4.54-.54.479-.86 1.16-.86 1.89v8.561c0 1.699-1.39 3.09-3.09 3.09s-3.09-1.391-3.09-3.09v-8.561c0-.729-.32-1.41-.86-1.89-1.34-1.17-2.07-2.78-2.07-4.54-.001-3.311 2.699-6.01 6.019-6.021z"/></g><g><circle cx="173.295" cy="137.69" r="2.5"/></g><g><path d="m127.995 65.157c-18.915 0-34.303 15.388-34.303 34.303v11.23h-4.268c-5.09 0-9.23 4.14-9.23 9.22v49.89c0 5.09 4.14 9.23 9.23 9.23h77.14c5.091 0 9.23-4.141 9.23-9.23v-22.11c0-1.381-1.12-2.5-2.5-2.5s-2.5 1.119-2.5 2.5v22.11c-.01 2.33-1.9 4.23-4.23 4.23h-77.14c-2.33 0-4.22-1.9-4.23-4.23v-49.89c.01-2.32 1.9-4.22 4.23-4.22h77.14c2.33 0 4.221 1.899 4.23 4.22v7.78c0 1.38 1.12 2.5 2.5 2.5s2.5-1.12 2.5-2.5v-7.78c0-5.08-4.14-9.22-9.23-9.22h-4.267v-11.23c.001-18.915-15.387-34.303-34.302-34.303zm17.828 45.533h-35.657v-11.23c0-9.831 7.998-17.829 17.829-17.829 9.83 0 17.828 7.998 17.828 17.829zm11.475 0h-6.475v-11.23c0-12.588-10.24-22.829-22.828-22.829s-22.829 10.241-22.829 22.829v11.23h-6.474v-11.23c0-16.157 13.145-29.303 29.303-29.303 16.157 0 29.303 13.146 29.303 29.303z"/></g></g><g><path d="m95.865 248.3c-1.1-.3-1.86-1.29-1.86-2.42v-15.01c-4.94-1.62-9.88-3.68-14.68-6.12l-10.63 10.64c-.78.78-2.07.95-3.02.391-18.84-10.92-34.56-26.641-45.47-45.471-.57-.979-.41-2.22.39-3.02l10.64-10.62c-2.44-4.81-4.5-9.75-6.12-14.689h-15.01c-1.13 0-2.12-.761-2.42-1.851-1.74-6.55-2.96-13.31-3.61-20.08-.127-1.404.892-2.599 2.25-2.72 1.36-.13 2.59.87 2.73 2.24.56 5.87 1.57 11.729 2.99 17.41h14.9c1.09 0 2.07.729 2.39 1.76 1.79 5.81 4.2 11.609 7.17 17.229.51.98.34 2.16-.44 2.94l-10.56 10.55c10.08 16.76 24.26 30.94 41.02 41.021l10.55-10.561c.76-.75 1.99-.939 2.94-.439 5.61 2.97 11.41 5.38 17.22 7.17 1.04.319 1.77 1.3 1.77 2.39v14.9c18.85 4.71 39.13 4.71 57.98 0v-14.9c0-1.09.72-2.07 1.76-2.39 5.819-1.79 11.62-4.2 17.229-7.17.95-.5 2.181-.311 2.94.439l10.55 10.561c16.76-10.08 30.94-24.261 41.021-41.021l-10.561-10.55c-.78-.78-.96-1.96-.439-2.94 2.979-5.64 5.39-11.43 7.159-17.22.32-1.04 1.301-1.77 2.391-1.77h14.91c4.639-18.544 4.826-38.713 0-57.98h-14.91c-1.11 0-2.07-.71-2.391-1.77-1.77-5.79-4.18-11.58-7.159-17.221-.511-.96-.33-2.17.439-2.939l10.561-10.551c-10.08-16.76-24.261-30.939-41.021-41.02l-10.55 10.56c-.76.75-1.99.94-2.94.44-5.609-2.96-11.399-5.38-17.229-7.17-1.04-.32-1.76-1.3-1.76-2.39v-14.908c-18.87-4.7-39.11-4.7-57.98.01v14.9c0 1.09-.73 2.069-1.77 2.39-5.82 1.79-11.62 4.21-17.22 7.17-.95.5-2.18.31-2.94-.44l-10.55-10.56c-16.76 10.08-30.94 24.26-41.02 41.02l10.56 10.551c.77.77.95 1.979.44 2.939-2.97 5.62-5.38 11.41-7.17 17.221-.32 1.039-1.3 1.77-2.39 1.77h-14.9c-1.71 6.85-2.82 13.92-3.29 21-.09 1.37-1.27 2.44-2.66 2.33-1.37-.09-2.42-1.28-2.33-2.66.54-8.07 1.86-16.08 3.92-23.81.3-1.101 1.29-1.86 2.42-1.86h15.01c1.62-4.94 3.68-9.88 6.12-14.69l-10.64-10.621c-.8-.801-.96-2.051-.39-3.03 10.91-18.82 26.64-34.55 45.47-45.46.95-.561 2.24-.391 3.02.39l10.63 10.641c4.79-2.431 9.73-4.49 14.68-6.12v-15.012c0-1.13.76-2.119 1.86-2.42 20.84-5.56 43.42-5.56 64.26 0 1.1.29 1.86 1.29 1.86 2.42v15.011c4.949 1.63 9.899 3.689 14.68 6.12l10.63-10.641c.78-.78 2.06-.95 3.02-.39 18.841 10.91 34.561 26.64 45.471 45.46.569.979.41 2.229-.391 3.03l-10.64 10.619c2.44 4.82 4.5 9.761 6.11 14.69h15.02c1.13 0 2.12.76 2.41 1.85 5.599 20.95 5.604 43.313 0 64.28-.29 1.09-1.28 1.851-2.41 1.851h-15.02c-1.61 4.939-3.67 9.88-6.11 14.68l10.64 10.63c.801.8.96 2.04.391 3.02-10.91 18.83-26.641 34.561-45.471 45.471-.96.56-2.239.39-3.02-.391l-10.63-10.64c-4.8 2.44-9.74 4.5-14.68 6.12v15.01c0 1.13-.761 2.12-1.86 2.42-20.607 5.494-42.95 5.681-64.26.001zm-89.86-115.97c-1.35 0-2.47-1.1-2.5-2.46-.019-1.331 1.04-2.519 2.47-2.54h.03c1.36 0 2.47 1.1 2.5 2.45 0 .01.01.01.01.02.01 1.37-1.09 2.51-2.47 2.53-.01 0-.02 0-.04 0z"/></g></g></g></svg>