<svg id="Capa_1" enable-background="new 0 0 512 512" height="512" viewBox="0 0 512 512" width="512" xmlns="http://www.w3.org/2000/svg"><g><g><g><g><g><g><g><circle cx="256" cy="256" fill="#ffce00" r="256"/></g></g></g></g></g></g><path d="m512 256c0-1.601-.015-3.198-.044-4.792l-146.54-146.541-207.519 196.564 137.541 137.541-147.168-3.772 74.916 74.916c10.744 1.375 21.696 2.084 32.814 2.084 141.385 0 256-114.615 256-256z" fill="#ffa300"/><g><ellipse cx="256" cy="431.377" fill="#1dd882" rx="109.415" ry="20.623"/></g><g><path d="m256 410.754v41.246c60.428 0 109.416-9.233 109.416-20.623s-48.988-20.623-109.416-20.623z" fill="#06b26b"/></g><g><path d="m399.159 196.976c0-79.065-64.094-143.159-143.159-143.159s-143.159 64.094-143.159 143.159c0 54.484 30.437 101.859 75.236 126.05l67.923 111.974 67.924-111.974c44.798-24.191 75.235-71.566 75.235-126.05z" fill="#fe8205"/></g><g><path d="m256 53.817v381.183l67.923-111.973c44.798-24.191 75.236-71.566 75.236-126.05 0-79.066-64.094-143.16-143.159-143.16z" fill="#fa5d0f"/></g><g><g><g><g><g><g><g><g><path d="m349.179 196.977c0-51.462-41.718-93.179-93.179-93.179s-93.179 41.718-93.179 93.179c0 24.85 9.729 47.426 25.584 64.131h135.191c15.854-16.705 25.583-39.281 25.583-64.131z" fill="#fff"/></g></g></g></g></g></g></g><g><g><g><g><g><g><g><path d="m349.179 196.978c0-51.462-41.718-93.179-93.179-93.179v157.311h67.596c15.854-16.707 25.583-39.283 25.583-64.132z" fill="#e9edf5"/></g></g></g></g></g></g></g><g><circle cx="256" cy="169.312" fill="#4a7aff" r="39.048"/></g><g><path d="m256 130.264v78.096c21.566 0 39.048-17.482 39.048-39.048s-17.482-39.048-39.048-39.048z" fill="#0053bf"/></g><g><path d="m256 290.154c27.597 0 52.392-11.998 69.454-31.062-13.663-24.238-39.647-40.606-69.454-40.606s-55.791 16.368-69.454 40.606c17.062 19.064 41.857 31.062 69.454 31.062z" fill="#4a7aff"/></g><g><path d="m256 218.486v71.668c27.597 0 52.392-11.998 69.454-31.062-13.663-24.238-39.647-40.606-69.454-40.606z" fill="#0053bf"/></g></g></g></svg>