<svg enable-background="new 0 0 256 256" height="512" viewBox="0 0 256 256" width="512" xmlns="http://www.w3.org/2000/svg"><path d="m187.824 95.74c0 29.64-14.19 55.97-36.15 72.55-15.22 11.5-34.18 18.32-54.73 18.32-21.01 0-40.34-7.12-55.73-19.09-21.38-16.62-35.14-42.59-35.14-71.78 0-50.19 40.68-90.88 90.87-90.88s90.88 40.69 90.88 90.88z" fill="#5fcdff"/><path d="m56.214 167.52c13.54 10.53 30.12 17.3 48.22 18.78-2.47.21-4.97.31-7.49.31-21.01 0-40.34-7.12-55.73-19.09-21.38-16.62-35.14-42.59-35.14-71.78 0-50.19 40.68-90.88 90.87-90.88 2.53 0 5.03.1 7.5.31-46.68 3.81-83.37 42.91-83.37 90.57 0 29.19 13.76 55.16 35.14 71.78z" fill="#73d7f9"/><path d="m187.824 95.74c0 29.64-14.19 55.97-36.15 72.55-15.22 11.5-34.18 18.32-54.73 18.32-2.53 0-5.04-.1-7.51-.31 17.66-1.43 33.89-7.92 47.24-18.01 21.96-16.58 36.15-42.91 36.15-72.55 0-47.66-36.7-86.76-83.38-90.57 2.47-.21 4.97-.31 7.5-.31 50.19 0 90.88 40.69 90.88 90.88z" fill="#30b6ff"/><path d="m149.742 165.22v4.85c-14.81 10.49-32.91 16.65-52.44 16.65-13.36 0-26.04-2.88-37.47-8.06-5.29-2.39-10.31-5.29-15-8.61v-4.83c0-27.15 20.62-49.48 47.06-52.18-16.21-2.61-28.61-16.8-28.61-33.92 0-18.98 15.23-34.36 34-34.36 1.18 0 2.34.06 3.48.18.28.03.57.06.85.1.28.03.57.07.85.12.78.12 1.56.27 2.32.44 15.17 3.45 26.5 17.14 26.5 33.52 0 16.37-11.33 30.06-26.49 33.5-.28.07-.56.13-.85.19-.42.09-.84.16-1.26.23.71.07 1.41.16 2.11.26 25.41 3.64 44.95 25.5 44.95 51.92z" fill="#ffe2e2"/><path d="m102.682 113.04c.71.07 1.41.16 2.11.26-25.42 3.63-44.96 25.49-44.96 51.92v13.44c-5.29-2.39-10.31-5.29-15-8.61v-4.83c0-27.15 20.62-49.48 47.06-52.18-16.21-2.61-28.61-16.8-28.61-33.92 0-18.98 15.23-34.36 34-34.36 1.18 0 2.34.06 3.48.18.28.03.57.06.85.1.28.03.57.07.85.12.78.12 1.56.27 2.32.44-15.17 3.45-26.5 17.15-26.5 33.52s11.34 30.06 26.51 33.5c-.28.07-.56.13-.85.19-.42.09-.84.16-1.26.23z" fill="#ffefee"/><circle cx="187.762" cy="188.974" fill="#ff4a73" r="62.164"/><path d="m231.724 232.93c-14.05 14.05-33.16 19.97-51.46 17.76 13.33-1.61 26.23-7.53 36.46-17.76 24.27-24.28 24.27-63.64 0-87.91-10.23-10.23-23.13-16.15-36.46-17.76 18.3-2.21 37.41 3.71 51.46 17.76 24.27 24.27 24.27 63.63 0 87.91z" fill="#ea2a6a"/><path d="m158.804 232.93c10.23 10.23 23.13 16.15 36.46 17.76-18.3 2.21-37.41-3.71-51.46-17.76-24.28-24.28-24.28-63.64 0-87.91 14.05-14.05 33.16-19.97 51.46-17.76-13.33 1.61-26.23 7.53-36.46 17.76-24.28 24.27-24.28 63.63 0 87.91z" fill="#f973a3"/><path d="m216.122 217.326c-4.688 4.688-12.29 4.681-16.971 0l-11.384-11.384-11.384 11.384c-4.688 4.688-12.282 4.688-16.971 0-4.688-4.688-4.688-12.282 0-16.971l11.384-11.384-11.384-11.384c-4.688-4.688-4.688-12.282 0-16.971 4.681-4.681 12.282-4.688 16.971 0l11.384 11.384 11.377-11.377c4.688-4.688 12.282-4.688 16.971 0 4.688 4.688 4.688 12.282 0 16.971l-11.377 11.377 11.384 11.384c4.681 4.682 4.681 12.29 0 16.971z" fill="#ffe2e2"/><path d="m216.115 160.623-56.703 56.703c-4.688-4.688-4.688-12.282 0-16.971l11.384-11.384-11.384-11.384c-4.688-4.688-4.688-12.282 0-16.971 4.681-4.681 12.282-4.688 16.971 0l11.384 11.384 11.377-11.377c4.689-4.688 12.283-4.688 16.971 0z" fill="#ffefee"/><g fill="#5f266d"><path d="m234.548 142.191c-12.47-12.469-29.222-19.335-46.676-19.36 18.186-61.002-27.844-121.971-90.922-121.971-52.317 0-94.88 42.563-94.88 94.88 0 30.034 14.327 58.372 38.42 76.24v.039c26.309 18.619 54.905 22.377 81.149 15.326-.458 18.096 6.405 35.477 19.342 48.413 12.494 12.499 29.107 19.382 46.78 19.382s34.289-6.883 46.788-19.382c12.498-12.498 19.381-29.113 19.381-46.786 0-17.674-6.883-34.287-19.382-46.781zm-224.478-46.451c0-47.905 38.975-86.88 86.88-86.88 58.989 0 101.306 58.099 82.37 114.491-12.11 1.558-23.63 6.495-33.123 14.158-6.596-11.768-17.423-21.13-30.66-25.731 11.573-6.521 19.41-18.921 19.41-33.124 0-20.953-17.047-38-38-38s-38 17.047-38 38c0 14.218 7.854 26.63 19.447 33.145-21.063 7.353-36.475 26.843-37.803 50.054-19.24-16.429-30.521-40.606-30.521-66.113zm86.938 12.912c-16.56.033-30.06-13.427-30.06-29.999 0-16.542 13.458-30 30-30s30 13.458 30 30c0 16.522-13.426 29.966-29.94 29.999zm-48.518 59.181c0-56.787 69.425-68.197 91.62-24.754-9.201 9.546-15.608 21.849-17.739 35.755-24.049 7.34-51.369 4.166-73.881-11.001zm180.402 62.269c-10.987 10.987-25.594 17.038-41.13 17.038s-30.14-6.051-41.123-17.038c-12.609-12.609-18.683-30.021-16.665-47.771l.001-.006c3.202-28.006 25.817-48.932 52.657-51.29 17.198-1.519 34.058 4.611 46.261 16.814 10.987 10.982 17.038 25.587 17.038 41.123-.001 15.535-6.052 30.142-17.039 41.13z"/><path d="m210.391 188.975 8.554-8.555c6.238-6.238 6.238-16.389 0-22.627-6.239-6.238-16.39-6.238-22.627 0l-8.554 8.554-8.554-8.554c-3.021-3.022-7.04-4.687-11.313-4.687s-8.292 1.664-11.314 4.687c-6.238 6.238-6.238 16.389 0 22.627l8.555 8.555-8.555 8.554c-6.238 6.238-6.238 16.389 0 22.627 3.119 3.119 7.217 4.679 11.314 4.679s8.194-1.56 11.313-4.679l8.554-8.554 8.554 8.554c6.238 6.238 16.389 6.238 22.627 0 3.022-3.021 4.686-7.04 4.686-11.313 0-4.274-1.665-8.292-4.686-11.313zm2.897 25.524c-3.12 3.119-8.195 3.117-11.313 0l-11.382-11.383c-1.563-1.562-4.095-1.562-5.657 0l-11.382 11.383c-3.12 3.119-8.195 3.119-11.313 0-3.119-3.119-3.119-8.194 0-11.314l11.383-11.382c1.561-1.56 1.563-4.094 0-5.656l-11.383-11.383c-5.037-5.039-1.423-13.657 5.657-13.657 2.137 0 4.146.832 5.656 2.343l11.383 11.383c1.563 1.562 4.095 1.562 5.657 0l11.382-11.383c3.119-3.118 8.194-3.12 11.313 0s3.119 8.195 0 11.314l-11.382 11.383c-1.562 1.562-1.562 4.095 0 5.656l11.382 11.382c1.511 1.511 2.343 3.52 2.343 5.657-.002 2.137-.834 4.145-2.344 5.657z"/><path d="m33.238 61.148c-1.997-.947-4.382-.095-5.329 1.9-3.632 7.657-5.943 15.82-6.871 24.262-.241 2.195 1.343 4.172 3.54 4.413 2.244.236 4.175-1.381 4.413-3.54.83-7.553 2.897-14.856 6.147-21.707.946-1.996.095-4.38-1.9-5.328z"/><path d="m39.757 45.125c-1.262 1.425-2.485 2.914-3.634 4.426-1.337 1.758-.996 4.268.763 5.604.724.551 1.574.816 2.418.816 1.207 0 2.4-.544 3.187-1.579 1.029-1.354 2.125-2.688 3.255-3.965 1.465-1.654 1.311-4.182-.343-5.646-1.653-1.464-4.182-1.309-5.646.344z"/></g></svg>