<?xml version="1.0" encoding="iso-8859-1"?>
<!-- Generator: Adobe Illustrator 19.0.0, SVG Export Plug-In . SVG Version: 6.00 Build 0)  -->
<svg version="1.1" id="Capa_1" xmlns="http://www.w3.org/2000/svg" xmlns:xlink="http://www.w3.org/1999/xlink" x="0px" y="0px"
	 viewBox="0 0 512 512" style="enable-background:new 0 0 512 512;" xml:space="preserve">
<circle style="fill:#686BDF;" cx="253.14" cy="267.84" r="244.16"/>
<path style="fill:#EAF3F9;" d="M283.671,0C175.525,0,78.761,74.757,68.306,179.632c-1.832,18.374,3.542,30.337,4.888,36.787
	c2.748,10.132,0.407,20.966-6.286,29.053c-21.061,25.445-44.683,55.592-44.683,62.805c0,11.144,27.325,21.421,35.181,24.145
	c1.252,0.434,2.089,1.61,2.089,2.935v18.507c0,1.476,0.662,2.874,1.803,3.81l12.892,10.57c1.16,0.951,1.666,2.486,1.299,3.94
	l-1.078,4.277c-1.176,4.663,0.231,9.6,3.688,12.943l9.258,8.952c5.76,5.57,9.013,13.24,9.013,21.253
	c0.628,5.995-3.06,24.202,10.184,43.626l0,0c6.515,9.556,17.075,15.75,28.63,16.265c10.15,0.452,20.394-1.086,30.118-4.474
	l25.02-8.72c4.075-1.42,8.585,0.238,10.769,3.96l14.356,24.457c2.132,3.632,3.05,7.779,3.188,11.988
	c0.034,1.04,0.266,2.029,0.649,2.938c11.067,1.538,22.366,2.349,33.856,2.349c62.507,0,119.513-23.501,162.698-62.134l-8.545-32.716
	c-5.394-20.653,1.307-42.433,17.004-56.898c41.162-37.929,66.953-92.285,66.953-152.671C491.252,92.937,398.315,0,283.671,0z"/>
<path style="fill:#959FF4;" d="M256.739,352.948c-6.122,0-12.241-1.12-18.068-3.36c-63.714-24.497-107.513-86.002-107.513-156.553
	v-63.057c0-7.494,2.92-14.538,8.223-19.833c5.334-5.328,12.436-8.261,20.001-8.261c0.012,0,0.024,0,0.036,0h0.115
	c30.935,0,60.237-13.49,80.396-37.009c4.218-4.92,10.344-7.742,16.809-7.742s12.592,2.821,16.808,7.741
	c20.161,23.521,49.464,37.01,80.397,37.01h0.134c0.012,0,0.024,0,0.035,0c7.547,0,14.65,2.933,19.984,8.261
	c5.303,5.295,8.223,12.34,8.223,19.833v63.057c0,70.172-43.452,131.926-107.515,156.553
	C268.98,351.827,262.859,352.948,256.739,352.948z"/>
<g>
	<path style="fill:#838AED;" d="M221.442,288.891c-19.691-28.222-30.099-61.368-30.099-95.857v-78.358
		c0-7.494,2.92-14.538,8.223-19.833c0.528-0.528,1.078-1.025,1.64-1.505c-13.016,5.578-27.165,8.545-41.673,8.545h-0.115
		c-0.012,0-0.024,0-0.036,0c-7.565,0-14.667,2.933-20.001,8.261c-5.303,5.295-8.223,12.34-8.223,19.833v63.057
		c0,70.471,43.729,132.029,107.513,156.553c5.826,2.24,11.945,3.36,18.068,3.36c6.12,0,12.242-1.121,18.066-3.36
		c4.091-1.572,8.099-3.305,12.027-5.177C260.654,331.936,238.221,312.939,221.442,288.891z"/>
	<path style="fill:#838AED;" d="M161.439,132.151v60.884c0,57.722,35.833,108.195,88.099,128.289c4.644,1.785,9.757,1.786,14.401,0
		c52.285-20.101,88.1-70.571,88.1-128.289v-60.884c-36.027-0.503-70.199-15.216-95.3-40.828
		C231.639,116.934,197.467,131.648,161.439,132.151z"/>
</g>
<g>
	<path style="fill:#686BDF;" d="M251.903,322.051c-11.496-9.558-21.747-20.671-30.461-33.159
		c-19.691-28.222-30.099-61.368-30.099-95.857v-64.633c-9.712,2.332-19.734,3.608-29.904,3.75v60.884
		c0,57.722,35.833,108.195,88.099,128.289C250.314,321.622,251.106,321.852,251.903,322.051z"/>
	<path style="fill:#686BDF;" d="M287.861,183.832c0-17.854-15.034-32.197-33.134-31.059c-15.379,0.967-27.93,13.401-29.028,28.771
		c-0.903,12.638,5.747,23.811,15.892,29.475c1.667,0.931,2.538,2.835,2.204,4.715l-6.505,36.627
		c-0.464,2.612,1.545,5.009,4.198,5.009h30.84c2.476,0,4.351-2.237,3.918-4.675l-6.561-36.946c-0.333-1.876,0.52-3.793,2.184-4.72
		C281.407,205.712,287.861,195.527,287.861,183.832z"/>
</g>
<path style="fill:#4F5EC6;" d="M271.868,211.029c9.538-5.317,15.992-15.502,15.992-27.197c0-17.854-15.034-32.197-33.134-31.059
	c-1.419,0.089-2.814,0.277-4.178,0.555c8.717,2.876,15.281,15.44,15.281,30.503c0,11.695-3.958,21.88-9.807,27.197
	c-1.021,0.927-1.543,2.844-1.339,4.72l4.024,36.946c0.266,2.438-0.884,4.675-2.402,4.675h16.025c2.476,0,4.35-2.237,3.918-4.675
	l-6.561-36.946C269.352,213.874,270.204,211.957,271.868,211.029z"/>
<path style="fill:#FEC50A;" d="M492.965,47.116c-17.578-27.443-53.719-37.03-82.594-21.921
	c-26.073,13.643-38.463,42.547-32.6,69.566c0.552,2.543-0.544,5.156-2.798,6.457L265.022,164.7
	c-7.192,4.152-10.076,13.326-6.08,20.606c2.87,5.23,8.345,8.059,13.89,7.835c1.3-0.053,2.502,0.672,3.152,1.799
	c2.462,4.264,8.381,14.517,13.283,23.006c4.167,7.218,13.394,9.687,20.612,5.521c7.266-4.195,9.755-13.486,5.56-20.751
	l-12.599-21.822c-0.732-1.269-0.298-2.89,0.971-3.623l21.596-12.469c1.287-0.743,2.933-0.302,3.676,0.985l7.356,12.74
	c1.41,2.442,4.533,3.279,6.975,1.869l17.38-10.034c2.442-1.41,3.279-4.533,1.869-6.975l-7.293-12.633
	c-0.777-1.347-0.316-3.069,1.031-3.846l34.415-19.87c1.842-1.063,4.149-0.777,5.705,0.673c19.832,18.472,50.128,22.744,74.822,8.487
	C502.497,118.211,512.589,77.752,492.965,47.116z M459.848,87.182c-7.242,4.181-16.501,1.7-20.682-5.542
	c-4.181-7.241-1.7-16.501,5.542-20.682c7.241-4.181,16.501-1.7,20.682,5.542C469.571,73.742,467.09,83.002,459.848,87.182z"/>
<path style="fill:#FCAD19;" d="M462.811,121.772c-37.657,0-68.185-30.527-68.185-68.185c0-6.766,1-13.296,2.836-19.466
	c-17.082,15.241-24.48,38.567-19.69,60.64c0.552,2.543-0.544,5.156-2.798,6.457L265.022,164.7
	c-7.192,4.152-10.076,13.326-6.08,20.606c2.871,5.23,8.345,8.059,13.89,7.835c1.3-0.053,2.502,0.672,3.152,1.799
	c2.462,4.264,8.381,14.517,13.283,23.006c4.167,7.218,13.394,9.687,20.612,5.521c7.266-4.195,9.755-13.486,5.56-20.751
	l-12.599-21.822c-0.732-1.269-0.298-2.89,0.971-3.623l21.596-12.469c1.287-0.743,2.933-0.302,3.676,0.985l7.356,12.74
	c1.41,2.442,4.533,3.279,6.975,1.869l17.38-10.034c2.442-1.41,3.279-4.533,1.869-6.975l-7.294-12.633
	c-0.778-1.347-0.316-3.069,1.031-3.846l34.415-19.87c1.841-1.063,4.149-0.777,5.705,0.673c19.832,18.472,50.128,22.744,74.822,8.487
	c9.51-5.491,17.046-13.083,22.385-21.843C484.445,119.087,473.944,121.772,462.811,121.772z"/>
<g>
	<path style="fill:#C6E0F4;" d="M246.087,494.786l-0.036-0.061l-14.356-33.638c-2.184-3.721-6.694-5.38-10.769-3.96l-25.02,8.72
		c-0.192,0.067-0.396,0.128-0.592,0.194c2.36,0.542,4.481,2.017,5.778,4.227l14.356,24.457c2.083,3.548,3.193,7.588,3.183,11.702
		c-0.003,1.145,0.236,2.232,0.653,3.224c9.594,1.333,19.363,2.118,29.28,2.304v-7.482
		C248.565,501.087,247.79,497.712,246.087,494.786z"/>
	<path style="fill:#C6E0F4;" d="M161.707,470.32c-11.554-0.515-22.114-6.709-28.63-16.265c-6.635-9.731-6.104-12.055-6.104-23.834
		v-10.612c0-16.041-11.83-23.336-13.782-25.864c-23.012-16.775-23.093-39.881-23.093-39.881v-18.507
		c0-1.325-0.836-2.501-2.089-2.935c-7.856-2.724-35.181-13.001-35.181-24.145c0-7.213,23.622-37.36,44.682-62.805
		c13.713-16.568,4.047-34.639,3.627-38.858c-2.382-8.782-3.132-17.928-2.229-26.983C108.853,79.876,196.889,7.375,298.53,0.535
		C293.621,0.188,288.668,0,283.671,0C175.525,0,78.761,74.757,68.306,179.632c-1.832,18.374,3.542,30.337,4.888,36.787
		c2.748,10.132,0.407,20.966-6.286,29.053c-21.061,25.445-44.683,55.592-44.683,62.805c0,11.144,27.325,21.421,35.181,24.145
		c1.252,0.434,2.089,1.61,2.089,2.935v18.507c0,1.476,0.662,2.874,1.803,3.81l12.892,10.57c1.16,0.951,1.666,2.486,1.299,3.94
		l-1.078,4.277c-1.176,4.663,0.231,9.6,3.688,12.943l9.258,8.952c5.76,5.57,9.013,13.24,9.013,21.253
		c0.628,5.995-3.06,24.202,10.184,43.626c6.515,9.556,17.075,15.75,28.63,16.265c10.15,0.452,20.394-1.086,30.118-4.474
		l17.251-6.012C175.364,470.142,167.788,470.591,161.707,470.32z"/>
</g>
<g>
</g>
<g>
</g>
<g>
</g>
<g>
</g>
<g>
</g>
<g>
</g>
<g>
</g>
<g>
</g>
<g>
</g>
<g>
</g>
<g>
</g>
<g>
</g>
<g>
</g>
<g>
</g>
<g>
</g>
</svg>
