<svg id="Capa_1" enable-background="new 0 0 497 497" height="512" viewBox="0 0 497 497" width="512" xmlns="http://www.w3.org/2000/svg"><g><path d="m338.5 45h-60l30-45h22.5c4.142 0 7.5 3.358 7.5 7.5z" fill="#ff5f43"/><path d="m308.5 45h-150v-37.5c0-4.142 3.358-7.5 7.5-7.5h142.5z" fill="#ff8053"/><path d="m458.5 420-60-30 30 107h22.5c4.142 0 7.5-3.358 7.5-7.5z" fill="#c7e3ff"/><path d="m428.5 255-390 165v69.5c0 4.142 3.358 7.5 7.5 7.5h82.5l120-75 120 75h60z" fill="#e5f2ff"/><path d="m458.5 420h-30l-90-142.5 90-142.5h22.5c4.142 0 7.5 3.358 7.5 7.5z" fill="#597dcf"/><path d="m38.5 142.5v277.5h390v-30l-15-15v-195l15-15v-30h-382.5c-4.142 0-7.5 3.358-7.5 7.5z" fill="#6a90e7"/><path d="m338.5 497h30v-137l-90-60z" fill="#ff5f43"/><path d="m338.5 497h-30l-60-45-60 45h-60v-137l210-90z" fill="#ff8053"/><path d="m308.5 420-60 30 30-60h30z" fill="#8ebaff"/><path d="m278.5 450-90-30v-30h90z" fill="#a3d1ff"/><path d="m308.5 497h-30l-45-38.5 45-38.5h30z" fill="#c7e3ff"/><path d="m188.5 420h90v77h-90z" fill="#e5f2ff"/><path d="m368.5 360h-30l-90-165 90-165h22.5c4.142 0 7.5 3.358 7.5 7.5z" fill="#ff8053"/><path d="m128.5 37.5v322.5h210v-30l-30-22.5 30-22.5v-30l-30-22.5 30-22.5v-30l-30-22.5 30-22.5v-30l-30-22.5 30-22.5v-30h-202.5c-4.142 0-7.5 3.358-7.5 7.5z" fill="#ffa061"/><path d="m338.5 105h-30l-75-22.5 75-22.5h30z" fill="#c7e3ff"/><path d="m158.5 60h150v45h-150z" fill="#e5f2ff"/><path d="m338.5 180h-30l-75-22.5 75-22.5h30z" fill="#c7e3ff"/><path d="m158.5 135h150v45h-150z" fill="#e5f2ff"/><path d="m338.5 255h-30l-75-22.5 75-22.5h30z" fill="#c7e3ff"/><path d="m158.5 210h150v45h-150z" fill="#e5f2ff"/><path d="m338.5 330h-30l-75-22.5 75-22.5h30z" fill="#c7e3ff"/><g fill="#e5f2ff"><path d="m158.5 285h150v45h-150z"/><path d="m-29 262.5h225v30h-225z" transform="matrix(0 1 -1 0 361 194)"/><path d="m301 262.5h225v30h-225z" transform="matrix(0 1 -1 0 691 -136)"/></g></g></svg>