<svg id="Layer_1" enable-background="new 0 0 50 50" height="512" viewBox="0 0 50 50" width="512" xmlns="http://www.w3.org/2000/svg"><g><path d="m29.137291 35.5208473-1.2436715 8.087574-.8843364-2.122982-2.0730133 7.5145607-2.3773499-7.8514595-.9120026 2.5273437-1.1886768-8.1550369z" fill="#d6b218"/><path d="m22.1197281 35.5208473 2.6780376 9.3848763 3.0246258-9.3848763z" fill="#f1c40f"/><path d="m32.1010094 22.8053703 1.3921356.762558c-.3846474-.2107029-.8827286-.3350334-1.5269585-.2938919-.1667786.0145874-.5925636-.0822411-.6149731-.0873375l-1.3921452-.7625408c.0224171.0050907.4482002.1019211.6149807.0873318.64423-.0411396 1.1423112.083189 1.5269605.2938804z" fill="#fff"/><path d="m30.8781223 32.3558884-1.3921375-.7625447.4730911-9.1691913 1.3921376.7625465z" fill="#fff"/><path d="m31.3512135 23.1866989c.0224094.0050964.4481945.1019249.6149731.0873375 2.5317726-.1616802 2.806385 2.2322083 2.8094635 2.3801727l-.3304443 6.4255524-3.5670834.2761269z" fill="#d8463f"/><path d="m17.8989925 22.8053703-1.3921356.762558c.3846436-.2107029.8827267-.3350334 1.5269566-.2938919.1667786.0145874.5925636-.0822411.6149731-.0873375l1.3921452-.7625408c-.0224171.0050907-.4482002.1019211-.6149807.0873318-.64423-.0411396-1.1423112.083189-1.5269586.2938804z" fill="#fff"/><path d="m19.1218777 32.3558884 1.3921375-.7625447-.4730911-9.1691913-1.3921376.7625465z" fill="#fff"/><path d="m18.6487865 23.1866989c-.0224094.0050964-.4481945.1019249-.6149731.0873375-2.5317707-.1616802-2.806385 2.2322083-2.8094625 2.3801727l.3304443 6.4255524 3.5670824.2761269z" fill="#d8463f"/><path d="m29.137291 34.9318275-.0033264 1.1178627c-.0018063.6384468-.4214077 1.27565-1.2592621 1.762558-1.6903439.9823189-4.4354248.9823189-6.1368179.0000191-.8546333-.4934235-1.2814732-1.1411934-1.2796383-1.7884254l.0033169-1.1178513c-.0018272.6472244.4250107 1.2949944 1.279644 1.7884178 1.7013931.9822998 4.4464741.9822998 6.1368179-.0000191.8378543-.4869079 1.2574558-1.1241111 1.2592659-1.7625618z" fill="#328eb7"/><path d="m27.8817654 36.6979942c-1.6958504.9758072-4.4433765.9758072-6.1392269 0-1.6959095-.9853477-1.7053928-2.5769958-.0189667-3.5622864 1.686367-.9758644 4.4338932-.9758644 6.1297436.0094833 1.7053928.9758073 1.7148189 2.5674554.02845 3.5528031z" fill="#3498db"/><path d="m30.0720959 31.4209633c-.5208931.9945526-1.1081562 1.9702034-1.7711525 2.917408-.1042957.1515274-.2083588.2936287-.3126526.4451561l-.0189629.0094833c-.1325073.3220749-.4261951.6251869-.8618736.8714104-1.297781.7578125-3.4100285.7578125-4.6886177 0-.4357929-.2462234-.7293663-.5493355-.8621044-.8714104-.0662537-.0946999-.1230259-.1799736-.1799126-.2746696-5.6453047-8.4774952-6.0904627-19.4271812-1.1176376-28.2077885.0662537-.1136599.1230259-.2178388.1893959-.3314986v-.0094819c.786253.606225 1.7050133 1.0703464 2.6901436 1.3261099.5966282.1515274 1.221817.2368016 1.8659668.2368016 1.1176376 0 2.1785011-.2462826 3.1257057-.6914992.606226-.2841496 1.1651592-.6535735 1.6765728-1.0892506h.0094795c.0662537.1136599.1231422.2178383.1800308.3314986 4.2434597 7.8807511 4.2339764 17.4285932.0756188 25.3377309z" fill="#ecf0f1"/><path d="m29.804987 5.7554064c-.5115833.4358311-1.0705242.805337-1.6768837 1.0895495-.9474144.4452572-2.0085144.6915941-3.1264573.6915941-.6442928 0-1.2695599-.0852351-1.866436-.2368536-.9852905-.2558203-1.9043121-.7105608-2.6906242-1.3169198v-.0094838c.8431549-1.4305472 1.9895477-2.9653537 3.1927814-4.3391161.4073811-.4642239.9852905-.6821685 1.5537167-.6253259.4263477.0189668.8526955.2084612 1.184267.5400331 1.3074379 1.3169198 2.5580311 2.6338396 3.4296361 4.2065225z" fill="#5b5e71"/><path d="m28.6776199 13.6095085c0 2.0369062-1.6579762 3.6853981-3.6759739 3.6853981-.7579765 0-1.4685383-.2368526-2.0559311-.6347504-.9758053-.6537189-1.6105576-1.7811441-1.6105576-3.0506477 0-2.0085716 1.6295242-3.6570635 3.6664886-3.6570635.4926167 0 .9568405.0947762 1.3831882.2653036 1.3358881.5495167 2.2927858 1.8663788 2.2927858 3.3917599z" fill="#328eb7"/><path d="m28.8884602 13.608695c0 2.1538868-1.7531948 3.8970518-3.887085 3.8970518-.8015099 0-1.5528774-.2504559-2.1740055-.6712055-1.031847-.6912613-1.7030525-1.8834352-1.7030525-3.2258463 0-2.1239252 1.7231102-3.8670902 3.877058-3.8670902.5209064 0 1.0117912.1002188 1.4626236.2805405 1.4126072.5810756 2.4244614 1.9735651 2.4244614 3.5865497z" fill="#5b5e71"/><path d="m28.5775948 13.6098948c0 1.9814091-1.6128025 3.5849867-3.575819 3.5849867-.7373257 0-1.4285278-.2304001-1.9999161-.6174564-.9492188-.6359081-1.5666771-1.7326155-1.5666771-2.9675303 0-1.9538469 1.5851269-3.5574245 3.5665932-3.5574245.4791946 0 .9307709.0921946 1.3455029.2580757 1.299488.5345449 2.2303161 1.8155278 2.2303161 3.2993488z" fill="#328eb7"/><path d="m27.9232368 13.2596817c0 1.9814091-1.6128025 3.5849876-3.575819 3.5849876-.47925 0-.9308262-.0921383-1.3455582-.2672443-.9492188-.6359081-1.5666771-1.7326155-1.5666771-2.9675303 0-1.9538469 1.5851269-3.5574245 3.5665932-3.5574245.4791946 0 .9307709.0921946 1.3455029.2580757.949276.6451321 1.5759582 1.7233906 1.5759582 2.9491358z" fill="#3498db"/><path d="m22.1946125 25.6041412c-.3532696.3090992-.734169.6403008-.8556328.7562046-3.6709499 3.6323719-3.599184 6.6022053-3.6212864 6.7954693l-.0055256 5.200119-1.1647663-.6790504.0055256-5.2000504c.0165424-.193264-.0496979-3.1630974 3.6212864-6.7954693.1214294-.1159039.5023289-.4471722.8501072-.7562714z" fill="#e74c3c"/><path d="m28.3009434 34.3383713c-.1042957.1515274-.2083588.2936287-.3126526.4451561l-.0189629.0094833c-.1325073.3220749-.4261951.6251869-.8618736.8714104-1.297781.7578125-3.4100285.7578125-4.6886177 0-.4357929-.2462234-.7293663-.5493355-.8621044-.8714104-.0662537-.0946999-.1230259-.1799736-.1799126-.2746696.2178383-.0852737.3694229-.1515846.3694229-.1515846 1.6954193.975647 4.4424515.975647 6.1378689 0 0-.0000001.161068-.0189057.416832-.0283852z" fill="#5b5e71"/><path d="m22.2222424 33.9507103-4.5100746 4.4052238.0055256-5.200119c.0221024-.193264-.0496635-3.1630974 3.6212864-6.7954693.1214638-.1159039.5023632-.4471054.8556328-.7562046z" fill="#d8463f"/><path d="m29.804987 5.7554064c-.5115833.4358311-1.0705242.805337-1.6768837 1.0895495-1.0990334-2.9843786-2.273819-4.8981743-2.9370193-5.8361053.4263477.0189668.8526955.2084612 1.184267.5400331 1.3074378 1.31692 2.558031 2.6338398 3.429636 4.2065227z" fill="#525566" opacity=".5"/><path d="m30.0702915 31.4208889c1.525322-11.4921417-.0852928-19.545166-1.9421883-24.5759335.6063595-.2842126 1.1653004-.6537185 1.6768837-1.0895495h.0094833c4.4244672 7.9393382 4.4718266 17.6408515.2558213 25.665483z" fill="#d4d6d6" opacity=".5"/><path d="m27.400919 25.6041412c.3532715.3090992.7341709.6403008.8556328.7562046 3.6709499 3.6323719 3.599184 6.6022053 3.6212883 6.7954693l.0055256 5.200119 1.1647644-.6790504-.0055237-5.2000504c-.0165443-.193264.0496979-3.1630974-3.6212883-6.7954693-.1214294-.1159039-.5023289-.4471722-.8501072-.7562714z" fill="#e74c3c"/><path d="m27.373291 33.9507103 4.5100746 4.4052238-.0055256-5.200119c-.0221043-.193264.0496616-3.1630974-3.6212883-6.7954693-.1214619-.1159039-.5023613-.4471054-.8556328-.7562046z" fill="#d8463f"/></g></svg>