<svg height="512pt" viewBox="0 -20 512.00093 512" width="512pt" xmlns="http://www.w3.org/2000/svg"><path d="m354.894531 119.632812c1.308594-9.605468-1.203125-19.144531-7.070312-26.855468-5.867188-7.71875-14.382813-12.6875-23.988281-13.992188-9.601563-1.308594-19.140626 1.199219-26.855469 7.066406-7.71875 5.867188-12.6875 14.386719-13.996094 23.988282-1.304687 9.605468 1.203125 19.140625 7.070313 26.855468 3.433593 4.519532 7.777343 8.09375 12.714843 10.542969 3.496094 1.734375 7.292969 2.90625 11.273438 3.449219 9.601562 1.308594 19.140625-1.199219 26.859375-7.066406 7.714844-5.867188 12.683594-14.386719 13.992187-23.988282zm0 0" fill="#0059b2"/><path d="m323.835938 78.785156c-9.601563-1.308594-19.140626 1.199219-26.855469 7.066406-7.71875 5.867188-12.6875 14.386719-13.996094 23.988282-1.304687 9.605468 1.203125 19.140625 7.070313 26.855468 3.433593 4.519532 7.777343 8.09375 12.714843 10.542969.011719.007813.019531.011719.03125.015625l32.273438-65.027344c-3.488281-1.726562-7.265625-2.902343-11.238281-3.441406zm0 0" fill="#176ee5"/><path d="m301.378906 329.320312c-12.609375-16.582031-36.355468-19.816406-52.941406-7.210937-16.582031 12.609375-19.816406 36.355469-7.207031 52.9375 3.574219 4.703125 8.097656 8.425781 13.238281 10.980469 3.640625 1.804687 7.59375 3.027344 11.738281 3.589844 10 1.363281 19.929688-1.25 27.960938-7.359376 16.582031-12.605468 19.816406-36.355468 7.210937-52.9375zm0 0" fill="#176ee5"/><path d="m365.027344 165.207031c-8.550782-22.039062-24.921875-39.964843-46.097656-50.476562-21.175782-10.507813-45.355469-12.707031-68.078126-6.183594-22.722656 6.519531-42.058593 21.199219-54.441406 41.339844l-40.546875 65.953125c-14.09375-2.507813-28.746093 4.40625-35.421875 17.859375l-2.671875 5.382812c-8.105469 16.328125-1.410156 36.210938 14.921875 44.316407l164.539063 81.65625c4.632812 2.296874 9.625 3.460937 14.652343 3.464843 3.554688 0 7.128907-.578125 10.597657-1.746093 8.371093-2.816407 15.144531-8.726563 19.070312-16.636719l2.671875-5.386719c3.925782-7.910156 4.535156-16.875 1.71875-25.246094-1.800781-5.355468-4.867187-10.054687-8.914062-13.773437l27.996094-72.167969c8.550781-22.039062 8.554687-46.316406.003906-68.355469zm0 0" fill="#cc0702"/><path d="m481.128906 247.320312c-8.226562-.980468-15.6875 4.894532-16.671875 13.117188-12.324219 103.292969-100.292969 181.183594-204.621093 181.183594-93.828126 0-174.414063-63.007813-198.652344-150.832032l17.945312 9.855469c7.261719 3.992188 16.382813 1.335938 20.371094-5.925781s1.332031-16.378906-5.925781-20.367188l-46.03125-25.285156c-7.257813-3.980468-16.367188-1.335937-20.363281 5.914063l-25.316407 45.96875c-3.996093 7.257812-1.351562 16.378906 5.902344 20.375 2.296875 1.265625 4.777344 1.863281 7.222656 1.863281 5.292969 0 10.421875-2.804688 13.152344-7.765625l5.867187-10.652344c29.722657 97.5 120.492188 166.851563 225.828126 166.851563 119.511718 0 220.285156-89.261719 234.410156-207.628906.980468-8.226563-4.890625-15.691407-13.117188-16.671876zm0 0" fill="#0059b2"/><path d="m502.9375 128.089844c-7.605469-3.273438-16.433594.230468-19.714844 7.835937l-4.722656 10.953125c-14.773438-36.113281-38.476562-68.425781-69.003906-93.449218-42.039063-34.453126-95.1875-53.429688-149.660156-53.429688-54.472657 0-107.621094 18.976562-149.660157 53.429688-41.457031 33.980468-70.347656 81.398437-81.347656 133.523437-1.710937 8.105469 3.476563 16.066406 11.582031 17.773437 8.09375 1.714844 16.0625-3.472656 17.773438-11.578124 9.59375-45.472657 34.8125-86.851563 71.007812-116.519532 36.691406-30.070312 83.085938-46.628906 130.644532-46.628906 47.558593 0 93.953124 16.558594 130.644531 46.628906 28.195312 23.113282 49.730469 53.332032 62.40625 87.058594l-18.992188-8.167969c-7.605469-3.269531-16.433593.242188-19.703125 7.851563-3.273437 7.609375.238282 16.433594 7.851563 19.707031l48.25 20.753906c1.933593.828125 3.941406 1.222657 5.917969 1.222657 5.808593 0 11.335937-3.390626 13.78125-9.0625l20.777343-48.1875c3.28125-7.609376-.226562-16.433594-7.832031-19.714844zm0 0" fill="#0059b2"/><path d="m61.183594 290.789062 17.945312 9.855469c7.261719 3.988281 16.382813 1.335938 20.371094-5.925781s1.332031-16.378906-5.925781-20.367188l-46.03125-25.285156c-7.257813-3.984375-16.367188-1.339844-20.363281 5.910156l-25.316407 45.972657c-3.996093 7.257812-1.351562 16.378906 5.902344 20.375 2.296875 1.265625 4.777344 1.863281 7.222656 1.863281 5.292969 0 10.421875-2.804688 13.152344-7.765625l5.867187-10.652344c29.363282 96.3125 118.292969 165.152344 221.992188 166.8125v-30c-92.183594-1.691406-170.90625-64.167969-194.816406-150.792969zm0 0" fill="#176ee5"/><path d="m110.175781 53.429688c-41.457031 33.980468-70.347656 81.398437-81.347656 133.523437-1.710937 8.105469 3.476563 16.066406 11.582031 17.773437 8.09375 1.714844 16.0625-3.472656 17.773438-11.578124 9.59375-45.472657 34.8125-86.851563 71.007812-116.519532 35.703125-29.261718 80.597656-45.722656 126.808594-46.585937v-30.0000002c-53.128906.8671872-104.773438 19.7421872-145.824219 53.3867192zm0 0" fill="#176ee5"/><path d="m318.929688 114.730469c-21.175782-10.507813-45.355469-12.707031-68.078126-6.183594-22.722656 6.519531-42.054687 21.199219-54.4375 41.339844l-40.550781 65.953125c-14.09375-2.503906-28.746093 4.410156-35.421875 17.859375l-2.667968 5.382812c-8.105469 16.328125-1.414063 36.210938 14.917968 44.316407l82.269532 40.828124 103.980468-209.492187c-.003906 0-.007812 0-.011718-.003906zm0 0" fill="#ff2a00"/></svg>