<?xml version="1.0" encoding="iso-8859-1"?>
<!-- Generator: Adobe Illustrator 19.0.0, SVG Export Plug-In . SVG Version: 6.00 Build 0)  -->
<svg version="1.1" id="Capa_1" xmlns="http://www.w3.org/2000/svg" xmlns:xlink="http://www.w3.org/1999/xlink" x="0px" y="0px"
	 viewBox="0 0 512 512" style="enable-background:new 0 0 512 512;" xml:space="preserve">
<circle style="fill:#0088FF;" cx="256" cy="256" r="256"/>
<path style="fill:#004EB2;" d="M511.943,260.513l-67.353-67.625c-5.223-5.757-12.751-9.388-21.09-9.388h-12.413L318.15,90.419
	c-5.202-5.484-12.545-8.919-20.654-8.919h-83c-15.675,0-28.5,12.825-28.5,28.5v29c0,8.055,3.389,15.354,8.809,20.549l56.403,56.054
	c0.013,0.017,0.04,35.903,0.04,35.903l-58.046-57.919c-5.238-6.16-13.033-10.087-21.704-10.087h-83C72.825,183.5,60,196.325,60,212
	v27c0,8.055,3.389,15.354,8.809,20.549l56.404,56.054c0.012,0.016,0.037,28.351,0.037,28.351
	c-7.816,1.497-14.342,6.616-17.767,13.545H70.806v22.211l125.202,125.202C215.253,509.535,235.337,512,256,512
	C395.876,512,509.533,399.814,511.943,260.513z"/>
<rect x="125.25" y="225.5" style="fill:#FFFFFF;" width="9.5" height="132"/>
<rect x="130" y="225.5" style="fill:#FFF5CB;" width="4.75" height="132"/>
<rect x="251.25" y="153.5" style="fill:#FFFFFF;" width="9.5" height="204"/>
<rect x="256" y="153.5" style="fill:#FFF5CB;" width="4.75" height="204"/>
<rect x="377.25" y="225.62" style="fill:#FFFFFF;" width="9.5" height="131.88"/>
<rect x="382" y="225.5" style="fill:#FFF5CB;" width="4.75" height="132"/>
<rect x="70.806" y="357.5" style="fill:#FFFFFF;" width="370.39" height="22.21"/>
<rect x="256" y="357.5" style="fill:#FFF5CB;" width="185.19" height="22.21"/>
<circle style="fill:#FFE047;" cx="130" cy="368.61" r="25.11"/>
<path style="fill:#FFAA20;" d="M155.11,368.61c0,13.86-11.24,25.1-25.11,25.1V343.5c1.63,0,3.21,0.15,4.75,0.45
	C146.35,346.17,155.11,356.36,155.11,368.61z"/>
<circle style="fill:#FFE047;" cx="382" cy="368.61" r="25.11"/>
<circle style="fill:#00E8F2;" cx="256" cy="368.61" r="25.11"/>
<path style="fill:#00B7BE;" d="M281.11,368.61c0,3.99-0.93,7.76-2.59,11.1c-4.09,8.29-12.64,14-22.52,14V343.5
	c1.63,0,3.21,0.15,4.75,0.45c7.82,1.5,14.35,6.62,17.77,13.55C280.18,360.85,281.11,364.62,281.11,368.61z"/>
<path style="fill:#FFE047;" d="M171.5,267.5h-83C72.825,267.5,60,254.675,60,239v-27c0-15.675,12.825-28.5,28.5-28.5h83
	c15.675,0,28.5,12.825,28.5,28.5v27C200,254.675,187.175,267.5,171.5,267.5z"/>
<g>
	<path style="fill:#FFAA20;" d="M200,212v27c0,15.67-12.83,28.5-28.5,28.5H130v-84h41.5C187.17,183.5,200,196.33,200,212z"/>
	<path style="fill:#FFAA20;" d="M407.105,368.61c0,13.86-11.24,25.1-25.11,25.1V343.5c1.63,0,3.21,0.15,4.75,0.45
		C398.345,346.17,407.105,356.36,407.105,368.61z"/>
</g>
<path style="fill:#FFE047;" d="M423.5,267.5h-83c-15.675,0-28.5-12.825-28.5-28.5v-27c0-15.675,12.825-28.5,28.5-28.5h83
	c15.675,0,28.5,12.825,28.5,28.5v27C452,254.675,439.175,267.5,423.5,267.5z"/>
<path style="fill:#FFAA20;" d="M452,212v27c0,15.67-12.83,28.5-28.5,28.5H382v-84h41.5C439.17,183.5,452,196.33,452,212z"/>
<path style="fill:#00E8F2;" d="M297.497,167.5h-83c-15.675,0-28.5-12.825-28.5-28.5v-29c0-15.675,12.825-28.5,28.5-28.5h83
	c15.675,0,28.5,12.825,28.5,28.5v29C325.997,154.675,313.172,167.5,297.497,167.5z"/>
<path style="fill:#00B7BE;" d="M326,110v29c0,15.67-12.83,28.5-28.5,28.5H256v-86h41.5C313.17,81.5,326,94.33,326,110z"/>
<g>
</g>
<g>
</g>
<g>
</g>
<g>
</g>
<g>
</g>
<g>
</g>
<g>
</g>
<g>
</g>
<g>
</g>
<g>
</g>
<g>
</g>
<g>
</g>
<g>
</g>
<g>
</g>
<g>
</g>
</svg>
