<?xml version="1.0" encoding="iso-8859-1"?>
<!-- Generator: Adobe Illustrator 19.0.0, SVG Export Plug-In . SVG Version: 6.00 Build 0)  -->
<svg version="1.1" id="Capa_1" xmlns="http://www.w3.org/2000/svg" xmlns:xlink="http://www.w3.org/1999/xlink" x="0px" y="0px"
	 viewBox="0 0 490.667 490.667" style="enable-background:new 0 0 490.667 490.667;" xml:space="preserve">
<path style="fill:#49AAEE;" d="M425.6,256.64c36.693,4.8,65.067,36.053,65.067,74.027c0,41.28-33.387,74.667-74.667,74.667H106.667
	C47.787,405.333,0,357.547,0,298.667S47.787,192,106.667,192c0-76.587,62.08-138.667,138.667-138.667
	c74.24,0,134.613,58.347,138.347,131.627c24.96,8.64,42.987,32.427,42.987,60.373C426.667,249.173,426.24,253.013,425.6,256.64z"/>
<path style="fill:#FED049;" d="M330.667,256v85.333c0,17.707-14.293,32-32,32H192c-17.707,0-32-14.293-32-32V256
	c0-17.707,14.293-32,32-32h106.667C316.373,224,330.667,238.293,330.667,256z"/>
<path style="fill:#A4B0C0;" d="M352,362.667v64c0,10.667-10.667,10.667-10.667,10.667s-181.333,0-192,0
	c-10.667,0-10.667-10.667-10.667-10.667v-64c0-5.867,4.8-10.667,10.667-10.667h192C347.2,352,352,356.8,352,362.667z"/>
<path style="fill:#F6B445;" d="M245.333,320c5.888,0,10.667-4.768,10.667-10.667V288h10.667c5.888,0,10.667-4.768,10.667-10.667
	s-4.779-10.667-10.667-10.667H224c-5.888,0-10.667,4.768-10.667,10.667S218.112,288,224,288h10.667v21.333
	C234.667,315.232,239.445,320,245.333,320z"/>
<g>
	<path style="fill:#768BA0;" d="M202.667,405.333H224c5.888,0,10.667-4.768,10.667-10.667S229.888,384,224,384h-21.333
		c-5.888,0-10.667,4.768-10.667,10.667S196.779,405.333,202.667,405.333z"/>
	<path style="fill:#768BA0;" d="M266.667,405.333H288c5.888,0,10.667-4.768,10.667-10.667S293.888,384,288,384h-21.333
		c-5.888,0-10.667,4.768-10.667,10.667S260.779,405.333,266.667,405.333z"/>
	<path style="fill:#768BA0;" d="M298.667,181.333c0-23.477-19.136-32-32-32H224c-23.477,0-32,19.136-32,32V224h21.333v-42.539
		c0.128-4.928,2.08-10.795,10.667-10.795h42.539c4.928,0.128,10.795,2.08,10.795,10.667V224h21.333L298.667,181.333z"/>
</g>
<g>
</g>
<g>
</g>
<g>
</g>
<g>
</g>
<g>
</g>
<g>
</g>
<g>
</g>
<g>
</g>
<g>
</g>
<g>
</g>
<g>
</g>
<g>
</g>
<g>
</g>
<g>
</g>
<g>
</g>
</svg>
