<svg id="Capa_1" enable-background="new 0 0 512 512" height="512" viewBox="0 0 512 512" width="512" xmlns="http://www.w3.org/2000/svg"><path d="m411.234 435.315h-310.468c-55.562 0-100.766-45.204-100.766-100.767v-157.096c0-55.563 45.204-100.766 100.766-100.766h310.468c55.563 0 100.766 45.203 100.766 100.766v157.097c0 55.562-45.203 100.766-100.766 100.766z" fill="#fc4444"/><path d="m411.234 76.686h-155.234v358.629h155.234c55.563 0 100.766-45.204 100.766-100.766v-157.097c0-55.563-45.203-100.766-100.766-100.766z" fill="#f00"/><path d="m206.297 342.07c-.854 0-1.699-.221-2.444-.638-1.576-.883-2.556-2.555-2.556-4.362v-164.08c0-1.819.989-3.497 2.582-4.376.739-.408 1.575-.624 2.418-.624.942 0 1.862.265 2.66.767l132.22 83.131c1.474.927 2.349 2.521 2.338 4.264-.011 1.74-.904 3.324-2.39 4.233l-132.217 80.95c-.785.48-1.689.735-2.611.735z" fill="#fff"/><path d="m341.177 251.887-85.177-53.554v114.169l85.125-52.118c1.485-.91 2.379-2.493 2.39-4.233.01-1.743-.865-3.337-2.338-4.264z" fill="#e6ecf4"/></svg>