<svg id="Capa_1" enable-background="new 0 0 511.991 511.991" height="512" viewBox="0 0 511.991 511.991" width="512" xmlns="http://www.w3.org/2000/svg"><g><g><path d="m383.761 377.247h-255.532c-8.421 0-15.247 6.826-15.247 15.247v9.39c0 8.421 6.826 15.247 15.247 15.247h255.532c8.421 0 15.247-6.826 15.247-15.247v-9.39c.001-8.421-6.826-15.247-15.247-15.247z" fill="#d9a889"/><path d="m389.038 397.189h-266.085c-5.507 0-9.971 4.464-9.971 9.971 0 5.507 4.464 9.971 9.971 9.971h266.084c5.507 0 9.971-4.464 9.971-9.971.001-5.507-4.464-9.971-9.97-9.971z" fill="#d0926d"/><path d="m141.558 159.351h46.94v140.83h-46.94z" fill="#d9a889"/><path d="m141.554 159.349h18.741v140.831h-18.741z" fill="#d0926d"/><path d="m141.558 159.351h46.94v47.76c-15.64-.37-31.29-.89-46.94-1.53z" fill="#d0926d"/><path d="m323.498 159.351h46.94v140.83h-46.94z" fill="#d9a889"/><path d="m370.438 159.351v46.23c-15.65.64-31.29 1.16-46.94 1.53v-47.76z" fill="#d0926d"/><path d="m323.495 159.349h18.741v140.831h-18.741z" fill="#d0926d"/><path d="m179.208 300.181c-5.99 15.96-11.63 33.4-16.82 51.15-21.64 73.93-35.62 153.16-35.62 153.16h-43.89c0-48.55 8.67-105.2 18.3-153.16 3.76-18.7 7.66-36.08 11.25-51.15z" fill="#d9a889"/><path d="m112.428 300.181h66.78c-5.99 15.96-11.63 33.4-16.82 51.15h-61.21c3.76-18.7 7.661-36.08 11.25-51.15z" fill="#d0926d"/><path d="m429.109 504.491h-43.89s-13.98-79.23-35.62-153.16c-5.19-17.75-10.83-35.19-16.82-51.15h66.78c3.59 15.07 7.49 32.45 11.25 51.15 9.629 47.96 18.3 104.61 18.3 153.16z" fill="#d9a889"/><g fill="#d0926d"><path d="m134.089 300.181c-12.8 53.7-29.55 136.83-29.55 204.31h-21.66c0-67.48 16.74-150.61 29.54-204.31z"/><path d="m406.878 504.491h-21.66s-21.49-121.84-52.44-204.31h21.66c30.96 82.47 52.44 204.31 52.44 204.31z"/><path d="m410.808 351.331h-61.21c-5.19-17.75-10.83-35.19-16.82-51.15h66.78c3.59 15.07 7.49 32.45 11.25 51.15z"/></g><path d="m411.028 250.466h-310.065c-14.619 0-26.471 11.851-26.471 26.471v26.36c0 14.619 11.851 26.471 26.471 26.471h310.065c14.619 0 26.471-11.851 26.471-26.471v-26.36c-.001-14.62-11.852-26.471-26.471-26.471z" fill="#eddc54"/><path d="m170.942 329.767h-69.98c-14.61 0-26.47-11.85-26.47-26.47v-26.36c0-14.62 11.86-26.48 26.47-26.48h69.98c-14.62 0-26.47 11.86-26.47 26.48v26.36c0 14.62 11.85 26.47 26.47 26.47z" fill="#eab14d"/><path d="m384.009 10.442c-85.342-3.934-170.685-3.934-256.027 0-20.496.945-37.339 16.542-39.836 36.907-4.157 33.901-4.157 67.803 0 101.704 2.497 20.365 19.341 35.962 39.836 36.907 85.342 3.934 170.685 3.934 256.027 0 20.496-.945 37.339-16.542 39.836-36.907 4.157-33.901 4.157-67.803 0-101.704-2.497-20.365-19.341-35.962-39.836-36.907z" fill="#eddc54"/><path d="m141.42 186.541c-4.48-.18-8.96-.37-13.44-.58-20.5-.95-37.34-16.54-39.84-36.91-4.15-33.9-4.15-67.8 0-101.7 2.5-20.37 19.34-35.96 39.84-36.91 4.48-.21 8.96-.4 13.44-.58-13.14 6.46-22.68 19.21-24.55 34.52-4.4 35.88-4.4 71.76 0 107.64 1.87 15.31 11.41 28.06 24.55 34.52z" fill="#eab14d"/></g><path d="m444.998 303.297v-26.36c0-18.731-15.239-33.971-33.971-33.971h-33.089v-49.236c2.138-.094 4.278-.178 6.414-.277 24.243-1.124 43.982-19.414 46.938-43.489 4.214-34.348 4.214-69.18 0-103.527-2.955-24.076-22.695-42.365-46.938-43.488-8.929-.412-17.709-.773-26.098-1.073-4.135-.152-7.616 3.087-7.763 7.227-.148 4.14 3.087 7.615 7.227 7.763 8.337.298 17.065.657 25.94 1.067 16.912.783 30.683 13.54 32.743 30.331 4.066 33.135 4.066 66.738 0 99.873-2.061 16.792-15.831 29.548-32.741 30.332-84.71 3.901-170.616 3.901-255.327 0-16.912-.784-30.683-13.54-32.743-30.332-4.066-33.135-4.066-66.738 0-99.873 2.061-16.792 15.831-29.548 32.741-30.331 66.131-3.046 133.245-3.725 199.481-2.015 4.145.086 7.584-3.164 7.691-7.304.107-4.141-3.164-7.584-7.304-7.691-66.591-1.718-134.07-1.036-200.56 2.025-24.243 1.124-43.982 19.413-46.938 43.488-4.214 34.348-4.214 69.18 0 103.527 2.955 24.075 22.695 42.365 46.939 43.489 2.138.098 4.279.183 6.418.277v49.236h-33.095c-18.731 0-33.971 15.239-33.971 33.971v26.36c0 17.211 12.869 31.463 29.487 33.666-1.685 8.003-3.304 16.016-4.829 23.917-.785 4.067 1.876 8 5.943 8.785.48.093.958.137 1.429.137 3.522 0 6.664-2.494 7.356-6.081 1.686-8.736 3.49-17.608 5.371-26.454h47.015c-19.932 64.949-34.242 138.263-38.25 159.723h-30.07c.528-29.535 4.125-64.504 10.71-104.089.68-4.086-2.082-7.95-6.167-8.629-4.086-.682-7.95 2.082-8.629 6.167-7.287 43.803-10.981 82.175-10.981 114.051 0 4.142 3.358 7.5 7.5 7.5h43.89c3.64 0 6.754-2.613 7.386-6.198.102-.579 6.397-36.001 16.922-81.162h209.831c10.528 45.16 16.826 80.584 16.928 81.163.632 3.584 3.747 6.197 7.386 6.197h43.89c4.142 0 7.5-3.358 7.5-7.5 0-31.052-3.724-85.013-21.104-167.527 16.62-2.198 29.492-16.452 29.492-33.665zm-82.06-60.331h-31.94v-47.583c10.659-.285 21.307-.631 31.94-1.038zm-46.94-47.221v47.221h-120v-47.221c19.979.427 39.987.649 59.997.649 20.012.001 40.022-.222 60.003-.649zm-166.94-1.399c10.633.407 21.281.753 31.94 1.038v47.583h-31.94zm188.445 142.922c3.332 10.648 6.514 21.566 9.522 32.483h-182.074c3.007-10.916 6.189-21.835 9.52-32.483zm-182.859 72.363c1.976-8.127 4.071-16.463 6.277-24.88h190.134c2.206 8.417 4.302 16.753 6.278 24.88zm236.824 87.36c-4.01-21.461-18.327-94.782-38.26-159.723h47.028c9.585 45.087 20.345 106.729 21.303 159.723zm38.53-193.694c0 10.46-8.51 18.971-18.971 18.971h-310.064c-10.46 0-18.971-8.51-18.971-18.971v-26.36c0-10.46 8.51-18.971 18.971-18.971h310.064c10.46 0 18.971 8.51 18.971 18.971z"/></g></svg>