<svg id="Capa_1" enable-background="new 0 0 512 512" height="512" viewBox="0 0 512 512" width="512" xmlns="http://www.w3.org/2000/svg"><g><g><path d="m95.677 384.258-8.037 111.65c-.334 4.642 3.342 8.592 7.995 8.592h9.058c3.733 0 6.971-2.576 7.811-6.213l22.614-97.996z" fill="#f6d190"/><path d="m92.953 422.113c5.388 1.446 11.042 2.226 16.87 2.226h19.747l5.548-24.048-39.441-16.032z" fill="#ecbd83"/><path d="m415.683 384.258 8.037 111.65c.334 4.642-3.342 8.592-7.995 8.592h-9.058c-3.733 0-6.971-2.576-7.811-6.213l-22.614-97.996z" fill="#f6d190"/><path d="m418.407 422.113c-5.388 1.446-11.042 2.226-16.87 2.226h-19.747l-5.548-24.048 39.441-16.032z" fill="#ecbd83"/><path d="m93.552 413.788c5.179 1.553 10.603 2.534 16.272 2.534h21.596l3.7-16.032-39.441-16.032z" fill="#ecbd83"/><path d="m427.446 60.318c-1.745-29.66-26.306-52.818-56.016-52.818h-230.86c-29.711 0-54.272 23.158-56.016 52.818l-12.925 219.73 16.032 48.097h336.677l16.032-48.097z" fill="#b3e59f"/><path d="m108.603 60.318c1.745-29.66 26.306-52.818 56.016-52.818h-24.049c-29.71 0-54.271 23.158-56.016 52.818l-12.925 219.73h24.048z" fill="#95d6a4"/><path d="m430.306 259.266c-4.957 2.807-8.724 7.374-11.037 12.58l-16.606 37.365c-2.572 5.787-8.31 9.518-14.644 9.521l-263.974.112c-6.338.003-12.083-3.729-14.657-9.521l-16.656-37.477c-2.314-5.206-6.08-9.773-11.037-12.58-17.69-10.019-34.302 4.766-30.782 20.604l19.785 89.034c4.075 18.338 20.34 31.386 39.126 31.386h292.354c18.786 0 35.051-13.047 39.126-31.386l19.785-89.034c3.519-15.837-13.093-30.622-30.783-20.604z" fill="#95d6a4"/><path d="m384.258 344.177h-256.516c-8.854 0-16.032-7.178-16.032-16.032 0-8.854 7.178-16.032 16.032-16.032h256.516c8.854 0 16.032 7.178 16.032 16.032 0 8.855-7.178 16.032-16.032 16.032z" fill="#78c2a4"/></g><g><path d="m463.091 258.648c-5.174-6.449-12.883-10.148-21.151-10.148-12.454 0-23.771 7.354-28.829 18.735l-17.834 40.125c-3.29-1.751-7.04-2.748-11.019-2.748h-256.516c-3.98 0-7.73.997-11.02 2.748l-17.833-40.126c-3.731-8.394-10.87-14.586-19.355-17.264l12.225-189.487c1.645-25.504 22.954-45.483 48.512-45.483h231.459c25.558 0 46.866 19.979 48.512 45.483l10.577 163.936c.267 4.133 3.834 7.277 7.967 7.001 4.133-.267 7.268-3.834 7.001-7.967l-10.577-163.936c-2.153-33.374-30.037-59.517-63.481-59.517h-231.458c-33.443 0-61.328 26.143-63.48 59.517l-12.23 189.549c-6.124 1.257-11.648 4.591-15.652 9.582-5.173 6.449-7.112 14.777-5.318 22.849l19.785 89.034c3.119 14.037 12.068 25.356 23.991 31.695l-7.159 93.068c-.331 4.295 1.159 8.572 4.085 11.732 2.928 3.161 7.077 4.974 11.385 4.974h9.015c7.268 0 13.485-4.946 15.119-12.027l21.273-92.183h229.854l21.273 92.183c1.634 7.082 7.852 12.027 15.119 12.027h9.015c4.308 0 8.458-1.813 11.384-4.974 2.927-3.161 4.417-7.437 4.086-11.732l-7.16-93.081c11.912-6.341 20.851-17.655 23.968-31.682l19.785-89.034c1.794-8.071-.144-16.399-5.318-22.849zm-357.895 237.952c-.054.236-.261.4-.503.4h-9.015c-.062 0-.226 0-.378-.166-.153-.165-.141-.328-.136-.39l6.868-89.287c2.539.412 5.141.633 7.791.633h15.867zm311.665-.156c.005.062.018.225-.136.391s-.317.165-.379.165h-9.015c-.242 0-.448-.165-.502-.4l-20.495-88.81h15.843c2.659 0 5.269-.222 7.815-.636zm36.906-218.201-19.785 89.034c-3.338 15.022-16.417 25.513-31.805 25.513h-292.354c-15.388 0-28.467-10.491-31.805-25.513l-19.785-89.034c-.801-3.606.065-7.327 2.376-10.209 2.312-2.882 5.756-4.534 9.45-4.534 6.533 0 12.469 3.857 15.122 9.827l20.605 46.362c-1.015 2.626-1.578 5.476-1.578 8.456 0 12.976 10.557 23.532 23.532 23.532h8.016c4.142 0 7.5-3.358 7.5-7.5s-3.358-7.5-7.5-7.5h-8.016c-4.705 0-8.532-3.828-8.532-8.532 0-4.705 3.828-8.532 8.532-8.532h256.517c4.705 0 8.532 3.828 8.532 8.532 0 4.705-3.828 8.532-8.532 8.532h-216.434c-4.142 0-7.5 3.358-7.5 7.5s3.358 7.5 7.5 7.5h216.435c12.976 0 23.532-10.557 23.532-23.532 0-2.98-.563-5.83-1.578-8.456l20.605-46.362c2.653-5.97 8.589-9.828 15.122-9.827 3.694 0 7.139 1.653 9.45 4.534 2.313 2.882 3.179 6.603 2.378 10.209z"/><path d="m277.335 226.648c-2.929-2.929-7.678-2.929-10.606 0l-10.729 10.729-10.729-10.729c-2.929-2.929-7.678-2.929-10.606 0-2.929 2.929-2.929 7.677 0 10.606l10.729 10.729-10.729 10.729c-2.929 2.929-2.929 7.677 0 10.606 1.464 1.465 3.384 2.197 5.303 2.197s3.839-.732 5.303-2.197l10.729-10.728 10.729 10.729c1.464 1.465 3.384 2.197 5.303 2.197s3.839-.732 5.303-2.197c2.929-2.929 2.929-7.677 0-10.606l-10.729-10.729 10.729-10.729c2.93-2.929 2.93-7.678 0-10.607z"/><path d="m277.335 146.487c-2.929-2.929-7.678-2.929-10.606 0l-10.729 10.729-10.729-10.729c-2.929-2.929-7.678-2.929-10.606 0-2.929 2.929-2.929 7.677 0 10.606l10.729 10.729-10.729 10.729c-2.929 2.929-2.929 7.677 0 10.606 1.464 1.465 3.384 2.197 5.303 2.197s3.839-.732 5.303-2.197l10.729-10.728 10.729 10.729c1.464 1.465 3.384 2.197 5.303 2.197s3.839-.732 5.303-2.197c2.929-2.929 2.929-7.677 0-10.606l-10.729-10.729 10.729-10.729c2.93-2.929 2.93-7.678 0-10.607z"/><path d="m277.335 66.326c-2.929-2.929-7.678-2.929-10.606 0l-10.729 10.729-10.729-10.729c-2.929-2.929-7.678-2.929-10.606 0-2.929 2.929-2.929 7.677 0 10.606l10.729 10.729-10.729 10.729c-2.929 2.929-2.929 7.677 0 10.606 1.464 1.465 3.384 2.197 5.303 2.197s3.839-.732 5.303-2.197l10.729-10.728 10.729 10.729c1.464 1.465 3.384 2.197 5.303 2.197s3.839-.732 5.303-2.197c2.929-2.929 2.929-7.677 0-10.606l-10.729-10.729 10.729-10.729c2.93-2.93 2.93-7.678 0-10.607z"/><path d="m357.497 226.648c-2.929-2.929-7.678-2.929-10.606 0l-10.729 10.729-10.729-10.729c-2.929-2.929-7.678-2.929-10.606 0-2.929 2.929-2.929 7.677 0 10.606l10.729 10.729-10.729 10.729c-2.929 2.929-2.929 7.677 0 10.606 1.464 1.465 3.384 2.197 5.303 2.197s3.839-.732 5.303-2.197l10.729-10.729 10.729 10.729c1.464 1.465 3.384 2.197 5.303 2.197s3.839-.732 5.303-2.197c2.929-2.929 2.929-7.677 0-10.606l-10.729-10.729 10.729-10.729c2.929-2.928 2.929-7.677 0-10.606z"/><path d="m357.497 146.487c-2.929-2.929-7.678-2.929-10.606 0l-10.729 10.729-10.729-10.729c-2.929-2.929-7.678-2.929-10.606 0-2.929 2.929-2.929 7.677 0 10.606l10.729 10.729-10.729 10.729c-2.929 2.929-2.929 7.677 0 10.606 1.464 1.465 3.384 2.197 5.303 2.197s3.839-.732 5.303-2.197l10.729-10.729 10.729 10.729c1.464 1.465 3.384 2.197 5.303 2.197s3.839-.732 5.303-2.197c2.929-2.929 2.929-7.677 0-10.606l-10.729-10.729 10.729-10.729c2.929-2.928 2.929-7.677 0-10.606z"/><path d="m357.497 66.326c-2.929-2.929-7.678-2.929-10.606 0l-10.729 10.729-10.729-10.729c-2.929-2.929-7.678-2.929-10.606 0-2.929 2.929-2.929 7.677 0 10.606l10.729 10.729-10.73 10.729c-2.929 2.929-2.929 7.677 0 10.606 1.464 1.465 3.384 2.197 5.303 2.197s3.839-.732 5.303-2.197l10.729-10.729 10.729 10.729c1.464 1.465 3.384 2.197 5.303 2.197s3.839-.732 5.303-2.197c2.929-2.929 2.929-7.677 0-10.606l-10.729-10.729 10.729-10.729c2.93-2.929 2.93-7.677.001-10.606z"/><path d="m197.174 226.648c-2.929-2.929-7.678-2.929-10.606 0l-10.729 10.729-10.729-10.729c-2.929-2.929-7.678-2.929-10.606 0-2.929 2.929-2.929 7.677 0 10.606l10.729 10.729-10.729 10.729c-2.929 2.929-2.929 7.677 0 10.606 1.464 1.465 3.384 2.197 5.303 2.197s3.839-.732 5.303-2.197l10.729-10.729 10.729 10.729c1.464 1.465 3.384 2.197 5.303 2.197s3.839-.732 5.303-2.197c2.929-2.929 2.929-7.677 0-10.606l-10.729-10.729 10.729-10.729c2.93-2.928 2.93-7.677 0-10.606z"/><path d="m197.174 146.487c-2.929-2.929-7.678-2.929-10.606 0l-10.729 10.729-10.729-10.729c-2.929-2.929-7.678-2.929-10.606 0-2.929 2.929-2.929 7.677 0 10.606l10.729 10.729-10.729 10.729c-2.929 2.929-2.929 7.677 0 10.606 1.464 1.465 3.384 2.197 5.303 2.197s3.839-.732 5.303-2.197l10.729-10.729 10.729 10.729c1.464 1.465 3.384 2.197 5.303 2.197s3.839-.732 5.303-2.197c2.929-2.929 2.929-7.677 0-10.606l-10.729-10.729 10.729-10.729c2.93-2.928 2.93-7.677 0-10.606z"/><path d="m197.174 66.326c-2.929-2.929-7.678-2.929-10.606 0l-10.729 10.729-10.729-10.729c-2.929-2.929-7.678-2.929-10.606 0-2.929 2.929-2.929 7.677 0 10.606l10.729 10.729-10.73 10.729c-2.929 2.929-2.929 7.677 0 10.606 1.464 1.465 3.384 2.197 5.303 2.197s3.839-.732 5.303-2.197l10.729-10.729 10.729 10.729c1.464 1.465 3.384 2.197 5.303 2.197s3.839-.732 5.303-2.197c2.929-2.929 2.929-7.677 0-10.606l-10.729-10.729 10.729-10.729c2.931-2.929 2.931-7.677.001-10.606z"/></g></g></svg>