<svg id="Capa_1" enable-background="new 0 0 512 512" height="512" viewBox="0 0 512 512" width="512" xmlns="http://www.w3.org/2000/svg"><g><g fill="#986b54"><path d="m92.447 502.416c-3.512 0-6.689-2.41-7.519-5.978l-5.303-22.81c-.966-4.156 1.621-8.309 5.777-9.275 4.153-.966 8.309 1.62 9.276 5.776l5.303 22.81c.966 4.156-1.621 8.309-5.777 9.275-.589.136-1.178.202-1.757.202z"/><path d="m417.295 502.416c-.579 0-1.168-.065-1.757-.202-4.156-.966-6.742-5.119-5.777-9.275l5.303-22.81c.967-4.156 5.121-6.742 9.276-5.776 4.156.966 6.742 5.119 5.777 9.275l-5.303 22.81c-.83 3.567-4.007 5.978-7.519 5.978z"/></g><path d="m481.661 466.923c-150.437 14.423-300.885 14.423-451.322 0-15.628-123.776-16.493-247.542-2.596-371.319.804-7.283 1.679-14.577 2.596-21.86 150.437-14.412 300.885-14.412 451.322 0 .917 7.283 1.793 14.577 2.596 21.86 13.897 123.777 13.032 247.543-2.596 371.319z" fill="#aa7a63"/><g fill="#986b54"><path d="m53.384 91.741c-12.259 125.826-11.579 251.632 2.081 377.459-8.375-.711-16.751-1.473-25.126-2.277-15.628-123.777-16.493-247.542-2.596-371.319.803-7.283 1.679-14.577 2.596-21.86 8.375-.804 16.761-1.556 25.136-2.267-.741 6.758-1.442 13.506-2.091 20.264z"/><path d="m484.257 95.604h-456.514c.804-7.283 1.679-14.577 2.596-21.86 150.437-14.412 300.885-14.412 451.322 0 .917 7.283 1.793 14.577 2.596 21.86z"/><path d="m451.617 330.494c-1.288 32.842-3.637 65.653-7.047 98.351-62.759 5.099-126.043 7.685-188.564 7.685-62.532 0-125.816-2.586-188.574-7.685-3.41-32.698-5.759-65.509-7.047-98.351 65.19 1.597 130.761 2.411 195.621 2.411 64.86-.001 130.421-.815 195.611-2.411z"/><path d="m451.617 210.168c-65.19-1.597-130.75-2.4-195.611-2.4-64.86 0-130.431.804-195.621 2.4 1.288-32.842 3.637-65.643 7.047-98.341 62.759-5.11 126.043-7.685 188.574-7.685 62.522 0 125.806 2.575 188.564 7.685 3.41 32.698 5.759 65.499 7.047 98.341z"/><path d="m451.627 330.494h-.01"/><path d="m451.627 210.168h-.01"/></g><path d="m492.833 74.935h-473.666c-10.586 0-19.167-8.581-19.167-19.167v-27.017c0-10.585 8.581-19.167 19.167-19.167h473.667c10.586 0 19.167 8.581 19.167 19.167v27.017c-.001 10.586-8.582 19.167-19.168 19.167z" fill="#aa7a63"/><path d="m55.228 74.934h-36.056c-10.591 0-19.172-8.581-19.172-19.161v-27.022c0-10.58 8.581-19.161 19.172-19.161h36.056c-10.59 0-19.172 8.581-19.172 19.161v27.022c0 10.58 8.582 19.161 19.172 19.161z" fill="#986b54"/><g><circle cx="256.001" cy="384.583" fill="#eddc54" r="22.385"/><path d="m263.395 405.717c-2.315.812-4.802 1.252-7.393 1.252-12.368 0-22.386-10.019-22.386-22.386 0-12.359 10.018-22.386 22.386-22.386 2.591 0 5.078.44 7.393 1.252-8.732 3.057-14.985 11.366-14.985 21.134 0 9.776 6.253 18.076 14.985 21.134z" fill="#eab14d"/></g><g><circle cx="256.001" cy="270.337" fill="#eddc54" r="22.385"/><path d="m263.395 291.471c-2.315.812-4.802 1.252-7.393 1.252-12.368 0-22.386-10.019-22.386-22.386 0-12.359 10.018-22.386 22.386-22.386 2.591 0 5.078.44 7.393 1.252-8.732 3.057-14.985 11.366-14.985 21.134 0 9.776 6.253 18.076 14.985 21.134z" fill="#eab14d"/></g><g><circle cx="256.001" cy="156.091" fill="#eddc54" r="22.385"/><path d="m263.395 177.225c-2.315.812-4.802 1.252-7.393 1.252-12.368 0-22.386-10.019-22.386-22.386 0-12.359 10.018-22.386 22.386-22.386 2.591 0 5.078.44 7.393 1.252-8.732 3.057-14.985 11.366-14.985 21.134 0 9.776 6.253 18.076 14.985 21.134z" fill="#eab14d"/></g></g></svg>