<?xml version="1.0" encoding="iso-8859-1"?>
<!-- Generator: Adobe Illustrator 19.0.0, SVG Export Plug-In . SVG Version: 6.00 Build 0)  -->
<svg version="1.1" id="Capa_1" xmlns="http://www.w3.org/2000/svg" xmlns:xlink="http://www.w3.org/1999/xlink" x="0px" y="0px"
	 viewBox="0 0 511.998 511.998" style="enable-background:new 0 0 511.998 511.998;" xml:space="preserve">
<g>
	<path style="fill:#E85454;" d="M256.088,340.785c70.999,0,128.575-57.541,128.575-128.539c0-70.581-56.627-128.525-128.575-128.525
		c-70.996,0-128.539,57.527-128.539,128.525C127.549,283.244,185.092,340.785,256.088,340.785z"/>
	<path style="fill:#D84848;" d="M148.154,212.246c0-67.545,52.084-122.894,118.283-128.118c-3.411-0.267-6.862-0.407-10.349-0.407
		c-70.996,0-128.539,57.527-128.539,128.525s57.543,128.539,128.539,128.539c3.469,0,6.904-0.142,10.303-0.411
		C200.213,335.127,148.154,279.776,148.154,212.246z"/>
	<g>
		<path style="fill:#777777;" d="M38.423,399.713l-4.468-14.94c-0.168-0.562-0.685-0.947-1.271-0.947H13.081
			c-0.589,0-1.107,0.388-1.273,0.952L0.055,424.756c-0.25,0.849,0.386,1.699,1.27,1.701l10.691,0.02
			c0.589,0.001,1.108-0.386,1.275-0.95l5.339-18.048c0.381-1.287,2.213-1.259,2.555,0.039l4.733,17.972
			c0.153,0.583,0.68,0.989,1.283,0.989h6.904c0.373,0,0.729-0.157,0.98-0.432l15.874-17.398c0.945-1.036,2.642-0.088,2.255,1.26
			l-4.271,14.871c-0.244,0.85,0.396,1.696,1.28,1.693l14.542-0.05c0.594-0.002,1.113-0.398,1.273-0.97l11.182-40.026
			c0.236-0.846-0.4-1.684-1.278-1.684H55.389c-0.388,0-0.756,0.17-1.008,0.464l-13.679,15.988
			C40.019,400.993,38.724,400.719,38.423,399.713z"/>
		<path style="fill:#777777;" d="M151.755,384.787l-2.864,11.188c-0.226,0.882,0.441,1.741,1.352,1.741h14.398
			c0.904,0,1.569,0.846,1.356,1.725l-6.157,25.31c-0.214,0.879,0.453,1.726,1.358,1.725l13.974-0.02
			c0.635-0.001,1.189-0.43,1.348-1.044l6.958-26.773c0.16-0.615,0.715-1.044,1.35-1.044h16.071c0.649,0,1.212-0.448,1.359-1.08
			l2.548-10.98c0.203-0.874-0.46-1.709-1.357-1.71l-50.34-0.085C152.471,383.737,151.913,384.169,151.755,384.787z"/>
		<path style="fill:#777777;" d="M322.182,383.818c-0.041-0.004-0.075-0.005-0.116-0.005l-27.413,0.014v-0.014h-12.656
			c-0.537,0-1.01,0.357-1.156,0.874l-11.431,40.236c-0.218,0.768,0.358,1.531,1.156,1.531h13.416c0.537,0,1.009-0.356,1.156-0.873
			l3.117-10.948c0.148-0.521,0.627-0.878,1.169-0.873l11.772,0.12c4.014-0.34,4.757,2.083,4.886,2.752
			c0.019,0.097,0.025,0.182,0.019,0.281c-0.029,0.551-0.167,3.044-0.395,5.831c-0.272,3.202,2.826,3.676,2.826,3.676h15.08
			c0.842,0,1.405-0.837,1.12-1.629c-0.359-0.996-0.403-2.111-0.403-2.801c0-1.154,1.831-3.924,1.322-7.736
			c-0.509-3.805-4.541-4.562-5.05-4.939c-0.513-0.387,0.143-1.032,0.143-1.032s10.809-3.244,11.985-13.408
			C333.826,385.133,323.092,383.905,322.182,383.818z M310.713,401.971H294.15c-0.783,0-1.357-0.736-1.166-1.495l1.683-6.698h-0.015
			v-0.052h0.028l-0.013,0.053l17.735,0.063c0,0,3.324-0.251,3.115,3.324c-0.226,3.635-3.836,4.62-4.556,4.781
			C310.878,401.964,310.799,401.971,310.713,401.971z"/>
		<path style="fill:#777777;" d="M430.346,383.813H415.87c-0.401,0-0.751,0.271-0.852,0.658L404.35,425.39
			c-0.145,0.558,0.275,1.102,0.852,1.102h41.396c0.399,0,0.749-0.269,0.851-0.655l2.648-9.991c0.148-0.559-0.273-1.106-0.851-1.106
			h-24.528c-0.574,0-0.995-0.541-0.853-1.098l7.333-28.732C431.341,384.354,430.92,383.813,430.346,383.813z"/>
		<path style="fill:#777777;" d="M501.713,383.778h-18.71c-0.312,0-0.603,0.155-0.779,0.413l-27.696,40.815
			c-0.424,0.625,0.024,1.47,0.78,1.469l12.064-0.021c0.314-0.001,0.608-0.158,0.782-0.42l4.681-7.038l0.073-0.066h20.527
			l0.063,0.146l1.618,6.682c0.102,0.422,0.48,0.719,0.914,0.719h15.027c0.604,0,1.052-0.562,0.917-1.151l-9.346-40.818
			C502.532,384.081,502.152,383.778,501.713,383.778z M490.848,408.898h-10.883l-0.244-0.094l7.197-10.653
			c0.46-0.68,1.509-0.487,1.696,0.313l2.433,10.414L490.848,408.898z"/>
		<path style="fill:#777777;" d="M402.626,398.183c-2.389-11.695-16.233-16.094-28.751-16.094
			c-25.689,0.512-38.498,17.346-36.111,29.78c2.386,12.403,19.239,19.062,38.085,15.413
			C393.544,423.89,405.141,410.266,402.626,398.183z M376.142,415.738c-7.296,3.61-18.364,2.452-19.665-5.03
			c-1.416-8.198,5.872-18.293,17.332-17.558c5.159,0.29,10.223,2.672,11.005,6.383C387.29,411.403,374.622,416.485,376.142,415.738z
			"/>
		<path style="fill:#777777;" d="M268.194,398.183c-2.389-11.695-16.233-16.094-28.751-16.094c-3.328,0.066-7.081,0.481-10.105,1.06
			c-12.735,2.448-28.825,14.042-26.006,28.72c2.386,12.403,19.239,19.062,38.085,15.413
			C259.111,423.89,270.709,410.266,268.194,398.183z M241.709,415.738c-7.296,3.61-18.364,2.452-19.665-5.03
			c-1.242-7.192,4.301-14.276,8.995-15.964c3.847-1.399,5.344-1.786,8.336-1.594c5.159,0.29,10.223,2.672,11.005,6.383
			C252.857,411.403,240.189,416.485,241.709,415.738z"/>
		<path style="fill:#777777;" d="M144.513,398.183c-2.389-11.695-16.233-16.094-28.751-16.094c-3.328,0.066-7.081,0.481-10.105,1.06
			c-12.735,2.448-28.825,14.042-26.006,28.72c2.386,12.403,19.239,19.062,38.085,15.413
			C135.43,423.89,147.027,410.266,144.513,398.183z M118.028,415.738c-7.296,3.61-18.364,2.452-19.665-5.03
			c-1.242-7.192,4.301-14.276,8.995-15.964c3.847-1.399,5.344-1.786,8.336-1.594c5.159,0.29,10.223,2.672,11.005,6.383
			C129.176,411.403,116.508,416.485,118.028,415.738z"/>
	</g>
	<path style="fill:#F2F2F2;" d="M217.761,126.727c0.624-2.046,3.522-2.041,4.139,0.006l33.9,112.465l0.288,0.216l0.242-0.216
		l33.903-112.466c0.617-2.048,3.515-2.052,4.139-0.007l43.653,143.119c0.424,1.389-0.616,2.793-2.068,2.793h-4.118
		c-1.001,0-1.87-0.687-2.103-1.661c-1.451-6.053-6.907-27.282-15.03-40.763c-5.18-8.619-13.219-15.67-23.913-15.466
		c-15.959,0.283-26.126,21.093-32.751,35.565c-0.772,1.686-3.161,1.685-3.932-0.001c-2.574-5.63-7.154-15.225-10.501-19.9
		c-8.163-11.395-14.691-15.53-22.243-15.664c-10.715-0.204-18.725,6.847-23.929,15.448c-8.107,13.497-13.574,34.73-15.029,40.782
		c-0.234,0.973-1.102,1.66-2.103,1.66h-4.1c-1.452,0-2.492-1.404-2.068-2.793L217.761,126.727z"/>
	<g>
		<path style="fill:#D6D6D8;" d="M217.761,126.727l-43.626,143.117c-0.423,1.389,0.616,2.793,2.069,2.793h4.1
			c1.001,0,1.869-0.687,2.103-1.66c1.455-6.052,6.922-27.285,15.029-40.782c2.707-4.474,6.179-8.516,10.39-11.348l21.037-69.012
			l-6.963-23.101C221.282,124.686,218.384,124.681,217.761,126.727z"/>
		<path style="fill:#D6D6D8;" d="M280.968,217.662l20.449-67.837l-7.046-23.1c-0.624-2.046-3.521-2.041-4.139,0.007
			c-8.334,27.647-26.706,88.593-33.903,112.466l-0.242,0.216l-0.143-0.107l-2.797,8.924c0.342,0.735,0.666,1.436,0.96,2.08
			c0.771,1.686,3.16,1.686,3.932,0.001c6.884-15.038,9.895-19.198,12.465-22.528l0.002,0.006
			C273.374,224.069,276.959,220.118,280.968,217.662z"/>
	</g>
</g>
<g>
</g>
<g>
</g>
<g>
</g>
<g>
</g>
<g>
</g>
<g>
</g>
<g>
</g>
<g>
</g>
<g>
</g>
<g>
</g>
<g>
</g>
<g>
</g>
<g>
</g>
<g>
</g>
<g>
</g>
</svg>
