<?xml version="1.0" encoding="iso-8859-1"?>
<!-- Generator: Adobe Illustrator 19.0.0, SVG Export Plug-In . SVG Version: 6.00 Build 0)  -->
<svg version="1.1" id="Capa_1" xmlns="http://www.w3.org/2000/svg" xmlns:xlink="http://www.w3.org/1999/xlink" x="0px" y="0px"
	 viewBox="0 0 512.001 512.001" style="enable-background:new 0 0 512.001 512.001;" xml:space="preserve">
<g>
	<path style="fill:#D6D6D8;" d="M102.115,292.876c-37.243,0-47.59-94.219-100.344-96.275C0.799,196.563,0,197.365,0,198.337v18.156
		c0,1.162,0.888,2.113,2.044,2.23c35.634,3.599,46.312,96.207,100.071,96.207c54.706,0,65.026-96.31,102.115-96.31
		c36.577,0,47.166,93.808,99.976,96.26c1.16,0.054,2.139-0.856,2.139-2.017v-18.559c0-0.766-0.582-1.423-1.346-1.472
		c-36.618-2.344-47.111-96.267-100.769-96.267C149.914,196.566,139.785,292.876,102.115,292.876z"/>
	<path style="fill:#D6D6D8;" d="M220.396,274.507c1.346,10.665-7.625,19.634-18.29,18.287c-7.265-0.918-13.129-6.786-14.042-14.052
		c-1.34-10.661,7.625-19.624,18.285-18.281C213.613,261.377,219.479,267.243,220.396,274.507z"/>
	<path style="fill:#D6D6D8;" d="M452.728,196.718c-32.736,0-59.273,26.537-59.273,59.273s26.537,59.273,59.273,59.273
		c32.735,0,59.273-26.537,59.273-59.273C512,223.256,485.463,196.718,452.728,196.718z M448.683,292.997
		c-17.26-1.83-31.135-15.706-32.964-32.966c-2.511-23.691,17.361-43.562,41.051-41.049c17.26,1.831,31.135,15.708,32.963,32.969
		C492.241,275.64,472.37,295.509,448.683,292.997z"/>
	<path style="fill:#D6D6D8;" d="M359.56,315.436h-22.054v-90.609l0.018,0.623c-0.395-6.969,2.036-20.729,13.529-28.657
		c0.283-0.195,0.679-0.116,0.868,0.172l11.406,17.317c0.213,0.323,0.123,0.741-0.178,0.984c-3.474,2.803-3.601,8.223-3.601,8.992
		c0,0.053,0,0.08,0,0.087c0.006,0.105,0.011,0.221,0.011,0.221C359.56,234.994,359.56,305.693,359.56,315.436z"/>
</g>
<g>
	<path style="fill:#C2C2C4;" d="M54.348,261.059C40.725,233.006,22.309,206.36,0.756,206.36c-0.27,0-0.523-0.063-0.756-0.166v10.299
		c0,1.162,0.888,2.113,2.044,2.23c35.634,3.599,46.312,96.207,100.072,96.207c2.244,0,4.404-0.179,6.501-0.488
		C82.579,310.702,66.102,285.263,54.348,261.059z"/>
	<path style="fill:#C2C2C4;" d="M210.798,197.073c-2.118-0.32-4.299-0.506-6.568-0.506c-51.066,0-62.704,84.562-95.547,95.248
		C149.039,304.945,159.521,204.825,210.798,197.073z"/>
	<path style="fill:#C2C2C4;" d="M217.366,218.62c-2.277,0-4.459,0.39-6.568,1.097c31.889,10.703,43.829,92.861,93.408,95.163
		c1.14,0.053,2.101-0.827,2.133-1.96C263.04,299.254,251.144,218.62,217.366,218.62z"/>
	<path style="fill:#C2C2C4;" d="M201.199,278.743c-0.948-7.547,3.27-14.238,9.595-17.029c-1.396-0.618-2.885-1.055-4.446-1.252
		c-10.66-1.343-19.624,7.619-18.285,18.281c0.913,7.265,6.778,13.134,14.042,14.052c3.116,0.394,6.084-0.098,8.695-1.251
		C205.695,289.283,201.916,284.45,201.199,278.743z"/>
	<path style="fill:#C2C2C4;" d="M459.283,292.63c0.837,0.149,1.681,0.277,2.536,0.368c23.688,2.511,43.558-17.357,41.05-41.047
		c-1.828-17.261-15.702-31.138-32.963-32.969c-3.647-0.387-7.203-0.239-10.602,0.368c16.068,2.853,28.691,16.195,30.429,32.601
		C491.855,271.993,477.957,289.296,459.283,292.63z"/>
	<path style="fill:#C2C2C4;" d="M406.59,255.991c0-30.515,23.062-55.633,52.705-58.903c-2.158-0.238-4.347-0.37-6.568-0.37
		c-32.736,0-59.273,26.537-59.273,59.273s26.537,59.273,59.273,59.273c2.221,0,4.41-0.133,6.568-0.371
		C429.652,311.625,406.59,286.506,406.59,255.991z"/>
	<path style="fill:#C2C2C4;" d="M350.66,225.45c-0.288-5.081,0.945-13.765,6.078-21.173l-4.816-7.312
		c-0.189-0.287-0.585-0.367-0.868-0.172c-11.493,7.927-13.924,21.687-13.529,28.657l-0.018-0.623v90.609h13.136v-90.609
		L350.66,225.45z"/>
</g>
<g>
</g>
<g>
</g>
<g>
</g>
<g>
</g>
<g>
</g>
<g>
</g>
<g>
</g>
<g>
</g>
<g>
</g>
<g>
</g>
<g>
</g>
<g>
</g>
<g>
</g>
<g>
</g>
<g>
</g>
</svg>
