<svg width="24" height="24" viewBox="0 0 24 24" fill="none" xmlns="http://www.w3.org/2000/svg">
<g clip-path="url(#clip0)">
<path d="M18.3455 10.0921L14.6951 8.35185L10.9464 9.99375L8.54639 16.043L10.7984 22.093L12.6736 23.5H14.6951H23.4998L18.3455 10.0921Z" fill="#0081FF"/>
<path d="M18.3457 10.0921L14.6953 8.35185V23.5H23.5L18.3457 10.0921Z" fill="#0078EE"/>
<path d="M8.73854 12.961L6.60938 13.7425L4.48021 12.961L0.5 23.5H6.60938H12.6738L8.73854 12.961Z" fill="#0081FF"/>
<path d="M12.6738 23.5L8.73854 12.961L6.60938 13.7425V23.5H12.6738Z" fill="#0078EE"/>
<path d="M6.60914 7.2832L4.47998 12.961L6.60914 15.0901L8.73831 12.961L6.60914 7.2832Z" fill="#F0F7FF"/>
<path d="M6.60938 7.2832V15.0901L8.73854 12.961L6.60938 7.2832Z" fill="#DFE7F4"/>
<path d="M14.6955 0.5L10.9468 9.99374L13.3479 12.3948L14.6955 11.0472L16.0432 12.3948L18.3459 10.0921L14.6955 0.5Z" fill="#F0F7FF"/>
<path d="M18.3457 10.0921L14.6953 0.5V11.0472L16.043 12.3948L18.3457 10.0921Z" fill="#DFE7F4"/>
</g>
<defs>
<clipPath id="clip0">
<rect width="23" height="23" fill="white" transform="translate(0.5 0.5)"/>
</clipPath>
</defs>
</svg>
